<svg width="97" height="16" viewBox="0 0 97 16" fill="none" xmlns="http://www.w3.org/2000/svg">
<path fill-rule="evenodd" clip-rule="evenodd" d="M8.08165 12.8589L13.0425 16L11.726 10.08L16.1089 6.09684L10.3373 5.58316L8.08165 0L5.82601 5.58316L0.0544434 6.09684L4.4373 10.08L3.12084 16L8.08165 12.8589Z" fill="#FAA307"/>
<path fill-rule="evenodd" clip-rule="evenodd" d="M28.1499 12.8589L33.1107 16L31.7942 10.08L36.1771 6.09684L30.4055 5.58316L28.1499 0L25.8942 5.58316L20.1227 6.09684L24.5055 10.08L23.1891 16L28.1499 12.8589Z" fill="#FAA307"/>
<path fill-rule="evenodd" clip-rule="evenodd" d="M48.2179 12.8589L53.1788 16L51.8623 10.08L56.2452 6.09684L50.4736 5.58316L48.2179 0L45.9623 5.58316L40.1907 6.09684L44.5736 10.08L43.2571 16L48.2179 12.8589Z" fill="#FAA307"/>
<path fill-rule="evenodd" clip-rule="evenodd" d="M68.2859 12.8589L73.2468 16L71.9303 10.08L76.3132 6.09684L70.5416 5.58316L68.2859 0L66.0303 5.58316L60.2587 6.09684L64.6416 10.08L63.3251 16L68.2859 12.8589Z" fill="#FAA307"/>
<path fill-rule="evenodd" clip-rule="evenodd" d="M88.354 12.8589L93.3148 16L91.9983 10.08L96.3812 6.09684L90.6096 5.58316L88.354 0L86.0983 5.58316L80.3268 6.09684L84.7096 10.08L83.3932 16L88.354 12.8589Z" fill="#FAA307"/>
</svg>
