<svg width="168" height="207" viewBox="0 0 168 207" fill="none" xmlns="http://www.w3.org/2000/svg">
<path d="M42.9341 4.42578H124.6V85.2804H42.9341V4.42578Z" fill="url(#paint0_radial_1:165)"/>
<path d="M42.9341 4.42575H124.599V85.2803H42.9341V4.42575ZM39.2212 89.0596H128.294V0.646484H39.2212V89.0596ZM99.2876 36.9311C96.3602 36.9311 95.3605 38.4392 95.3605 39.6929C95.3605 41.0556 96.021 42.0004 99.9659 44.0717C105.785 46.9425 107.606 49.7043 107.606 53.7379C107.606 59.7884 103.072 63.0408 96.9492 63.0408C93.7183 63.0408 90.9337 62.3685 89.345 61.4237C89.0772 61.3146 89.0415 61.1148 89.0415 60.8241V55.246C89.0415 54.8645 89.22 54.7554 89.4878 54.9371C91.8262 56.4815 94.5037 57.172 96.9492 57.172C99.8767 57.172 101.108 55.9183 101.108 54.2285C101.108 52.8658 100.252 51.6666 96.503 49.6861C91.2371 47.1242 89.0415 44.526 89.0415 40.1653C89.0415 35.2958 92.7901 31.244 99.2876 31.244C102.483 31.244 104.714 31.7346 105.928 32.2979C106.231 32.4796 106.303 32.7884 106.303 33.061V38.2393C106.303 38.5482 106.124 38.7299 105.749 38.6209C104.107 37.567 101.697 36.9311 99.2876 36.9311ZM67.3712 41.419C68.228 41.4917 68.8885 41.4917 70.3701 41.4917C74.7077 41.4917 78.7954 39.9472 78.7954 33.9331C78.7954 29.1364 75.868 26.7198 70.9234 26.7198C69.4418 26.7198 68.0317 26.7925 67.3533 26.8288L67.3712 41.419ZM60.7487 21.3598C60.7487 21.0872 61.2664 20.9055 61.5698 20.9055C63.9439 20.7965 67.4783 20.7239 71.1376 20.7239C81.4194 20.7239 85.4358 26.4654 85.4358 33.7878C85.4358 43.3813 78.5991 47.5058 70.2094 47.5058C68.7992 47.5058 68.3173 47.4331 67.3176 47.4331V61.9324C67.3176 62.2413 67.2105 62.3867 66.8714 62.3867H61.195C60.8915 62.3867 60.7487 62.2776 60.7487 61.9324V21.3598Z" fill="#31C5F0"/>
<path d="M69.0469 124.266L68.4589 122.502H64.5529L63.9649 124.266H61.8789L65.3089 114.466H67.7029L71.1469 124.266H69.0469ZM65.1689 120.696H67.8569L66.5129 116.692L65.1689 120.696ZM77.1291 114.466H78.9351V124.266H77.1291V123.44C76.5971 124.121 75.8411 124.462 74.8611 124.462C73.9184 124.462 73.1111 124.107 72.4391 123.398C71.7764 122.679 71.4451 121.802 71.4451 120.766C71.4451 119.73 71.7764 118.857 72.4391 118.148C73.1111 117.429 73.9184 117.07 74.8611 117.07C75.8411 117.07 76.5971 117.41 77.1291 118.092V114.466ZM73.7971 122.194C74.1704 122.558 74.6371 122.74 75.1971 122.74C75.7571 122.74 76.2191 122.558 76.5831 122.194C76.9471 121.82 77.1291 121.344 77.1291 120.766C77.1291 120.187 76.9471 119.716 76.5831 119.352C76.2191 118.978 75.7571 118.792 75.1971 118.792C74.6371 118.792 74.1704 118.978 73.7971 119.352C73.4331 119.716 73.2511 120.187 73.2511 120.766C73.2511 121.344 73.4331 121.82 73.7971 122.194ZM86.5507 123.398C85.8321 124.107 84.9547 124.462 83.9187 124.462C82.8827 124.462 82.0054 124.107 81.2867 123.398C80.5774 122.679 80.2227 121.802 80.2227 120.766C80.2227 119.73 80.5774 118.857 81.2867 118.148C82.0054 117.429 82.8827 117.07 83.9187 117.07C84.9547 117.07 85.8321 117.429 86.5507 118.148C87.2694 118.857 87.6287 119.73 87.6287 120.766C87.6287 121.802 87.2694 122.679 86.5507 123.398ZM82.5607 122.152C82.9247 122.516 83.3774 122.698 83.9187 122.698C84.4601 122.698 84.9127 122.516 85.2767 122.152C85.6407 121.788 85.8227 121.326 85.8227 120.766C85.8227 120.206 85.6407 119.744 85.2767 119.38C84.9127 119.016 84.4601 118.834 83.9187 118.834C83.3774 118.834 82.9247 119.016 82.5607 119.38C82.2061 119.744 82.0287 120.206 82.0287 120.766C82.0287 121.326 82.2061 121.788 82.5607 122.152ZM92.9732 117.07C93.9159 117.07 94.7186 117.429 95.3812 118.148C96.0532 118.857 96.3892 119.73 96.3892 120.766C96.3892 121.802 96.0532 122.679 95.3812 123.398C94.7186 124.107 93.9159 124.462 92.9732 124.462C91.9932 124.462 91.2372 124.121 90.7052 123.44V124.266H88.8992V114.466H90.7052V118.092C91.2372 117.41 91.9932 117.07 92.9732 117.07ZM91.2512 122.194C91.6152 122.558 92.0772 122.74 92.6372 122.74C93.1972 122.74 93.6592 122.558 94.0232 122.194C94.3966 121.82 94.5832 121.344 94.5832 120.766C94.5832 120.187 94.3966 119.716 94.0232 119.352C93.6592 118.978 93.1972 118.792 92.6372 118.792C92.0772 118.792 91.6152 118.978 91.2512 119.352C90.8872 119.716 90.7052 120.187 90.7052 120.766C90.7052 121.344 90.8872 121.82 91.2512 122.194ZM99.1889 121.508C99.4316 122.385 100.09 122.824 101.163 122.824C101.854 122.824 102.376 122.59 102.731 122.124L104.187 122.964C103.496 123.962 102.479 124.462 101.135 124.462C99.9776 124.462 99.0489 124.112 98.3489 123.412C97.6489 122.712 97.2989 121.83 97.2989 120.766C97.2989 119.711 97.6442 118.834 98.3349 118.134C99.0256 117.424 99.9122 117.07 100.995 117.07C102.022 117.07 102.866 117.424 103.529 118.134C104.201 118.843 104.537 119.72 104.537 120.766C104.537 120.999 104.514 121.246 104.467 121.508H99.1889ZM99.1609 120.108H102.731C102.628 119.632 102.414 119.277 102.087 119.044C101.77 118.81 101.406 118.694 100.995 118.694C100.51 118.694 100.108 118.82 99.7909 119.072C99.4736 119.314 99.2636 119.66 99.1609 120.108ZM53.3101 131.466C54.2528 131.466 55.0461 131.783 55.6901 132.418C56.3341 133.052 56.6561 133.832 56.6561 134.756C56.6561 135.68 56.3341 136.459 55.6901 137.094C55.0461 137.728 54.2528 138.046 53.3101 138.046H51.5881V141.266H49.6561V131.466H53.3101ZM53.3101 136.24C53.7208 136.24 54.0614 136.1 54.3321 135.82C54.6028 135.53 54.7381 135.176 54.7381 134.756C54.7381 134.326 54.6028 133.972 54.3321 133.692C54.0614 133.412 53.7208 133.272 53.3101 133.272H51.5881V136.24H53.3101ZM61.7219 134.07C62.4872 134.07 63.1172 134.326 63.6119 134.84C64.1159 135.353 64.3679 136.062 64.3679 136.968V141.266H62.5619V137.192C62.5619 136.725 62.4359 136.37 62.1839 136.128C61.9319 135.876 61.5959 135.75 61.1759 135.75C60.7092 135.75 60.3359 135.894 60.0559 136.184C59.7759 136.473 59.6359 136.907 59.6359 137.486V141.266H57.8299V131.466H59.6359V135.05C60.0746 134.396 60.7699 134.07 61.7219 134.07ZM71.874 140.398C71.1553 141.107 70.278 141.462 69.242 141.462C68.206 141.462 67.3287 141.107 66.61 140.398C65.9007 139.679 65.546 138.802 65.546 137.766C65.546 136.73 65.9007 135.857 66.61 135.148C67.3287 134.429 68.206 134.07 69.242 134.07C70.278 134.07 71.1553 134.429 71.874 135.148C72.5927 135.857 72.952 136.73 72.952 137.766C72.952 138.802 72.5927 139.679 71.874 140.398ZM67.884 139.152C68.248 139.516 68.7007 139.698 69.242 139.698C69.7833 139.698 70.236 139.516 70.6 139.152C70.964 138.788 71.146 138.326 71.146 137.766C71.146 137.206 70.964 136.744 70.6 136.38C70.236 136.016 69.7833 135.834 69.242 135.834C68.7007 135.834 68.248 136.016 67.884 136.38C67.5293 136.744 67.352 137.206 67.352 137.766C67.352 138.326 67.5293 138.788 67.884 139.152ZM78.0761 136.002H76.4941V138.914C76.4941 139.156 76.5548 139.334 76.6761 139.446C76.7974 139.558 76.9748 139.623 77.2081 139.642C77.4414 139.651 77.7308 139.646 78.0761 139.628V141.266C76.8348 141.406 75.9574 141.289 75.4441 140.916C74.9401 140.542 74.6881 139.875 74.6881 138.914V136.002H73.4701V134.266H74.6881V132.852L76.4941 132.306V134.266H78.0761V136.002ZM85.0947 140.398C84.376 141.107 83.4987 141.462 82.4627 141.462C81.4267 141.462 80.5494 141.107 79.8307 140.398C79.1214 139.679 78.7667 138.802 78.7667 137.766C78.7667 136.73 79.1214 135.857 79.8307 135.148C80.5494 134.429 81.4267 134.07 82.4627 134.07C83.4987 134.07 84.376 134.429 85.0947 135.148C85.8134 135.857 86.1727 136.73 86.1727 137.766C86.1727 138.802 85.8134 139.679 85.0947 140.398ZM81.1047 139.152C81.4687 139.516 81.9214 139.698 82.4627 139.698C83.004 139.698 83.4567 139.516 83.8207 139.152C84.1847 138.788 84.3667 138.326 84.3667 137.766C84.3667 137.206 84.1847 136.744 83.8207 136.38C83.4567 136.016 83.004 135.834 82.4627 135.834C81.9214 135.834 81.4687 136.016 81.1047 136.38C80.75 136.744 80.5727 137.206 80.5727 137.766C80.5727 138.326 80.75 138.788 81.1047 139.152ZM88.9588 136.254C88.9588 136.44 89.0801 136.594 89.3228 136.716C89.5748 136.828 89.8781 136.93 90.2328 137.024C90.5875 137.108 90.9421 137.22 91.2968 137.36C91.6515 137.49 91.9501 137.714 92.1928 138.032C92.4448 138.349 92.5708 138.746 92.5708 139.222C92.5708 139.94 92.3001 140.496 91.7588 140.888C91.2268 141.27 90.5595 141.462 89.7568 141.462C88.3195 141.462 87.3395 140.906 86.8168 139.796L88.3848 138.914C88.5901 139.52 89.0475 139.824 89.7568 139.824C90.4008 139.824 90.7228 139.623 90.7228 139.222C90.7228 139.035 90.5968 138.886 90.3448 138.774C90.1021 138.652 89.8035 138.545 89.4488 138.452C89.0941 138.358 88.7395 138.242 88.3848 138.102C88.0301 137.962 87.7268 137.742 87.4748 137.444C87.2321 137.136 87.1108 136.753 87.1108 136.296C87.1108 135.605 87.3628 135.064 87.8668 134.672C88.3801 134.27 89.0148 134.07 89.7708 134.07C90.3401 134.07 90.8581 134.2 91.3248 134.462C91.7915 134.714 92.1601 135.078 92.4308 135.554L90.8908 136.394C90.6668 135.918 90.2935 135.68 89.7708 135.68C89.5375 135.68 89.3415 135.731 89.1828 135.834C89.0335 135.936 88.9588 136.076 88.9588 136.254ZM97.6243 134.07C98.3896 134.07 99.0196 134.326 99.5143 134.84C100.018 135.353 100.27 136.062 100.27 136.968V141.266H98.4643V137.192C98.4643 136.725 98.3383 136.37 98.0863 136.128C97.8343 135.876 97.4983 135.75 97.0783 135.75C96.6116 135.75 96.2383 135.894 95.9583 136.184C95.6783 136.473 95.5383 136.907 95.5383 137.486V141.266H93.7323V131.466H95.5383V135.05C95.9769 134.396 96.6723 134.07 97.6243 134.07ZM107.776 140.398C107.058 141.107 106.18 141.462 105.144 141.462C104.108 141.462 103.231 141.107 102.512 140.398C101.803 139.679 101.448 138.802 101.448 137.766C101.448 136.73 101.803 135.857 102.512 135.148C103.231 134.429 104.108 134.07 105.144 134.07C106.18 134.07 107.058 134.429 107.776 135.148C108.495 135.857 108.854 136.73 108.854 137.766C108.854 138.802 108.495 139.679 107.776 140.398ZM103.786 139.152C104.15 139.516 104.603 139.698 105.144 139.698C105.686 139.698 106.138 139.516 106.502 139.152C106.866 138.788 107.048 138.326 107.048 137.766C107.048 137.206 106.866 136.744 106.502 136.38C106.138 136.016 105.686 135.834 105.144 135.834C104.603 135.834 104.15 136.016 103.786 136.38C103.432 136.744 103.254 137.206 103.254 137.766C103.254 138.326 103.432 138.788 103.786 139.152ZM114.199 134.07C115.141 134.07 115.944 134.429 116.607 135.148C117.279 135.857 117.615 136.73 117.615 137.766C117.615 138.802 117.279 139.679 116.607 140.398C115.944 141.107 115.141 141.462 114.199 141.462C113.219 141.462 112.463 141.121 111.931 140.44V144.066H110.125V134.266H111.931V135.092C112.463 134.41 113.219 134.07 114.199 134.07ZM112.477 139.194C112.841 139.558 113.303 139.74 113.863 139.74C114.423 139.74 114.885 139.558 115.249 139.194C115.622 138.82 115.809 138.344 115.809 137.766C115.809 137.187 115.622 136.716 115.249 136.352C114.885 135.978 114.423 135.792 113.863 135.792C113.303 135.792 112.841 135.978 112.477 136.352C112.113 136.716 111.931 137.187 111.931 137.766C111.931 138.344 112.113 138.82 112.477 139.194Z" fill="#828282"/>
<path d="M12.7933 183.859C13.0931 182.939 14.3951 182.939 14.6949 183.859L16.446 189.234C16.5801 189.645 16.9639 189.924 17.3968 189.924H23.0576C24.0269 189.924 24.4293 191.165 23.6443 191.734L19.0694 195.048C18.7179 195.303 18.5709 195.755 18.7053 196.168L20.4539 201.535C20.7539 202.455 19.7006 203.222 18.9164 202.654L14.3308 199.332C13.9808 199.078 13.5074 199.078 13.1574 199.332L8.57183 202.654C7.78757 203.222 6.73428 202.455 7.0343 201.535L8.78288 196.168C8.91733 195.755 8.77025 195.303 8.41879 195.048L3.84392 191.734C3.05891 191.165 3.46124 189.924 4.43064 189.924H10.0914C10.5243 189.924 10.9081 189.645 11.0422 189.234L12.7933 183.859Z" fill="#070707"/>
<path d="M47.8903 183.859C48.1901 182.939 49.492 182.939 49.7919 183.859L51.543 189.234C51.6771 189.645 52.0609 189.924 52.4938 189.924H58.1545C59.1239 189.924 59.5263 191.165 58.7413 191.734L54.1664 195.048C53.8149 195.303 53.6678 195.755 53.8023 196.168L55.5509 201.535C55.8509 202.455 54.7976 203.222 54.0133 202.654L49.4278 199.332C49.0778 199.078 48.6044 199.078 48.2544 199.332L43.6688 202.654C42.8846 203.222 41.8313 202.455 42.1313 201.535L43.8799 196.168C44.0143 195.755 43.8672 195.303 43.5158 195.048L38.9409 191.734C38.1559 191.165 38.5582 189.924 39.5276 189.924H45.1884C45.6213 189.924 46.0051 189.645 46.1392 189.234L47.8903 183.859Z" fill="#070707"/>
<path d="M82.9874 183.859C83.2873 182.939 84.5892 182.939 84.8891 183.859L86.6401 189.234C86.7743 189.645 87.158 189.924 87.591 189.924H93.2517C94.2211 189.924 94.6234 191.165 93.8384 191.734L89.2635 195.048C88.9121 195.303 88.765 195.755 88.8995 196.168L90.648 201.535C90.9481 202.455 89.8948 203.222 89.1105 202.654L84.525 199.332C84.1749 199.078 83.7016 199.078 83.3515 199.332L78.766 202.654C77.9817 203.222 76.9284 202.455 77.2285 201.535L78.977 196.168C79.1115 195.755 78.9644 195.303 78.6129 195.048L74.0381 191.734C73.2531 191.165 73.6554 189.924 74.6248 189.924H80.2855C80.7185 189.924 81.1022 189.645 81.2363 189.234L82.9874 183.859Z" fill="#070707"/>
<path d="M118.085 183.859C118.384 182.939 119.686 182.939 119.986 183.859L121.737 189.234C121.871 189.645 122.255 189.924 122.688 189.924H128.349C129.318 189.924 129.721 191.165 128.936 191.734L124.361 195.048C124.009 195.303 123.862 195.755 123.997 196.168L125.745 201.535C126.045 202.455 124.992 203.222 124.208 202.654L119.622 199.332C119.272 199.078 118.799 199.078 118.449 199.332L113.863 202.654C113.079 203.222 112.026 202.455 112.326 201.535L114.074 196.168C114.209 195.755 114.062 195.303 113.71 195.048L109.135 191.734C108.35 191.165 108.753 189.924 109.722 189.924H115.383C115.816 189.924 116.199 189.645 116.333 189.234L118.085 183.859Z" fill="#070707"/>
<path d="M153.182 183.859C153.482 182.939 154.784 182.939 155.083 183.859L156.834 189.234C156.969 189.645 157.352 189.924 157.785 189.924H163.446C164.415 189.924 164.818 191.165 164.033 191.734L159.458 195.048C159.106 195.303 158.959 195.755 159.094 196.168L160.842 201.535C161.142 202.455 160.089 203.222 159.305 202.654L154.719 199.332C154.369 199.078 153.896 199.078 153.546 199.332L148.96 202.654C148.176 203.222 147.123 202.455 147.423 201.535L149.171 196.168C149.306 195.755 149.159 195.303 148.807 195.048L144.232 191.734C143.447 191.165 143.85 189.924 144.819 189.924H150.48C150.913 189.924 151.297 189.645 151.431 189.234L153.182 183.859Z" fill="#E5E5E5"/>
<defs>
<radialGradient id="paint0_radial_1:165" cx="0" cy="0" r="1" gradientUnits="userSpaceOnUse" gradientTransform="translate(69.8385 22.5656) scale(62.0565 61.1565)">
<stop stop-color="#34364E" stop-opacity="0.98"/>
<stop offset="1" stop-color="#0C0824"/>
</radialGradient>
</defs>
</svg>
