<svg width="167" height="207" viewBox="0 0 167 207" fill="none" xmlns="http://www.w3.org/2000/svg">
<path d="M67.8663 123.268L67.2783 121.504H63.3723L62.7843 123.268H60.6983L64.1283 113.468H66.5223L69.9663 123.268H67.8663ZM63.9883 119.698H66.6763L65.3323 115.694L63.9883 119.698ZM75.9485 113.468H77.7545V123.268H75.9485V122.442C75.4165 123.123 74.6605 123.464 73.6805 123.464C72.7378 123.464 71.9305 123.109 71.2585 122.4C70.5958 121.681 70.2645 120.804 70.2645 119.768C70.2645 118.732 70.5958 117.859 71.2585 117.15C71.9305 116.431 72.7378 116.072 73.6805 116.072C74.6605 116.072 75.4165 116.412 75.9485 117.094V113.468ZM72.6165 121.196C72.9898 121.56 73.4565 121.742 74.0165 121.742C74.5765 121.742 75.0385 121.56 75.4025 121.196C75.7665 120.822 75.9485 120.346 75.9485 119.768C75.9485 119.189 75.7665 118.718 75.4025 118.354C75.0385 117.98 74.5765 117.794 74.0165 117.794C73.4565 117.794 72.9898 117.98 72.6165 118.354C72.2525 118.718 72.0705 119.189 72.0705 119.768C72.0705 120.346 72.2525 120.822 72.6165 121.196ZM85.3702 122.4C84.6515 123.109 83.7742 123.464 82.7382 123.464C81.7022 123.464 80.8248 123.109 80.1062 122.4C79.3968 121.681 79.0422 120.804 79.0422 119.768C79.0422 118.732 79.3968 117.859 80.1062 117.15C80.8248 116.431 81.7022 116.072 82.7382 116.072C83.7742 116.072 84.6515 116.431 85.3702 117.15C86.0888 117.859 86.4482 118.732 86.4482 119.768C86.4482 120.804 86.0888 121.681 85.3702 122.4ZM81.3802 121.154C81.7442 121.518 82.1968 121.7 82.7382 121.7C83.2795 121.7 83.7322 121.518 84.0962 121.154C84.4602 120.79 84.6422 120.328 84.6422 119.768C84.6422 119.208 84.4602 118.746 84.0962 118.382C83.7322 118.018 83.2795 117.836 82.7382 117.836C82.1968 117.836 81.7442 118.018 81.3802 118.382C81.0255 118.746 80.8482 119.208 80.8482 119.768C80.8482 120.328 81.0255 120.79 81.3802 121.154ZM91.7927 116.072C92.7353 116.072 93.538 116.431 94.2007 117.15C94.8727 117.859 95.2087 118.732 95.2087 119.768C95.2087 120.804 94.8727 121.681 94.2007 122.4C93.538 123.109 92.7353 123.464 91.7927 123.464C90.8127 123.464 90.0567 123.123 89.5247 122.442V123.268H87.7187V113.468H89.5247V117.094C90.0567 116.412 90.8127 116.072 91.7927 116.072ZM90.0707 121.196C90.4347 121.56 90.8967 121.742 91.4567 121.742C92.0167 121.742 92.4787 121.56 92.8427 121.196C93.216 120.822 93.4027 120.346 93.4027 119.768C93.4027 119.189 93.216 118.718 92.8427 118.354C92.4787 117.98 92.0167 117.794 91.4567 117.794C90.8967 117.794 90.4347 117.98 90.0707 118.354C89.7067 118.718 89.5247 119.189 89.5247 119.768C89.5247 120.346 89.7067 120.822 90.0707 121.196ZM98.0083 120.51C98.251 121.387 98.909 121.826 99.9823 121.826C100.673 121.826 101.196 121.592 101.55 121.126L103.006 121.966C102.316 122.964 101.298 123.464 99.9543 123.464C98.797 123.464 97.8683 123.114 97.1683 122.414C96.4683 121.714 96.1183 120.832 96.1183 119.768C96.1183 118.713 96.4637 117.836 97.1543 117.136C97.845 116.426 98.7317 116.072 99.8143 116.072C100.841 116.072 101.686 116.426 102.348 117.136C103.02 117.845 103.356 118.722 103.356 119.768C103.356 120.001 103.333 120.248 103.286 120.51H98.0083ZM97.9803 119.11H101.55C101.448 118.634 101.233 118.279 100.906 118.046C100.589 117.812 100.225 117.696 99.8143 117.696C99.329 117.696 98.9277 117.822 98.6103 118.074C98.293 118.316 98.083 118.662 97.9803 119.11ZM53.8007 130.468H55.7327V140.268H53.8007V130.468ZM57.4628 140.268V130.048H59.2688V140.268H57.4628ZM60.9218 140.268V130.048H62.7278V140.268H60.9218ZM69.0008 133.268H70.8068V140.268H69.0008V139.484C68.5621 140.137 67.8668 140.464 66.9148 140.464C66.1495 140.464 65.5148 140.207 65.0108 139.694C64.5161 139.18 64.2688 138.471 64.2688 137.566V133.268H66.0748V137.342C66.0748 137.808 66.2008 138.168 66.4528 138.42C66.7048 138.662 67.0408 138.784 67.4608 138.784C67.9275 138.784 68.3008 138.639 68.5808 138.35C68.8608 138.06 69.0008 137.626 69.0008 137.048V133.268ZM74.0722 135.256C74.0722 135.442 74.1935 135.596 74.4362 135.718C74.6882 135.83 74.9915 135.932 75.3462 136.026C75.7008 136.11 76.0555 136.222 76.4102 136.362C76.7648 136.492 77.0635 136.716 77.3062 137.034C77.5582 137.351 77.6842 137.748 77.6842 138.224C77.6842 138.942 77.4135 139.498 76.8722 139.89C76.3402 140.272 75.6728 140.464 74.8702 140.464C73.4328 140.464 72.4528 139.908 71.9302 138.798L73.4982 137.916C73.7035 138.522 74.1608 138.826 74.8702 138.826C75.5142 138.826 75.8362 138.625 75.8362 138.224C75.8362 138.037 75.7102 137.888 75.4582 137.776C75.2155 137.654 74.9168 137.547 74.5622 137.454C74.2075 137.36 73.8528 137.244 73.4982 137.104C73.1435 136.964 72.8402 136.744 72.5882 136.446C72.3455 136.138 72.2242 135.755 72.2242 135.298C72.2242 134.607 72.4762 134.066 72.9802 133.674C73.4935 133.272 74.1282 133.072 74.8842 133.072C75.4535 133.072 75.9715 133.202 76.4382 133.464C76.9048 133.716 77.2735 134.08 77.5442 134.556L76.0042 135.396C75.7802 134.92 75.4068 134.682 74.8842 134.682C74.6508 134.682 74.4548 134.733 74.2962 134.836C74.1468 134.938 74.0722 135.078 74.0722 135.256ZM82.6446 135.004H81.0626V137.916C81.0626 138.158 81.1232 138.336 81.2446 138.448C81.3659 138.56 81.5432 138.625 81.7766 138.644C82.0099 138.653 82.2992 138.648 82.6446 138.63V140.268C81.4032 140.408 80.5259 140.291 80.0126 139.918C79.5086 139.544 79.2566 138.877 79.2566 137.916V135.004H78.0386V133.268H79.2566V131.854L81.0626 131.308V133.268H82.6446V135.004ZM85.8333 134.472C86.0013 134.024 86.2766 133.688 86.6593 133.464C87.0513 133.24 87.4853 133.128 87.9613 133.128V135.144C87.4106 135.078 86.9159 135.19 86.4773 135.48C86.0479 135.769 85.8333 136.25 85.8333 136.922V140.268H84.0273V133.268H85.8333V134.472ZM94.0777 133.268H95.8837V140.268H94.0777V139.442C93.5364 140.123 92.7757 140.464 91.7957 140.464C90.8624 140.464 90.0597 140.109 89.3877 139.4C88.7251 138.681 88.3937 137.804 88.3937 136.768C88.3937 135.732 88.7251 134.859 89.3877 134.15C90.0597 133.431 90.8624 133.072 91.7957 133.072C92.7757 133.072 93.5364 133.412 94.0777 134.094V133.268ZM90.7457 138.196C91.1097 138.56 91.5717 138.742 92.1317 138.742C92.6917 138.742 93.1537 138.56 93.5177 138.196C93.8911 137.822 94.0777 137.346 94.0777 136.768C94.0777 136.189 93.8911 135.718 93.5177 135.354C93.1537 134.98 92.6917 134.794 92.1317 134.794C91.5717 134.794 91.1097 134.98 90.7457 135.354C90.3817 135.718 90.1997 136.189 90.1997 136.768C90.1997 137.346 90.3817 137.822 90.7457 138.196ZM101.525 135.004H99.9434V137.916C99.9434 138.158 100.004 138.336 100.125 138.448C100.247 138.56 100.424 138.625 100.657 138.644C100.891 138.653 101.18 138.648 101.525 138.63V140.268C100.284 140.408 99.4067 140.291 98.8934 139.918C98.3894 139.544 98.1374 138.877 98.1374 137.916V135.004H96.9194V133.268H98.1374V131.854L99.9434 131.308V133.268H101.525V135.004ZM108.544 139.4C107.825 140.109 106.948 140.464 105.912 140.464C104.876 140.464 103.999 140.109 103.28 139.4C102.571 138.681 102.216 137.804 102.216 136.768C102.216 135.732 102.571 134.859 103.28 134.15C103.999 133.431 104.876 133.072 105.912 133.072C106.948 133.072 107.825 133.431 108.544 134.15C109.263 134.859 109.622 135.732 109.622 136.768C109.622 137.804 109.263 138.681 108.544 139.4ZM104.554 138.154C104.918 138.518 105.371 138.7 105.912 138.7C106.453 138.7 106.906 138.518 107.27 138.154C107.634 137.79 107.816 137.328 107.816 136.768C107.816 136.208 107.634 135.746 107.27 135.382C106.906 135.018 106.453 134.836 105.912 134.836C105.371 134.836 104.918 135.018 104.554 135.382C104.199 135.746 104.022 136.208 104.022 136.768C104.022 137.328 104.199 137.79 104.554 138.154ZM112.699 134.472C112.867 134.024 113.142 133.688 113.525 133.464C113.917 133.24 114.351 133.128 114.827 133.128V135.144C114.276 135.078 113.781 135.19 113.343 135.48C112.913 135.769 112.699 136.25 112.699 136.922V140.268H110.893V133.268H112.699V134.472Z" fill="#828282"/>
<path d="M43.0034 4.45367H124.764V85.4586H43.0034V4.45367Z" fill="url(#paint0_radial_1:180)"/>
<path d="M43.0034 4.45367H124.764V85.4586H43.0034V4.45367ZM39.2878 89.2423H128.497V0.669922H39.2878V89.2423ZM97.7187 32.2496C97.7187 31.9404 97.8259 31.7949 98.1653 31.7949H104.007C104.31 31.7949 104.453 31.904 104.453 32.2496V62.1194C104.453 62.4286 104.382 62.5742 104.007 62.5742H98.2368C97.8616 62.5742 97.7545 62.3923 97.7545 62.083V32.2496H97.7187ZM97.3079 23.6453C97.3079 21.2258 98.987 19.7888 101.095 19.7888C103.364 19.7888 104.882 21.335 104.882 23.6453C104.882 26.1374 103.292 27.5018 101.023 27.5018C98.8799 27.52 97.3079 26.1556 97.3079 23.6453ZM80.5878 44.6923C79.5517 40.4902 77.0866 31.3401 76.1577 26.9015H76.0862C75.3003 31.3219 73.3353 38.8166 71.7812 44.6923H80.5878ZM70.2628 50.8227L67.3332 62.174C67.2618 62.4832 67.1546 62.556 66.7794 62.556H61.3133C60.9381 62.556 60.8667 62.4468 60.9381 61.9921L71.4954 24.3729C71.674 23.6998 71.799 23.0813 71.8705 21.2258C71.8705 20.953 71.9777 20.8438 72.1742 20.8438H79.9804C80.2484 20.8438 80.3556 20.9166 80.427 21.2258L92.2526 62.0648C92.324 62.3741 92.2526 62.556 91.9489 62.556H85.786C85.4823 62.556 85.3037 62.4832 85.2323 62.2104L82.1776 50.8227H70.2628Z" fill="#FF7F18"/>
<path d="M12.5037 183.86C12.8036 182.94 14.1055 182.94 14.4053 183.86L16.1564 189.234C16.2906 189.646 16.6743 189.924 17.1072 189.924H22.768C23.7374 189.924 24.1397 191.165 23.3547 191.734L18.7798 195.049C18.4284 195.304 18.2813 195.756 18.4158 196.168L20.1643 201.535C20.4644 202.456 19.4111 203.223 18.6268 202.655L14.0413 199.332C13.6912 199.079 13.2179 199.079 12.8678 199.332L8.28228 202.655C7.49802 203.223 6.44473 202.456 6.74475 201.535L8.49333 196.168C8.62778 195.756 8.4807 195.304 8.12924 195.049L3.55437 191.734C2.76936 191.165 3.17169 189.924 4.14108 189.924H9.80184C10.2348 189.924 10.6185 189.646 10.7526 189.234L12.5037 183.86Z" fill="#070707"/>
<path d="M47.6009 183.86C47.9008 182.94 49.2027 182.94 49.5025 183.86L51.2536 189.234C51.3877 189.646 51.7715 189.924 52.2044 189.924H57.8652C58.8346 189.924 59.2369 191.165 58.4519 191.734L53.877 195.049C53.5256 195.304 53.3785 195.756 53.5129 196.168L55.2615 201.535C55.5615 202.456 54.5082 203.223 53.724 202.655L49.1384 199.332C48.7884 199.079 48.315 199.079 47.965 199.332L43.3794 202.655C42.5952 203.223 41.5419 202.456 41.8419 201.535L43.5905 196.168C43.7249 195.756 43.5779 195.304 43.2264 195.049L38.6515 191.734C37.8665 191.165 38.2689 189.924 39.2383 189.924H44.899C45.3319 189.924 45.7157 189.646 45.8498 189.234L47.6009 183.86Z" fill="#070707"/>
<path d="M82.6981 183.86C82.9979 182.94 84.2998 182.94 84.5997 183.86L86.3508 189.234C86.4849 189.646 86.8687 189.924 87.3016 189.924H92.9623C93.9317 189.924 94.3341 191.165 93.5491 191.734L88.9742 195.049C88.6227 195.304 88.4756 195.756 88.6101 196.168L90.3587 201.535C90.6587 202.456 89.6054 203.223 88.8211 202.655L84.2356 199.332C83.8856 199.079 83.4122 199.079 83.0622 199.332L78.4766 202.655C77.6924 203.223 76.6391 202.456 76.9391 201.535L78.6877 196.168C78.8221 195.756 78.675 195.304 78.3236 195.049L73.7487 191.734C72.9637 191.165 73.366 189.924 74.3354 189.924H79.9962C80.4291 189.924 80.8129 189.646 80.947 189.234L82.6981 183.86Z" fill="#070707"/>
<path d="M117.795 183.86C118.095 182.94 119.397 182.94 119.697 183.86L121.448 189.234C121.582 189.646 121.966 189.924 122.399 189.924H128.059C129.029 189.924 129.431 191.165 128.646 191.734L124.071 195.049C123.72 195.304 123.573 195.756 123.707 196.168L125.456 201.535C125.756 202.456 124.703 203.223 123.918 202.655L119.333 199.332C118.983 199.079 118.509 199.079 118.159 199.332L113.574 202.655C112.789 203.223 111.736 202.456 112.036 201.535L113.785 196.168C113.919 195.756 113.772 195.304 113.421 195.049L108.846 191.734C108.061 191.165 108.463 189.924 109.433 189.924H115.093C115.526 189.924 115.91 189.646 116.044 189.234L117.795 183.86Z" fill="#E5E5E5"/>
<path d="M152.892 183.86C153.192 182.94 154.494 182.94 154.794 183.86L156.545 189.234C156.679 189.646 157.063 189.924 157.496 189.924H163.157C164.126 189.924 164.528 191.165 163.743 191.734L159.168 195.049C158.817 195.304 158.67 195.756 158.804 196.168L160.553 201.535C160.853 202.456 159.8 203.223 159.015 202.655L154.43 199.332C154.08 199.079 153.606 199.079 153.256 199.332L148.671 202.655C147.887 203.223 146.833 202.456 147.133 201.535L148.882 196.168C149.016 195.756 148.869 195.304 148.518 195.049L143.943 191.734C143.158 191.165 143.56 189.924 144.53 189.924H150.19C150.623 189.924 151.007 189.646 151.141 189.234L152.892 183.86Z" fill="#E5E5E5"/>
<defs>
<radialGradient id="paint0_radial_1:180" cx="0" cy="0" r="1" gradientUnits="userSpaceOnUse" gradientTransform="translate(69.958 22.6309) scale(62.1406 61.2673)">
<stop stop-color="#423325" stop-opacity="0.98"/>
<stop offset="1" stop-color="#1C0A00"/>
</radialGradient>
</defs>
</svg>
