<svg width="168" height="206" viewBox="0 0 168 206" fill="none" xmlns="http://www.w3.org/2000/svg">
<path d="M72.7896 116.29H68.8696V118.614H72.6776V120.462H68.8696V124.242H66.9376V114.442H72.7896V116.29ZM75.0094 116.402C74.7107 116.402 74.4494 116.295 74.2254 116.08C74.0107 115.856 73.9034 115.595 73.9034 115.296C73.9034 114.998 74.0107 114.736 74.2254 114.512C74.4494 114.288 74.7107 114.176 75.0094 114.176C75.3174 114.176 75.5787 114.288 75.7934 114.512C76.0174 114.736 76.1294 114.998 76.1294 115.296C76.1294 115.595 76.0174 115.856 75.7934 116.08C75.5787 116.295 75.3174 116.402 75.0094 116.402ZM74.1134 124.242V117.242H75.9194V124.242H74.1134ZM82.9344 117.242H84.6984V123.906C84.6984 124.989 84.339 125.815 83.6204 126.384C82.911 126.954 82.0524 127.238 81.0444 127.238C80.2884 127.238 79.621 127.094 79.0424 126.804C78.473 126.515 78.0344 126.09 77.7264 125.53L79.2664 124.648C79.621 125.302 80.2324 125.628 81.1004 125.628C81.6697 125.628 82.1177 125.479 82.4444 125.18C82.771 124.882 82.9344 124.457 82.9344 123.906V123.15C82.4024 123.86 81.6557 124.214 80.6944 124.214C79.705 124.214 78.8744 123.869 78.2024 123.178C77.5397 122.478 77.2084 121.629 77.2084 120.63C77.2084 119.641 77.5444 118.796 78.2164 118.096C78.8884 117.396 79.7144 117.046 80.6944 117.046C81.6557 117.046 82.4024 117.401 82.9344 118.11V117.242ZM79.5604 122.016C79.9337 122.371 80.405 122.548 80.9744 122.548C81.5437 122.548 82.0104 122.371 82.3744 122.016C82.7477 121.652 82.9344 121.19 82.9344 120.63C82.9344 120.08 82.7477 119.627 82.3744 119.272C82.0104 118.908 81.5437 118.726 80.9744 118.726C80.405 118.726 79.9337 118.908 79.5604 119.272C79.1964 119.627 79.0144 120.08 79.0144 120.63C79.0144 121.19 79.1964 121.652 79.5604 122.016ZM94.078 117.046C94.8807 117.046 95.52 117.308 95.996 117.83C96.4814 118.353 96.724 119.053 96.724 119.93V124.242H94.918V120.056C94.918 119.636 94.8154 119.31 94.61 119.076C94.4047 118.843 94.1154 118.726 93.742 118.726C93.3314 118.726 93.0094 118.862 92.776 119.132C92.552 119.403 92.44 119.795 92.44 120.308V124.242H90.634V120.056C90.634 119.636 90.5314 119.31 90.326 119.076C90.1207 118.843 89.8314 118.726 89.458 118.726C89.0567 118.726 88.7347 118.862 88.492 119.132C88.2587 119.403 88.142 119.795 88.142 120.308V124.242H86.336V117.242H88.142V117.984C88.562 117.359 89.2107 117.046 90.088 117.046C90.9467 117.046 91.5814 117.382 91.992 118.054C92.4587 117.382 93.154 117.046 94.078 117.046ZM103.578 117.242H105.384V124.242H103.578V123.416C103.037 124.098 102.276 124.438 101.296 124.438C100.363 124.438 99.5599 124.084 98.8879 123.374C98.2253 122.656 97.8939 121.778 97.8939 120.742C97.8939 119.706 98.2253 118.834 98.8879 118.124C99.5599 117.406 100.363 117.046 101.296 117.046C102.276 117.046 103.037 117.387 103.578 118.068V117.242ZM100.246 122.17C100.61 122.534 101.072 122.716 101.632 122.716C102.192 122.716 102.654 122.534 103.018 122.17C103.391 121.797 103.578 121.321 103.578 120.742C103.578 120.164 103.391 119.692 103.018 119.328C102.654 118.955 102.192 118.768 101.632 118.768C101.072 118.768 100.61 118.955 100.246 119.328C99.8819 119.692 99.6999 120.164 99.6999 120.742C99.6999 121.321 99.8819 121.797 100.246 122.17Z" fill="#828282"/>
<g clip-path="url(#clip0_1:204)">
<path d="M72.0513 89.6605C80.0898 89.6605 86.61 83.0208 86.61 74.8348V60.0091H72.0513C64.0128 60.0091 57.4927 66.6488 57.4927 74.8348C57.4927 83.0208 64.0128 89.6605 72.0513 89.6605Z" fill="#0ACF83"/>
<path d="M57.4927 45.1652C57.4927 36.9793 64.0128 30.3395 72.0513 30.3395H86.61V60.0091H72.0513C64.0128 59.9909 57.4927 53.3512 57.4927 45.1652Z" fill="#A259FF"/>
<path d="M57.4927 15.4956C57.4927 7.30965 64.0128 0.669922 72.0513 0.669922H86.61V30.3395H72.0513C64.0128 30.3395 57.4927 23.6816 57.4927 15.4956Z" fill="#F24E1E"/>
<path d="M86.6278 0.669922H101.186C109.225 0.669922 115.745 7.30965 115.745 15.4956C115.745 23.6816 109.225 30.3213 101.186 30.3213H86.6278V0.669922V0.669922Z" fill="#FF7262"/>
<path d="M115.745 45.1652C115.745 53.3512 109.225 59.9909 101.186 59.9909C93.1479 59.9909 86.6278 53.3512 86.6278 45.1652C86.6278 36.9793 93.1479 30.3395 101.186 30.3395C109.225 30.3395 115.745 36.9793 115.745 45.1652Z" fill="#1ABCFE"/>
</g>
<path d="M12.9251 182.86C13.225 181.94 14.5269 181.94 14.8267 182.86L16.5778 188.234C16.7119 188.646 17.0957 188.924 17.5286 188.924H23.1894C24.1588 188.924 24.5611 190.165 23.7761 190.734L19.2012 194.049C18.8498 194.304 18.7027 194.756 18.8371 195.168L20.5857 200.535C20.8857 201.456 19.8325 202.223 19.0482 201.655L14.4626 198.332C14.1126 198.079 13.6392 198.079 13.2892 198.332L8.70366 201.655C7.91941 202.223 6.86612 201.456 7.16614 200.535L8.91471 195.168C9.04917 194.756 8.90209 194.304 8.55063 194.049L3.97575 190.734C3.19075 190.165 3.59308 188.924 4.56247 188.924H10.2232C10.6562 188.924 11.0399 188.646 11.174 188.234L12.9251 182.86Z" fill="#070707"/>
<path d="M48.0221 182.86C48.322 181.94 49.6239 181.94 49.9237 182.86L51.6748 188.234C51.8089 188.646 52.1927 188.924 52.6256 188.924H58.2864C59.2558 188.924 59.6581 190.165 58.8731 190.734L54.2982 194.049C53.9468 194.304 53.7997 194.756 53.9341 195.168L55.6827 200.535C55.9827 201.456 54.9294 202.223 54.1452 201.655L49.5596 198.332C49.2096 198.079 48.7362 198.079 48.3862 198.332L43.8006 201.655C43.0164 202.223 41.9631 201.456 42.2631 200.535L44.0117 195.168C44.1462 194.756 43.9991 194.304 43.6476 194.049L39.0727 190.734C38.2877 190.165 38.6901 188.924 39.6595 188.924H45.3202C45.7531 188.924 46.1369 188.646 46.271 188.234L48.0221 182.86Z" fill="#070707"/>
<path d="M83.1193 182.86C83.4192 181.94 84.7211 181.94 85.0209 182.86L86.772 188.234C86.9062 188.646 87.2899 188.924 87.7228 188.924H93.3836C94.353 188.924 94.7553 190.165 93.9703 190.734L89.3954 194.049C89.044 194.304 88.8969 194.756 89.0314 195.168L90.7799 200.535C91.08 201.456 90.0267 202.223 89.2424 201.655L84.6569 198.332C84.3068 198.079 83.8335 198.079 83.4834 198.332L78.8979 201.655C78.1136 202.223 77.0603 201.456 77.3604 200.535L79.1089 195.168C79.2434 194.756 79.0963 194.304 78.7448 194.049L74.17 190.734C73.385 190.165 73.7873 188.924 74.7567 188.924H80.4174C80.8504 188.924 81.2341 188.646 81.3682 188.234L83.1193 182.86Z" fill="#070707"/>
<path d="M118.216 182.86C118.516 181.94 119.818 181.94 120.118 182.86L121.869 188.234C122.003 188.646 122.387 188.924 122.82 188.924H128.481C129.45 188.924 129.852 190.165 129.067 190.734L124.492 194.049C124.141 194.304 123.994 194.756 124.128 195.168L125.877 200.535C126.177 201.456 125.124 202.223 124.339 201.655L119.754 198.332C119.404 198.079 118.931 198.079 118.58 198.332L113.995 201.655C113.211 202.223 112.157 201.456 112.457 200.535L114.206 195.168C114.34 194.756 114.193 194.304 113.842 194.049L109.267 190.734C108.482 190.165 108.884 188.924 109.854 188.924H115.514C115.947 188.924 116.331 188.646 116.465 188.234L118.216 182.86Z" fill="#070707"/>
<path d="M153.314 182.86C153.613 181.94 154.915 181.94 155.215 182.86L156.966 188.234C157.1 188.646 157.484 188.924 157.917 188.924H163.578C164.547 188.924 164.95 190.165 164.165 190.734L159.59 194.049C159.238 194.304 159.091 194.756 159.226 195.168L160.974 200.535C161.274 201.456 160.221 202.223 159.437 201.655L154.851 198.332C154.501 198.079 154.028 198.079 153.678 198.332L149.092 201.655C148.308 202.223 147.255 201.456 147.555 200.535L149.303 195.168C149.438 194.756 149.291 194.304 148.939 194.049L144.364 190.734C143.579 190.165 143.982 188.924 144.951 188.924H150.612C151.045 188.924 151.428 188.646 151.562 188.234L153.314 182.86Z" fill="#E5E5E5"/>
<defs>
<clipPath id="clip0_1:204">
<rect width="58.2524" height="88.9906" fill="white" transform="translate(57.4927 0.669922)"/>
</clipPath>
</defs>
</svg>
