<svg width="168" height="27" viewBox="0 0 168 27" fill="none" xmlns="http://www.w3.org/2000/svg">
<path d="M12.9251 3.85982C13.225 2.93955 14.5269 2.93955 14.8267 3.85982L16.5778 9.23422C16.7119 9.64585 17.0957 9.92443 17.5286 9.92443H23.1894C24.1588 9.92443 24.5611 11.1655 23.7761 11.7342L19.2012 15.0489C18.8498 15.3035 18.7027 15.7558 18.8371 16.1684L20.5857 21.5351C20.8857 22.4559 19.8325 23.2229 19.0482 22.6547L14.4626 19.3323C14.1126 19.0787 13.6392 19.0787 13.2892 19.3323L8.70366 22.6547C7.91941 23.2229 6.86612 22.4559 7.16614 21.5351L8.91471 16.1684C9.04917 15.7558 8.90209 15.3035 8.55063 15.0489L3.97575 11.7342C3.19075 11.1655 3.59308 9.92443 4.56247 9.92443H10.2232C10.6562 9.92443 11.0399 9.64585 11.174 9.23422L12.9251 3.85982Z" fill="#070707"/>
<path d="M48.0221 3.85982C48.322 2.93955 49.6239 2.93955 49.9237 3.85982L51.6748 9.23422C51.8089 9.64585 52.1927 9.92443 52.6256 9.92443H58.2864C59.2558 9.92443 59.6581 11.1655 58.8731 11.7342L54.2982 15.0489C53.9468 15.3035 53.7997 15.7558 53.9341 16.1684L55.6827 21.5351C55.9827 22.4559 54.9294 23.2229 54.1452 22.6547L49.5596 19.3323C49.2096 19.0787 48.7362 19.0787 48.3862 19.3323L43.8006 22.6547C43.0164 23.2229 41.9631 22.4559 42.2631 21.5351L44.0117 16.1684C44.1462 15.7558 43.9991 15.3035 43.6476 15.0489L39.0727 11.7342C38.2877 11.1655 38.6901 9.92443 39.6595 9.92443H45.3202C45.7531 9.92443 46.1369 9.64585 46.271 9.23422L48.0221 3.85982Z" fill="#070707"/>
<path d="M83.1193 3.85982C83.4192 2.93955 84.7211 2.93955 85.0209 3.85982L86.772 9.23422C86.9062 9.64585 87.2899 9.92443 87.7228 9.92443H93.3836C94.353 9.92443 94.7553 11.1655 93.9703 11.7342L89.3954 15.0489C89.044 15.3035 88.8969 15.7558 89.0314 16.1684L90.7799 21.5351C91.08 22.4559 90.0267 23.2229 89.2424 22.6547L84.6569 19.3323C84.3068 19.0787 83.8335 19.0787 83.4834 19.3323L78.8979 22.6547C78.1136 23.2229 77.0603 22.4559 77.3604 21.5351L79.1089 16.1684C79.2434 15.7558 79.0963 15.3035 78.7448 15.0489L74.17 11.7342C73.385 11.1655 73.7873 9.92443 74.7567 9.92443H80.4174C80.8504 9.92443 81.2341 9.64585 81.3682 9.23422L83.1193 3.85982Z" fill="#070707"/>
<path d="M118.216 3.85982C118.516 2.93955 119.818 2.93955 120.118 3.85982L121.869 9.23422C122.003 9.64585 122.387 9.92443 122.82 9.92443H128.481C129.45 9.92443 129.852 11.1655 129.067 11.7342L124.492 15.0489C124.141 15.3035 123.994 15.7558 124.128 16.1684L125.877 21.5351C126.177 22.4559 125.124 23.2229 124.339 22.6547L119.754 19.3323C119.404 19.0787 118.931 19.0787 118.58 19.3323L113.995 22.6547C113.211 23.2229 112.157 22.4559 112.457 21.5351L114.206 16.1684C114.34 15.7558 114.193 15.3035 113.842 15.0489L109.267 11.7342C108.482 11.1655 108.884 9.92443 109.854 9.92443H115.514C115.947 9.92443 116.331 9.64585 116.465 9.23422L118.216 3.85982Z" fill="#070707"/>
<path d="M153.314 3.85982C153.613 2.93955 154.915 2.93955 155.215 3.85982L156.966 9.23422C157.1 9.64585 157.484 9.92443 157.917 9.92443H163.578C164.547 9.92443 164.95 11.1655 164.165 11.7342L159.59 15.0489C159.238 15.3035 159.091 15.7558 159.226 16.1684L160.974 21.5351C161.274 22.4559 160.221 23.2229 159.437 22.6547L154.851 19.3323C154.501 19.0787 154.028 19.0787 153.678 19.3323L149.092 22.6547C148.308 23.2229 147.255 22.4559 147.555 21.5351L149.303 16.1684C149.438 15.7558 149.291 15.3035 148.939 15.0489L144.364 11.7342C143.579 11.1655 143.982 9.92443 144.951 9.92443H150.612C151.045 9.92443 151.428 9.64585 151.562 9.23422L153.314 3.85982Z" fill="#E5E5E5"/>
</svg>
