<svg width="167" height="207" viewBox="0 0 167 207" fill="none" xmlns="http://www.w3.org/2000/svg">
<path d="M67.9329 123.268L67.3449 121.504H63.4389L62.8509 123.268H60.7649L64.1949 113.468H66.5889L70.0329 123.268H67.9329ZM64.0549 119.698H66.7429L65.3989 115.694L64.0549 119.698ZM76.015 113.468H77.821V123.268H76.015V122.442C75.483 123.123 74.727 123.464 73.747 123.464C72.8044 123.464 71.997 123.109 71.325 122.4C70.6624 121.681 70.331 120.804 70.331 119.768C70.331 118.732 70.6624 117.859 71.325 117.15C71.997 116.431 72.8044 116.072 73.747 116.072C74.727 116.072 75.483 116.412 76.015 117.094V113.468ZM72.683 121.196C73.0564 121.56 73.523 121.742 74.083 121.742C74.643 121.742 75.105 121.56 75.469 121.196C75.833 120.822 76.015 120.346 76.015 119.768C76.015 119.189 75.833 118.718 75.469 118.354C75.105 117.98 74.643 117.794 74.083 117.794C73.523 117.794 73.0564 117.98 72.683 118.354C72.319 118.718 72.137 119.189 72.137 119.768C72.137 120.346 72.319 120.822 72.683 121.196ZM85.4367 122.4C84.718 123.109 83.8407 123.464 82.8047 123.464C81.7687 123.464 80.8914 123.109 80.1727 122.4C79.4634 121.681 79.1087 120.804 79.1087 119.768C79.1087 118.732 79.4634 117.859 80.1727 117.15C80.8914 116.431 81.7687 116.072 82.8047 116.072C83.8407 116.072 84.718 116.431 85.4367 117.15C86.1554 117.859 86.5147 118.732 86.5147 119.768C86.5147 120.804 86.1554 121.681 85.4367 122.4ZM81.4467 121.154C81.8107 121.518 82.2634 121.7 82.8047 121.7C83.346 121.7 83.7987 121.518 84.1627 121.154C84.5267 120.79 84.7087 120.328 84.7087 119.768C84.7087 119.208 84.5267 118.746 84.1627 118.382C83.7987 118.018 83.346 117.836 82.8047 117.836C82.2634 117.836 81.8107 118.018 81.4467 118.382C81.092 118.746 80.9147 119.208 80.9147 119.768C80.9147 120.328 81.092 120.79 81.4467 121.154ZM91.8592 116.072C92.8019 116.072 93.6045 116.431 94.2672 117.15C94.9392 117.859 95.2752 118.732 95.2752 119.768C95.2752 120.804 94.9392 121.681 94.2672 122.4C93.6045 123.109 92.8019 123.464 91.8592 123.464C90.8792 123.464 90.1232 123.123 89.5912 122.442V123.268H87.7852V113.468H89.5912V117.094C90.1232 116.412 90.8792 116.072 91.8592 116.072ZM90.1372 121.196C90.5012 121.56 90.9632 121.742 91.5232 121.742C92.0832 121.742 92.5452 121.56 92.9092 121.196C93.2825 120.822 93.4692 120.346 93.4692 119.768C93.4692 119.189 93.2825 118.718 92.9092 118.354C92.5452 117.98 92.0832 117.794 91.5232 117.794C90.9632 117.794 90.5012 117.98 90.1372 118.354C89.7732 118.718 89.5912 119.189 89.5912 119.768C89.5912 120.346 89.7732 120.822 90.1372 121.196ZM98.0749 120.51C98.3175 121.387 98.9755 121.826 100.049 121.826C100.74 121.826 101.262 121.592 101.617 121.126L103.073 121.966C102.382 122.964 101.365 123.464 100.021 123.464C98.8635 123.464 97.9349 123.114 97.2349 122.414C96.5349 121.714 96.1849 120.832 96.1849 119.768C96.1849 118.713 96.5302 117.836 97.2209 117.136C97.9115 116.426 98.7982 116.072 99.8809 116.072C100.908 116.072 101.752 116.426 102.415 117.136C103.087 117.845 103.423 118.722 103.423 119.768C103.423 120.001 103.4 120.248 103.353 120.51H98.0749ZM98.0469 119.11H101.617C101.514 118.634 101.3 118.279 100.973 118.046C100.656 117.812 100.292 117.696 99.8809 117.696C99.3955 117.696 98.9942 117.822 98.6769 118.074C98.3595 118.316 98.1495 118.662 98.0469 119.11ZM52.0256 140.268L51.4376 138.504H47.5316L46.9436 140.268H44.8576L48.2876 130.468H50.6816L54.1256 140.268H52.0256ZM48.1476 136.698H50.8356L49.4916 132.694L48.1476 136.698ZM58.5541 132.008C57.5648 131.933 57.0701 132.33 57.0701 133.198V133.268H58.5541V135.004H57.0701V140.268H55.2641V135.004H54.2561V133.268H55.2641V133.198C55.2641 132.208 55.5395 131.457 56.0901 130.944C56.6408 130.43 57.4621 130.206 58.5541 130.272V132.008ZM63.6046 135.004H62.0226V137.916C62.0226 138.158 62.0833 138.336 62.2046 138.448C62.326 138.56 62.5033 138.625 62.7366 138.644C62.97 138.653 63.2593 138.648 63.6046 138.63V140.268C62.3633 140.408 61.486 140.291 60.9726 139.918C60.4686 139.544 60.2166 138.877 60.2166 137.916V135.004H58.9986V133.268H60.2166V131.854L62.0226 131.308V133.268H63.6046V135.004ZM66.1852 137.51C66.4279 138.387 67.0859 138.826 68.1592 138.826C68.8499 138.826 69.3726 138.592 69.7272 138.126L71.1832 138.966C70.4926 139.964 69.4752 140.464 68.1312 140.464C66.9739 140.464 66.0452 140.114 65.3452 139.414C64.6452 138.714 64.2952 137.832 64.2952 136.768C64.2952 135.713 64.6406 134.836 65.3312 134.136C66.0219 133.426 66.9086 133.072 67.9912 133.072C69.0179 133.072 69.8626 133.426 70.5252 134.136C71.1972 134.845 71.5332 135.722 71.5332 136.768C71.5332 137.001 71.5099 137.248 71.4632 137.51H66.1852ZM66.1572 136.11H69.7272C69.6246 135.634 69.4099 135.279 69.0832 135.046C68.7659 134.812 68.4019 134.696 67.9912 134.696C67.5059 134.696 67.1046 134.822 66.7872 135.074C66.4699 135.316 66.2599 135.662 66.1572 136.11ZM74.6 134.472C74.768 134.024 75.0433 133.688 75.426 133.464C75.818 133.24 76.252 133.128 76.728 133.128V135.144C76.1773 135.078 75.6827 135.19 75.244 135.48C74.8147 135.769 74.6 136.25 74.6 136.922V140.268H72.794V133.268H74.6V134.472ZM83.3002 138.42H87.4302V140.268H81.3682V130.468H87.3602V132.316H83.3002V134.402H87.0102V136.222H83.3002V138.42ZM96.352 131.868C95.3627 131.793 94.868 132.19 94.868 133.058V133.268H96.352V135.004H94.868V140.268H93.062V135.004H90.99V140.268H89.184V135.004H88.176V133.268H89.184V133.198C89.184 132.208 89.4594 131.457 90.01 130.944C90.5607 130.43 91.382 130.206 92.474 130.272V132.008C91.4847 131.933 90.99 132.33 90.99 133.198V133.268H93.062V133.058C93.062 132.068 93.3374 131.317 93.888 130.804C94.448 130.29 95.2694 130.066 96.352 130.132V131.868ZM98.4508 137.51C98.6935 138.387 99.3515 138.826 100.425 138.826C101.116 138.826 101.638 138.592 101.993 138.126L103.449 138.966C102.758 139.964 101.741 140.464 100.397 140.464C99.2395 140.464 98.3108 140.114 97.6108 139.414C96.9108 138.714 96.5608 137.832 96.5608 136.768C96.5608 135.713 96.9062 134.836 97.5968 134.136C98.2875 133.426 99.1742 133.072 100.257 133.072C101.284 133.072 102.128 133.426 102.791 134.136C103.463 134.845 103.799 135.722 103.799 136.768C103.799 137.001 103.776 137.248 103.729 137.51H98.4508ZM98.4228 136.11H101.993C101.89 135.634 101.676 135.279 101.349 135.046C101.032 134.812 100.668 134.696 100.257 134.696C99.7715 134.696 99.3702 134.822 99.0528 135.074C98.7355 135.316 98.5255 135.662 98.4228 136.11ZM108.337 140.464C107.282 140.464 106.4 140.109 105.691 139.4C104.991 138.69 104.641 137.813 104.641 136.768C104.641 135.722 104.991 134.845 105.691 134.136C106.4 133.426 107.282 133.072 108.337 133.072C109.018 133.072 109.639 133.235 110.199 133.562C110.759 133.888 111.184 134.327 111.473 134.878L109.919 135.788C109.779 135.498 109.564 135.27 109.275 135.102C108.995 134.934 108.678 134.85 108.323 134.85C107.782 134.85 107.334 135.032 106.979 135.396C106.624 135.75 106.447 136.208 106.447 136.768C106.447 137.318 106.624 137.776 106.979 138.14C107.334 138.494 107.782 138.672 108.323 138.672C108.687 138.672 109.009 138.592 109.289 138.434C109.578 138.266 109.793 138.037 109.933 137.748L111.501 138.644C111.193 139.194 110.759 139.638 110.199 139.974C109.639 140.3 109.018 140.464 108.337 140.464ZM116.46 135.004H114.878V137.916C114.878 138.158 114.939 138.336 115.06 138.448C115.181 138.56 115.359 138.625 115.592 138.644C115.825 138.653 116.115 138.648 116.46 138.63V140.268C115.219 140.408 114.341 140.291 113.828 139.918C113.324 139.544 113.072 138.877 113.072 137.916V135.004H111.854V133.268H113.072V131.854L114.878 131.308V133.268H116.46V135.004ZM119.249 135.256C119.249 135.442 119.37 135.596 119.613 135.718C119.865 135.83 120.168 135.932 120.523 136.026C120.878 136.11 121.232 136.222 121.587 136.362C121.942 136.492 122.24 136.716 122.483 137.034C122.735 137.351 122.861 137.748 122.861 138.224C122.861 138.942 122.59 139.498 122.049 139.89C121.517 140.272 120.85 140.464 120.047 140.464C118.61 140.464 117.63 139.908 117.107 138.798L118.675 137.916C118.88 138.522 119.338 138.826 120.047 138.826C120.691 138.826 121.013 138.625 121.013 138.224C121.013 138.037 120.887 137.888 120.635 137.776C120.392 137.654 120.094 137.547 119.739 137.454C119.384 137.36 119.03 137.244 118.675 137.104C118.32 136.964 118.017 136.744 117.765 136.446C117.522 136.138 117.401 135.755 117.401 135.298C117.401 134.607 117.653 134.066 118.157 133.674C118.67 133.272 119.305 133.072 120.061 133.072C120.63 133.072 121.148 133.202 121.615 133.464C122.082 133.716 122.45 134.08 122.721 134.556L121.181 135.396C120.957 134.92 120.584 134.682 120.061 134.682C119.828 134.682 119.632 134.733 119.473 134.836C119.324 134.938 119.249 135.078 119.249 135.256Z" fill="#828282"/>
<path d="M43.0704 4.45367H124.831V85.4586H43.0704V4.45367Z" fill="url(#paint0_radial_1:193)"/>
<path d="M43.0704 4.45367H124.831V85.4586H43.0704V4.45367ZM39.3549 89.2423H128.564V0.669922H39.3549V89.2423ZM102.466 43.3644C104.36 43.3644 105.038 43.3644 105.217 43.2916C105.217 43.0188 105.288 42.8369 105.288 42.6549C105.288 40.6175 104.324 36.8338 100.465 36.8338C96.8927 36.8338 95.3743 40.0172 94.9992 43.3826H102.466V43.3644ZM94.9277 48.5489C94.9992 53.6606 97.375 57.0987 103.038 57.0987C105.235 57.0987 107.128 56.7894 109.093 55.9344C109.361 55.8253 109.54 55.8617 109.54 56.2073V60.937C109.54 61.319 109.433 61.5009 109.165 61.701C107.2 62.6833 104.735 63.1381 101.698 63.1381C91.891 63.1381 88.2111 55.7525 88.2111 47.5483C88.2111 38.6165 92.7484 31.3037 100.733 31.3037C108.843 31.3037 111.666 38.2345 111.666 43.8737C111.666 45.6929 111.558 47.1663 111.362 47.894C111.291 48.2032 111.183 48.3124 110.88 48.3851C110.129 48.4943 107.95 48.658 104.681 48.658H94.9456V48.5489H94.9277ZM74.9922 44.6923C73.9562 40.4902 71.4196 31.3401 70.4907 26.9015H70.4192C69.6332 31.3219 67.5968 38.8166 66.0784 44.6923H74.9922ZM64.56 50.8227L61.6304 62.1376C61.559 62.4468 61.4518 62.556 61.0767 62.556H55.5926C55.2175 62.556 55.1461 62.4468 55.2175 61.9921L65.7747 24.4093C65.9534 23.7362 66.0784 23.1905 66.1499 21.2986C66.1499 21.0257 66.2571 20.9166 66.4536 20.9166H74.2598C74.5278 20.9166 74.635 20.9894 74.7064 21.2986L86.5141 62.0648C86.5855 62.3741 86.5141 62.556 86.2104 62.556H80.0833C79.7796 62.556 79.601 62.4468 79.5295 62.174L76.4749 50.8227H64.56Z" fill="#D8A1FF"/>
<path d="M12.2142 183.86C12.514 182.94 13.816 182.94 14.1158 183.86L15.8669 189.234C16.001 189.646 16.3848 189.924 16.8177 189.924H22.4785C23.4478 189.924 23.8502 191.165 23.0652 191.734L18.4903 195.049C18.1388 195.304 17.9918 195.756 18.1262 196.168L19.8748 201.535C20.1748 202.456 19.1215 203.223 18.3373 202.655L13.7517 199.332C13.4017 199.079 12.9283 199.079 12.5783 199.332L7.99273 202.655C7.20847 203.223 6.15518 202.456 6.4552 201.535L8.20377 196.168C8.33823 195.756 8.19115 195.304 7.83969 195.049L3.26482 191.734C2.47981 191.165 2.88214 189.924 3.85153 189.924H9.51229C9.94522 189.924 10.329 189.646 10.4631 189.234L12.2142 183.86Z" fill="#070707"/>
<path d="M47.3115 183.86C47.6114 182.939 48.9133 182.939 49.2131 183.86L50.9642 189.234C51.0984 189.646 51.4821 189.924 51.915 189.924H57.5758C58.5452 189.924 58.9475 191.165 58.1625 191.734L53.5876 195.049C53.2362 195.303 53.0891 195.756 53.2236 196.168L54.9721 201.535C55.2722 202.456 54.2189 203.223 53.4346 202.654L48.8491 199.332C48.499 199.078 48.0257 199.078 47.6756 199.332L43.0901 202.654C42.3058 203.223 41.2525 202.456 41.5526 201.535L43.3011 196.168C43.4356 195.756 43.2885 195.303 42.937 195.049L38.3622 191.734C37.5772 191.165 37.9795 189.924 38.9489 189.924H44.6096C45.0426 189.924 45.4263 189.646 45.5604 189.234L47.3115 183.86Z" fill="#070707"/>
<path d="M82.4086 183.86C82.7085 182.939 84.0104 182.939 84.3103 183.86L86.0613 189.234C86.1955 189.646 86.5792 189.924 87.0122 189.924H92.6729C93.6423 189.924 94.0446 191.165 93.2596 191.734L88.6848 195.049C88.3333 195.303 88.1862 195.756 88.3207 196.168L90.0692 201.535C90.3693 202.456 89.316 203.223 88.5317 202.654L83.9462 199.332C83.5961 199.078 83.1228 199.078 82.7727 199.332L78.1872 202.654C77.4029 203.223 76.3496 202.456 76.6497 201.535L78.3982 196.168C78.5327 195.756 78.3856 195.303 78.0341 195.049L73.4593 191.734C72.6743 191.165 73.0766 189.924 74.046 189.924H79.7067C80.1397 189.924 80.5234 189.646 80.6576 189.234L82.4086 183.86Z" fill="#070707"/>
<path d="M117.506 183.86C117.806 182.939 119.108 182.939 119.407 183.86L121.159 189.234C121.293 189.646 121.676 189.924 122.109 189.924H127.77C128.739 189.924 129.142 191.165 128.357 191.734L123.782 195.049C123.43 195.303 123.283 195.756 123.418 196.168L125.166 201.535C125.466 202.456 124.413 203.223 123.629 202.654L119.043 199.332C118.693 199.078 118.22 199.078 117.87 199.332L113.284 202.654C112.5 203.223 111.447 202.456 111.747 201.535L113.495 196.168C113.63 195.756 113.483 195.303 113.131 195.049L108.556 191.734C107.771 191.165 108.174 189.924 109.143 189.924H114.804C115.237 189.924 115.621 189.646 115.755 189.234L117.506 183.86Z" fill="#070707"/>
<path d="M152.603 183.86C152.903 182.939 154.205 182.939 154.505 183.86L156.256 189.234C156.39 189.646 156.774 189.924 157.206 189.924H162.867C163.837 189.924 164.239 191.165 163.454 191.734L158.879 195.049C158.528 195.303 158.381 195.756 158.515 196.168L160.264 201.535C160.564 202.456 159.51 203.223 158.726 202.654L154.141 199.332C153.79 199.078 153.317 199.078 152.967 199.332L148.382 202.654C147.597 203.223 146.544 202.456 146.844 201.535L148.593 196.168C148.727 195.756 148.58 195.303 148.228 195.049L143.654 191.734C142.869 191.165 143.271 189.924 144.24 189.924H149.901C150.334 189.924 150.718 189.646 150.852 189.234L152.603 183.86Z" fill="#E5E5E5"/>
<defs>
<radialGradient id="paint0_radial_1:193" cx="0" cy="0" r="1" gradientUnits="userSpaceOnUse" gradientTransform="translate(70.0229 22.6149) scale(62.1407 61.2673)">
<stop stop-color="#442F55" stop-opacity="0.98"/>
<stop offset="1" stop-color="#12002C"/>
</radialGradient>
</defs>
</svg>
