<svg width="20" height="69" viewBox="0 0 20 69" fill="none" xmlns="http://www.w3.org/2000/svg">
<path d="M16.2616 61.7574L12.3736 64.0134V65.6934H16.2616V67.9014H5.0616V63.4214C5.0616 62.3867 5.42426 61.5067 6.1496 60.7814C6.87493 60.0561 7.7496 59.6934 8.7736 59.6934C9.46693 59.6934 10.1123 59.8907 10.7096 60.2854C11.2963 60.6801 11.7389 61.2027 12.0376 61.8534L16.2616 59.3734V61.7574ZM7.1256 65.6934H10.4376V63.4214C10.4376 63.0054 10.2776 62.6481 9.9576 62.3494C9.62693 62.0507 9.23226 61.9014 8.7736 61.9014C8.31493 61.9014 7.9256 62.0507 7.6056 62.3494C7.2856 62.6481 7.1256 63.0054 7.1256 63.4214V65.6934ZM16.4856 53.9754C16.4856 55.2234 16.1336 56.2474 15.4296 57.0474C14.7256 57.8474 13.7816 58.2474 12.5976 58.2474H5.0616V56.0554H12.4216C13.0083 56.0554 13.4723 55.8901 13.8136 55.5594C14.1549 55.2181 14.3256 54.6901 14.3256 53.9754C14.3256 53.2607 14.1549 52.7381 13.8136 52.4074C13.4723 52.0661 13.0083 51.8954 12.4216 51.8954H5.0616V49.6874H12.5976C13.7816 49.6874 14.7256 50.0874 15.4296 50.8874C16.1336 51.6874 16.4856 52.7167 16.4856 53.9754Z" fill="#828282"/>
<path d="M19.4616 43.6983H4.7416V41.6343H19.4616V43.6983ZM14.1496 33.3497V28.6297H16.2616V35.5577H5.0616L5.0616 28.7097H7.1736L7.1736 33.3497H9.5576L9.5576 29.1097H11.6376L11.6376 33.3497H14.1496ZM5.0616 20.5933L5.0616 18.3853H16.2616V20.0653L9.4136 24.8653H16.2616L16.2616 27.0733H5.0616V25.3933L11.8936 20.5933H5.0616ZM10.2456 5.31566H11.1096C12.7096 5.31566 14.0056 5.82766 14.9976 6.85166C15.9896 7.87566 16.4856 9.19832 16.4856 10.8197C16.4856 12.5477 15.9256 13.9823 14.8056 15.1237C13.6749 16.2543 12.2989 16.8197 10.6776 16.8197C9.0456 16.8197 7.66426 16.2597 6.5336 15.1397C5.40293 14.009 4.8376 12.6117 4.8376 10.9477C4.8376 9.90232 5.0776 8.94766 5.5576 8.08366C6.02693 7.21966 6.65626 6.54766 7.4456 6.06766L8.5336 7.95566C8.07493 8.22232 7.7016 8.62766 7.4136 9.17166C7.1256 9.70499 6.9816 10.3023 6.9816 10.9637C6.9816 12.0303 7.3336 12.9103 8.0376 13.6037C8.73093 14.2863 9.61093 14.6277 10.6776 14.6277C11.7336 14.6277 12.6083 14.281 13.3016 13.5877C13.9843 12.8837 14.3256 11.9557 14.3256 10.8037C14.3256 9.95032 14.1389 9.24632 13.7656 8.69166C13.3816 8.12632 12.8589 7.74232 12.1976 7.53966V10.9317H10.2456V5.31566Z" fill="black"/>
</svg>
