<svg width="210" height="70" viewBox="0 0 210 70" fill="none" xmlns="http://www.w3.org/2000/svg">
<rect width="210" height="70" rx="8" fill="white"/>
<path d="M80.8 42C80.6933 42 80.6 41.96 80.52 41.88C80.44 41.8 80.4 41.7067 80.4 41.6C80.4 41.4933 80.4067 41.42 80.42 41.38L85.38 28.44C85.4867 28.1467 85.7 28 86.02 28H87.38C87.7 28 87.9133 28.1467 88.02 28.44L92.96 41.38L93 41.6C93 41.7067 92.96 41.8 92.88 41.88C92.8 41.96 92.7067 42 92.6 42H91.58C91.4333 42 91.32 41.9667 91.24 41.9C91.16 41.82 91.1067 41.74 91.08 41.66L89.98 38.82H83.42L82.32 41.66C82.2933 41.74 82.2333 41.82 82.14 41.9C82.06 41.9667 81.9533 42 81.82 42H80.8ZM89.4 37.1L86.7 30L84 37.1H89.4ZM98.4784 42.2C97.5451 42.2 96.7584 42.0533 96.1184 41.76C95.4918 41.4533 95.0184 41.1067 94.6984 40.72C94.3918 40.3333 94.2384 40.0133 94.2384 39.76C94.2384 39.6267 94.2851 39.5267 94.3784 39.46C94.4851 39.38 94.5918 39.34 94.6984 39.34H95.5984C95.7318 39.34 95.8518 39.4067 95.9584 39.54C96.2784 39.9133 96.6251 40.2067 96.9984 40.42C97.3718 40.6333 97.8718 40.74 98.4984 40.74C99.1918 40.74 99.7518 40.6067 100.178 40.34C100.618 40.06 100.838 39.68 100.838 39.2C100.838 38.88 100.745 38.62 100.558 38.42C100.385 38.2067 100.078 38.0267 99.6384 37.88C99.2118 37.72 98.5718 37.5467 97.7184 37.36C96.5584 37.1067 95.7318 36.74 95.2384 36.26C94.7584 35.78 94.5184 35.16 94.5184 34.4C94.5184 33.8933 94.6651 33.4133 94.9584 32.96C95.2651 32.4933 95.7051 32.12 96.2784 31.84C96.8651 31.5467 97.5651 31.4 98.3784 31.4C99.2318 31.4 99.9584 31.54 100.558 31.82C101.158 32.1 101.605 32.4333 101.898 32.82C102.205 33.1933 102.358 33.5067 102.358 33.76C102.358 33.88 102.312 33.98 102.218 34.06C102.138 34.14 102.038 34.18 101.918 34.18H101.078C100.918 34.18 100.785 34.1133 100.678 33.98C100.465 33.7267 100.278 33.5333 100.118 33.4C99.9718 33.2533 99.7518 33.1267 99.4584 33.02C99.1784 32.9133 98.8184 32.86 98.3784 32.86C97.7384 32.86 97.2451 33 96.8984 33.28C96.5518 33.5467 96.3784 33.9 96.3784 34.34C96.3784 34.62 96.4518 34.86 96.5984 35.06C96.7451 35.2467 97.0251 35.42 97.4384 35.58C97.8651 35.74 98.4784 35.9067 99.2784 36.08C100.545 36.3467 101.438 36.7333 101.958 37.24C102.492 37.7333 102.758 38.3667 102.758 39.14C102.758 39.7133 102.592 40.2333 102.258 40.7C101.925 41.1667 101.432 41.5333 100.778 41.8C100.138 42.0667 99.3718 42.2 98.4784 42.2ZM105.374 29.66C105.24 29.66 105.127 29.62 105.034 29.54C104.954 29.4467 104.914 29.3333 104.914 29.2V28.12C104.914 27.9867 104.954 27.8733 105.034 27.78C105.127 27.6867 105.24 27.64 105.374 27.64H106.634C106.767 27.64 106.88 27.6867 106.974 27.78C107.067 27.8733 107.114 27.9867 107.114 28.12V29.2C107.114 29.3333 107.067 29.4467 106.974 29.54C106.88 29.62 106.767 29.66 106.634 29.66H105.374ZM105.534 42C105.4 42 105.287 41.96 105.194 41.88C105.114 41.7867 105.074 41.6733 105.074 41.54V32.06C105.074 31.9267 105.114 31.82 105.194 31.74C105.287 31.6467 105.4 31.6 105.534 31.6H106.494C106.627 31.6 106.734 31.6467 106.814 31.74C106.907 31.82 106.954 31.9267 106.954 32.06V41.54C106.954 41.6733 106.907 41.7867 106.814 41.88C106.734 41.96 106.627 42 106.494 42H105.534ZM112.818 42.2C112.164 42.2 111.558 42.0667 110.998 41.8C110.438 41.5333 109.991 41.1733 109.658 40.72C109.338 40.2533 109.178 39.74 109.178 39.18C109.178 38.3 109.538 37.58 110.258 37.02C110.991 36.4467 111.978 36.0733 113.218 35.9L116.198 35.48V34.9C116.198 33.54 115.418 32.86 113.858 32.86C113.271 32.86 112.791 32.9867 112.418 33.24C112.044 33.48 111.764 33.7667 111.578 34.1C111.538 34.22 111.484 34.3067 111.418 34.36C111.364 34.4133 111.284 34.44 111.178 34.44H110.318C110.198 34.44 110.091 34.4 109.998 34.32C109.918 34.2267 109.878 34.12 109.878 34C109.891 33.68 110.038 33.32 110.318 32.92C110.611 32.5067 111.058 32.1533 111.658 31.86C112.258 31.5533 112.998 31.4 113.878 31.4C115.371 31.4 116.444 31.7533 117.098 32.46C117.751 33.1533 118.078 34.02 118.078 35.06V41.54C118.078 41.6733 118.031 41.7867 117.938 41.88C117.858 41.96 117.751 42 117.618 42H116.698C116.564 42 116.451 41.96 116.358 41.88C116.278 41.7867 116.238 41.6733 116.238 41.54V40.68C115.944 41.1067 115.518 41.4667 114.958 41.76C114.398 42.0533 113.684 42.2 112.818 42.2ZM113.238 40.7C114.104 40.7 114.811 40.42 115.358 39.86C115.918 39.2867 116.198 38.4667 116.198 37.4V36.84L113.878 37.18C112.931 37.3133 112.218 37.54 111.738 37.86C111.258 38.1667 111.018 38.56 111.018 39.04C111.018 39.5733 111.238 39.9867 111.678 40.28C112.118 40.56 112.638 40.7 113.238 40.7ZM121.413 42C121.279 42 121.166 41.96 121.073 41.88C120.993 41.7867 120.953 41.6733 120.953 41.54V32.06C120.953 31.9267 120.993 31.82 121.073 31.74C121.166 31.6467 121.279 31.6 121.413 31.6H122.353C122.486 31.6 122.593 31.6467 122.673 31.74C122.766 31.82 122.813 31.9267 122.813 32.06V32.94C123.199 32.4467 123.653 32.0667 124.173 31.8C124.706 31.5333 125.366 31.4 126.153 31.4C127.433 31.4 128.426 31.8133 129.133 32.64C129.853 33.4533 130.213 34.54 130.213 35.9V41.54C130.213 41.6733 130.166 41.7867 130.073 41.88C129.993 41.96 129.886 42 129.753 42H128.753C128.619 42 128.506 41.96 128.413 41.88C128.333 41.7867 128.293 41.6733 128.293 41.54V36C128.293 35.0533 128.059 34.32 127.593 33.8C127.139 33.28 126.479 33.02 125.613 33.02C124.773 33.02 124.106 33.2867 123.613 33.82C123.119 34.34 122.873 35.0667 122.873 36V41.54C122.873 41.6733 122.826 41.7867 122.733 41.88C122.653 41.96 122.546 42 122.413 42H121.413ZM138.704 42C138.571 42 138.457 41.96 138.364 41.88C138.284 41.7867 138.244 41.6733 138.244 41.54V28.48C138.244 28.3333 138.284 28.22 138.364 28.14C138.457 28.0467 138.571 28 138.704 28H146.864C147.011 28 147.124 28.0467 147.204 28.14C147.297 28.22 147.344 28.3333 147.344 28.48V29.28C147.344 29.4133 147.297 29.5267 147.204 29.62C147.124 29.7 147.011 29.74 146.864 29.74H140.184V34.4H146.464C146.611 34.4 146.724 34.4467 146.804 34.54C146.897 34.62 146.944 34.7333 146.944 34.88V35.68C146.944 35.8133 146.897 35.9267 146.804 36.02C146.711 36.1 146.597 36.14 146.464 36.14H140.184V41.54C140.184 41.6733 140.137 41.7867 140.044 41.88C139.951 41.96 139.837 42 139.704 42H138.704ZM153.709 42.2C152.242 42.2 151.102 41.7867 150.289 40.96C149.489 40.1333 149.062 39.0333 149.009 37.66L148.989 36.8L149.009 35.94C149.062 34.58 149.495 33.4867 150.309 32.66C151.122 31.82 152.255 31.4 153.709 31.4C155.162 31.4 156.295 31.82 157.109 32.66C157.922 33.4867 158.355 34.58 158.409 35.94C158.422 36.0867 158.429 36.3733 158.429 36.8C158.429 37.2267 158.422 37.5133 158.409 37.66C158.355 39.0333 157.922 40.1333 157.109 40.96C156.309 41.7867 155.175 42.2 153.709 42.2ZM153.709 40.66C154.549 40.66 155.209 40.3933 155.689 39.86C156.182 39.3267 156.449 38.56 156.489 37.56C156.502 37.4267 156.509 37.1733 156.509 36.8C156.509 36.4267 156.502 36.1733 156.489 36.04C156.449 35.04 156.182 34.2733 155.689 33.74C155.209 33.2067 154.549 32.94 153.709 32.94C152.869 32.94 152.202 33.2067 151.709 33.74C151.215 34.2733 150.955 35.04 150.929 36.04L150.909 36.8L150.929 37.56C150.955 38.56 151.215 39.3267 151.709 39.86C152.202 40.3933 152.869 40.66 153.709 40.66ZM165.193 42.2C163.726 42.2 162.586 41.7867 161.773 40.96C160.973 40.1333 160.546 39.0333 160.493 37.66L160.473 36.8L160.493 35.94C160.546 34.58 160.98 33.4867 161.793 32.66C162.606 31.82 163.74 31.4 165.193 31.4C166.646 31.4 167.78 31.82 168.593 32.66C169.406 33.4867 169.84 34.58 169.893 35.94C169.906 36.0867 169.913 36.3733 169.913 36.8C169.913 37.2267 169.906 37.5133 169.893 37.66C169.84 39.0333 169.406 40.1333 168.593 40.96C167.793 41.7867 166.66 42.2 165.193 42.2ZM165.193 40.66C166.033 40.66 166.693 40.3933 167.173 39.86C167.666 39.3267 167.933 38.56 167.973 37.56C167.986 37.4267 167.993 37.1733 167.993 36.8C167.993 36.4267 167.986 36.1733 167.973 36.04C167.933 35.04 167.666 34.2733 167.173 33.74C166.693 33.2067 166.033 32.94 165.193 32.94C164.353 32.94 163.686 33.2067 163.193 33.74C162.7 34.2733 162.44 35.04 162.413 36.04L162.393 36.8L162.413 37.56C162.44 38.56 162.7 39.3267 163.193 39.86C163.686 40.3933 164.353 40.66 165.193 40.66ZM176.217 42.2C174.831 42.2 173.784 41.7467 173.078 40.84C172.371 39.9333 171.998 38.7867 171.958 37.4L171.938 36.8L171.958 36.2C171.998 34.8267 172.371 33.6867 173.078 32.78C173.784 31.86 174.831 31.4 176.217 31.4C177.591 31.4 178.671 31.8867 179.458 32.86V28.26C179.458 28.1267 179.498 28.02 179.578 27.94C179.671 27.8467 179.784 27.8 179.918 27.8H180.878C181.011 27.8 181.118 27.8467 181.198 27.94C181.291 28.02 181.338 28.1267 181.338 28.26V41.54C181.338 41.6733 181.291 41.7867 181.198 41.88C181.118 41.96 181.011 42 180.878 42H179.978C179.844 42 179.731 41.96 179.638 41.88C179.558 41.7867 179.518 41.6733 179.518 41.54V40.7C178.744 41.7 177.644 42.2 176.217 42.2ZM176.638 40.58C177.558 40.58 178.244 40.28 178.698 39.68C179.164 39.0667 179.418 38.34 179.458 37.5C179.471 37.3533 179.478 37.1 179.478 36.74C179.478 36.3667 179.471 36.1067 179.458 35.96C179.431 35.1733 179.178 34.4867 178.698 33.9C178.218 33.3133 177.531 33.02 176.638 33.02C175.691 33.02 174.998 33.3133 174.558 33.9C174.131 34.4867 173.898 35.26 173.858 36.22L173.838 36.8C173.838 39.32 174.771 40.58 176.638 40.58Z" fill="#363853"/>
<g clip-path="url(#clip0_0:194)">
<path d="M42.1315 26.5667H44.2563C44.8077 26.5667 45.2562 27.0152 45.2562 27.5666V29.0315C45.2562 29.3875 45.5448 29.676 45.9007 29.676C46.2567 29.676 46.5453 29.3875 46.5453 29.0315V27.5666C46.5453 26.3044 45.5184 25.2777 44.2563 25.2777H42.1315C41.5894 25.2777 41.1484 24.8366 41.1484 24.2945C41.1484 23.7524 41.5894 23.3115 42.1315 23.3115H46.843C48.0959 23.3115 49.1151 22.2922 49.1151 21.0393C49.1151 19.7864 48.0958 18.7672 46.843 18.7672H43.0738C42.7179 18.7672 42.4293 19.0558 42.4293 19.4117C42.4293 19.7677 42.7179 20.0563 43.0738 20.0563H46.843C47.3851 20.0563 47.8261 20.4973 47.8261 21.0393C47.8261 21.5814 47.385 22.0224 46.843 22.0224H42.1315C40.8786 22.0224 39.8593 23.0417 39.8593 24.2945C39.8593 25.5474 40.8786 26.5667 42.1315 26.5667Z" fill="#363853"/>
<path d="M34.3886 30.8924H36.4971C37.0415 30.8924 37.4844 31.3354 37.4844 31.8798V33.3335C37.4844 33.6895 37.773 33.978 38.1289 33.978C38.4849 33.978 38.7734 33.6895 38.7734 33.3335V31.8798C38.7734 30.6246 37.7522 29.6034 36.4971 29.6034H34.3886C33.8533 29.6034 33.418 29.1679 33.418 28.6328C33.418 28.0977 33.8534 27.6622 34.3886 27.6622H36.8539C37.2098 27.6622 37.4984 27.3737 37.4984 27.0177C37.4984 26.6617 37.2098 26.3732 36.8539 26.3732H34.3886C33.1426 26.3732 32.1289 27.3868 32.1289 28.6328C32.1289 29.8788 33.1426 30.8924 34.3886 30.8924Z" fill="#363853"/>
<path d="M52.6523 39.8125C53.0083 39.8125 53.2969 39.5239 53.2969 39.168C53.2969 38.812 53.0083 38.5234 52.6523 38.5234C52.2964 38.5234 52.0078 38.812 52.0078 39.168C52.0078 39.5239 52.2964 39.8125 52.6523 39.8125Z" fill="#363853"/>
<path d="M55.832 41.2734C56.188 41.2734 56.4766 40.9849 56.4766 40.6289C56.4766 40.2729 56.188 39.9844 55.832 39.9844C55.4761 39.9844 55.1875 40.2729 55.1875 40.6289C55.1875 40.9849 55.4761 41.2734 55.832 41.2734Z" fill="#363853"/>
<path d="M57.7227 43.5078C58.0786 43.5078 58.3672 43.2192 58.3672 42.8633C58.3672 42.5073 58.0786 42.2188 57.7227 42.2188C57.3667 42.2188 57.0781 42.5073 57.0781 42.8633C57.0781 43.2192 57.3667 43.5078 57.7227 43.5078Z" fill="#363853"/>
<path d="M55.0586 38.2656C55.4146 38.2656 55.7031 37.9771 55.7031 37.6211C55.7031 37.2651 55.4146 36.9766 55.0586 36.9766C54.7026 36.9766 54.4141 37.2651 54.4141 37.6211C54.4141 37.9771 54.7026 38.2656 55.0586 38.2656Z" fill="#363853"/>
<path d="M52.9102 43.9375C53.2661 43.9375 53.5547 43.6489 53.5547 43.293C53.5547 42.937 53.2661 42.6484 52.9102 42.6484C52.5542 42.6484 52.2656 42.937 52.2656 43.293C52.2656 43.6489 52.5542 43.9375 52.9102 43.9375Z" fill="#363853"/>
<path d="M69.9114 35.8109H68.083L68.9867 33.9433C70.1331 33.715 71 32.7014 71 31.4889C71 30.2453 70.0882 29.2111 68.8981 29.0186C67.5827 26.6495 65.0131 24.8701 61.8968 24.1599V24.1107C61.8968 23.7548 61.6083 23.4662 61.2523 23.4662C60.9573 23.4662 60.7091 23.6646 60.6326 23.9351C60.2401 23.8845 59.8407 23.8517 59.4363 23.8349C59.333 23.6172 59.1116 23.4662 58.8545 23.4662C58.5973 23.4662 58.376 23.6172 58.2726 23.8349C57.8681 23.8517 57.4687 23.8845 57.0762 23.9352C56.9998 23.6647 56.7516 23.4662 56.4565 23.4662C56.1005 23.4662 55.812 23.7548 55.812 24.1107V24.1599C52.6958 24.8701 50.1261 26.6496 48.8108 29.0186C47.6207 29.2111 46.709 30.2453 46.709 31.4889C46.709 31.5615 46.7123 31.6333 46.7184 31.7043C43.7427 31.981 41.0692 33.2242 39.0633 35.0896H35.0136C34.7376 35.0896 34.4904 35.2134 34.3232 35.408H32.4304C32.1203 34.6246 31.3507 34.071 30.4734 34.071C29.3134 34.071 28.3698 35.0146 28.3698 36.1746C28.3698 36.2737 28.3776 36.3717 28.3912 36.4683C27.5809 36.7608 27 37.5375 27 38.4474C27 38.8514 27.1147 39.2398 27.3254 39.5722C27.1147 39.9047 27 40.293 27 40.697C27 41.857 27.9437 42.8007 29.1037 42.8007C29.9809 42.8007 30.7506 42.2471 31.0606 41.4636H32.7654C32.8436 41.7509 33.0592 41.988 33.3509 42.087L35.3718 42.7733C35.3597 42.9815 35.3532 43.1911 35.3532 43.4021C35.3532 43.6009 35.3589 43.7988 35.3695 43.9961C35.0535 44.0723 34.7585 44.2031 34.4961 44.3792C34.064 44.0894 33.5449 43.9197 32.9867 43.9197C31.4879 43.9197 30.2686 45.139 30.2686 46.6378C30.2686 46.6607 30.2704 46.6833 30.271 46.7061H29.5169C29.0913 46.7061 28.7141 46.9452 28.5324 47.3299C28.3508 47.7147 28.4059 48.1578 28.6763 48.4864L30.6098 50.8359C30.8174 51.088 31.1237 51.2327 31.4504 51.2327H58.7103C59.0663 51.2327 59.3548 50.9441 59.3548 50.5882C59.3548 50.2322 59.0663 49.9436 58.7103 49.9436H31.545L29.9415 47.9952H69.4853L67.8818 49.9436H61.7181C61.362 49.9436 61.0735 50.2322 61.0735 50.5882C61.0735 50.9441 61.362 51.2327 61.7181 51.2327H67.9764C68.3031 51.2327 68.6095 51.088 68.8169 50.8358L70.7504 48.4865C71.0207 48.1578 71.0759 47.7147 70.8942 47.3299C70.7126 46.9451 70.3354 46.7061 69.9099 46.7061H69.2716C69.905 45.61 70.143 44.311 69.9119 43.0346C69.8639 42.7702 69.657 42.5631 69.3925 42.5153C67.6466 42.1992 65.857 42.758 64.6048 44.0101C64.5283 44.0865 64.4554 44.1658 64.3842 44.2462C64.0148 44.0462 63.594 43.9301 63.1474 43.9214V42.695H63.835C64.925 42.695 65.8117 41.8083 65.8117 40.7183V39.8531H69.9114C70.5116 39.8531 71 39.3647 71 38.7645V36.8995C71 36.2992 70.5116 35.8109 69.9114 35.8109ZM33.2905 46.7062H31.56C31.5589 46.6835 31.5577 46.6608 31.5577 46.6379C31.5577 45.8499 32.1987 45.2089 32.9867 45.2089C33.2108 45.2089 33.4225 45.2614 33.6113 45.354C33.4054 45.7365 33.2881 46.1737 33.2881 46.6379C33.2882 46.6608 33.2899 46.6833 33.2905 46.7062ZM65.5163 44.9216C66.3595 44.0786 67.5223 43.6483 68.7005 43.7267C68.7727 44.812 68.412 45.8847 67.6953 46.7062H66.6325L67.5131 45.8256C67.7648 45.5739 67.7648 45.1658 67.5131 44.9141C67.2613 44.6624 66.8533 44.6624 66.6015 44.9141L65.6882 45.8275C65.6075 45.5698 65.4893 45.3286 65.3402 45.1101C65.3969 45.0456 65.4553 44.9826 65.5163 44.9216ZM52.5032 26.9422C53.4787 26.2886 54.6054 25.7984 55.812 25.4901V26.1534C55.812 26.5093 56.1005 26.7979 56.4565 26.7979C56.8126 26.7979 57.1011 26.5093 57.1011 26.1534V25.2345C57.4665 25.1825 57.8368 25.1482 58.2099 25.129V26.1534C58.2099 26.5093 58.4984 26.7979 58.8545 26.7979C59.2105 26.7979 59.499 26.5093 59.499 26.1534V25.129C59.8721 25.1482 60.2424 25.1826 60.6077 25.2345V26.1534C60.6077 26.5093 60.8962 26.7979 61.2523 26.7979C61.6083 26.7979 61.8968 26.5093 61.8968 26.1534V25.4901C63.1035 25.7984 64.2302 26.2886 65.2057 26.9423C66.1561 27.579 66.9304 28.3479 67.4945 29.1982C67.2768 29.294 67.0729 29.42 66.89 29.5732C66.4452 29.2005 65.8773 28.9861 65.2829 28.9861C64.6885 28.9861 64.1205 29.2005 63.6758 29.5732C63.231 29.2005 62.663 28.9861 62.0687 28.9861C61.4743 28.9861 60.9063 29.2005 60.4616 29.5732C60.0168 29.2005 59.4488 28.9861 58.8545 28.9861C58.26 28.9861 57.6921 29.2005 57.2473 29.5732C56.8025 29.2005 56.2346 28.9861 55.6402 28.9861C55.0458 28.9861 54.4778 29.2005 54.0331 29.5732C53.5884 29.2005 53.0204 28.9861 52.426 28.9861C51.8316 28.9861 51.2637 29.2005 50.8189 29.5732C50.6361 29.42 50.4321 29.294 50.2144 29.1982C50.7785 28.3478 51.5528 27.5789 52.5032 26.9422ZM49.2117 30.2751C49.642 30.2751 50.0441 30.5077 50.2612 30.8822C50.3765 31.0809 50.5889 31.2034 50.8188 31.2034C51.0486 31.2034 51.261 31.081 51.3763 30.8823C51.5935 30.5077 51.9957 30.2751 52.4259 30.2751C52.8562 30.2751 53.2584 30.5077 53.4755 30.8822C53.5908 31.0809 53.8031 31.2034 54.033 31.2034C54.2629 31.2034 54.4752 31.081 54.5906 30.8822C54.8077 30.5077 55.2098 30.2751 55.6401 30.2751C56.0703 30.2751 56.4725 30.5077 56.6898 30.8823C56.8051 31.081 57.0175 31.2034 57.2472 31.2034C57.4771 31.2034 57.6895 31.081 57.8048 30.8822C58.0219 30.5077 58.4241 30.2751 58.8544 30.2751C59.2846 30.2751 59.6868 30.5077 59.904 30.8823C60.0192 31.081 60.2317 31.2034 60.4615 31.2034C60.6914 31.2034 60.9037 31.081 61.019 30.8822C61.2361 30.5077 61.6383 30.2751 62.0686 30.2751C62.4988 30.2751 62.901 30.5077 63.1182 30.8823C63.2336 31.081 63.4459 31.2034 63.6757 31.2034C63.9056 31.2034 64.118 31.081 64.2333 30.8822C64.4504 30.5077 64.8525 30.2751 65.2828 30.2751C65.713 30.2751 66.1152 30.5077 66.3325 30.8823C66.4477 31.081 66.6602 31.2034 66.89 31.2034C67.1198 31.2034 67.3322 31.081 67.4475 30.8822C67.6646 30.5077 68.0668 30.2751 68.4971 30.2751C69.1663 30.2751 69.7108 30.8195 69.7108 31.4888C69.7108 32.1581 69.1663 32.7025 68.4971 32.7025C68.0668 32.7025 67.6646 32.4699 67.4475 32.0954C67.3322 31.8967 67.1198 31.7742 66.89 31.7742C66.6602 31.7742 66.4477 31.8966 66.3325 32.0953C66.1152 32.4699 65.713 32.7025 65.2828 32.7025C64.8525 32.7025 64.4504 32.4699 64.2333 32.0954C64.118 31.8967 63.9056 31.7742 63.6757 31.7742C63.4459 31.7742 63.2335 31.8966 63.1182 32.0953C62.901 32.4699 62.4988 32.7025 62.0686 32.7025C61.6383 32.7025 61.2361 32.4699 61.019 32.0954C60.9037 31.8967 60.6914 31.7742 60.4615 31.7742C60.2317 31.7742 60.0192 31.8966 59.904 32.0953C59.6868 32.4699 59.2846 32.7025 58.8544 32.7025C58.4241 32.7025 58.0219 32.4699 57.8048 32.0954C57.6895 31.8967 57.4771 31.7742 57.2472 31.7742C57.0175 31.7742 56.805 31.8966 56.6898 32.0953C56.4725 32.4699 56.0703 32.7025 55.6401 32.7025C55.2098 32.7025 54.8077 32.4699 54.5906 32.0954C54.4752 31.8967 54.2629 31.7742 54.033 31.7742C53.8031 31.7742 53.5908 31.8966 53.4755 32.0954C53.3486 32.3142 53.1583 32.4841 52.9363 32.5879C51.4222 31.9847 49.7569 31.6492 48.0094 31.6458C48.0026 31.5943 47.998 31.5422 47.998 31.4888C47.998 30.8195 48.5424 30.2751 49.2117 30.2751ZM35.3916 36.3786H37.8635C37.6095 36.6949 37.3712 37.0227 37.1518 37.3624H35.3916V36.3786ZM32.7328 40.1746H30.5567C30.2215 40.1746 29.9422 40.4316 29.9144 40.7657C29.8797 41.184 29.5236 41.5116 29.1037 41.5116C28.6546 41.5116 28.2891 41.1462 28.2891 40.697C28.2891 40.4535 28.397 40.2244 28.5851 40.0688C28.7331 39.9463 28.8188 39.7643 28.8188 39.5722C28.8188 39.38 28.7331 39.198 28.5851 39.0755C28.397 38.9199 28.2891 38.691 28.2891 38.4473C28.2891 37.9981 28.6546 37.6327 29.1037 37.6327C29.5236 37.6327 29.8797 37.9603 29.9144 38.3786C29.9422 38.7127 30.2215 38.9697 30.5567 38.9697H32.7329V40.1746H32.7328ZM32.9533 37.6808H31.0606C30.8236 37.082 30.3178 36.6184 29.7009 36.4327C29.6734 36.3505 29.6587 36.2635 29.6587 36.1745C29.6587 35.7253 30.0241 35.3599 30.4733 35.3599C30.8931 35.3599 31.2493 35.6876 31.2841 36.1058C31.3118 36.4399 31.5911 36.697 31.9264 36.697H34.1026V37.3624H33.6438C33.3678 37.3624 33.1206 37.4863 32.9533 37.6808ZM37.433 46.7062H34.5796C34.5785 46.6835 34.5773 46.6608 34.5773 46.6379C34.5773 45.8499 35.2183 45.2089 36.0063 45.2089C36.7942 45.2089 37.4352 45.8499 37.4352 46.6379C37.4353 46.6608 37.434 46.6835 37.433 46.7062ZM57.3116 46.7062H55.0679C55.0668 46.6835 55.0656 46.6608 55.0656 46.6379C55.0656 45.8499 55.7066 45.2089 56.4946 45.2089C56.8885 45.2089 57.2459 45.3692 57.5046 45.6279C57.3791 45.9404 57.3093 46.281 57.3093 46.6379C57.3092 46.6608 57.311 46.6833 57.3116 46.7062ZM56.4946 43.9197C54.9959 43.9197 53.7765 45.139 53.7765 46.6378C53.7765 46.6607 53.7782 46.6833 53.7788 46.7061H38.722C38.7226 46.6832 38.7244 46.6607 38.7244 46.6378C38.7244 45.3649 37.8446 44.294 36.6614 44C36.6491 43.8017 36.6423 43.6024 36.6423 43.4021C36.6423 43.3364 36.6432 43.2709 36.6445 43.2054L43.2366 45.4439C43.6807 45.5948 44.1349 45.6691 44.5847 45.6691C45.4345 45.6691 46.2687 45.4037 46.9891 44.8877C48.0906 44.0983 48.7223 42.8685 48.7223 41.5133C48.7223 41.0288 48.6392 40.5535 48.4753 40.1005C48.3541 39.7658 47.9846 39.5927 47.6498 39.7139C47.3151 39.835 47.142 40.2046 47.2632 40.5393C47.3761 40.8512 47.4334 41.1789 47.4334 41.5132C47.4334 42.4475 46.9978 43.2955 46.2383 43.8396C45.479 44.3838 44.5359 44.5235 43.6512 44.2232L34.022 40.9534V38.6514H44.5715C44.8948 38.6514 45.2133 38.7056 45.5182 38.8125C45.8543 38.9304 46.222 38.7534 46.3397 38.4173C46.4575 38.0813 46.2805 37.7137 45.9446 37.5959C45.5023 37.4409 45.0403 37.3623 44.5715 37.3623H38.7273C40.7835 34.6855 44.1654 32.9344 47.9831 32.9344C54.2364 32.9344 59.3238 37.6302 59.3238 43.4021C59.3238 43.6083 59.3166 43.8135 59.3036 44.0178C58.9142 44.1257 58.5596 44.3183 58.2609 44.5745C57.7855 44.1668 57.1685 43.9197 56.4946 43.9197ZM61.454 46.7062H58.6006C58.5995 46.6835 58.5983 46.6608 58.5983 46.6379C58.5983 45.8499 59.2393 45.2089 60.0272 45.2089C60.8152 45.2089 61.4563 45.8499 61.4563 46.6379C61.4563 46.6608 61.4551 46.6835 61.454 46.7062ZM61.8583 44.2197C61.7555 44.2725 61.6558 44.3304 61.5611 44.3954C61.2745 44.1988 60.9482 44.0568 60.5974 43.9815C60.6073 43.7892 60.6128 43.5961 60.6128 43.4022C60.6128 43.1646 60.6029 42.9292 60.5878 42.695H61.8583V44.2197ZM64.5226 46.6378C64.5226 46.6607 64.5214 46.6834 64.5203 46.7061H62.743C62.7436 46.6832 62.7454 46.6607 62.7454 46.6378C62.7454 46.181 62.6316 45.7505 62.4317 45.3723C62.6296 45.2679 62.8547 45.2088 63.0937 45.2088C63.8816 45.2088 64.5226 45.8498 64.5226 46.6378ZM64.5226 40.7184C64.5226 41.0976 64.2142 41.406 63.835 41.406H60.4281C60.33 40.8757 60.1959 40.3568 60.0241 39.8531H64.5226V40.7184ZM69.7109 38.564H59.4932C59.2456 38.0557 58.9601 37.5668 58.6404 37.0999H61.375C61.731 37.0999 62.0195 36.8113 62.0195 36.4554C62.0195 36.0994 61.731 35.8109 61.375 35.8109H57.6187C57.0022 35.1339 56.3059 34.5221 55.5421 33.9893C55.5747 33.9906 55.6074 33.9916 55.6401 33.9916C56.2345 33.9916 56.8024 33.7771 57.2472 33.4044C57.692 33.7771 58.26 33.9916 58.8544 33.9916C59.4487 33.9916 60.0167 33.7771 60.4615 33.4044C60.9062 33.7771 61.4743 33.9916 62.0686 33.9916C62.6629 33.9916 63.2309 33.7771 63.6757 33.4044C64.1204 33.7771 64.6885 33.9916 65.2828 33.9916C65.8772 33.9916 66.4451 33.7771 66.89 33.4044C67.105 33.5846 67.3489 33.7274 67.6106 33.8272L66.6508 35.8109H64.3828C64.0268 35.8109 63.7383 36.0994 63.7383 36.4554C63.7383 36.8113 64.0268 37.0999 64.3828 37.0999H69.7109V38.564Z" fill="#363853"/>
</g>
<defs>
<clipPath id="clip0_0:194">
<rect width="44" height="44" fill="white" transform="translate(27 13)"/>
</clipPath>
</defs>
</svg>
