<svg width="234" height="94" viewBox="0 0 234 94" fill="none" xmlns="http://www.w3.org/2000/svg">
<g filter="url(#filter0_d_0:157)">
<rect x="12" y="8" width="210" height="70" rx="8" fill="#FF7A50"/>
</g>
<path d="M113.2 50C113.067 50 112.953 49.96 112.86 49.88C112.78 49.7867 112.74 49.6733 112.74 49.54V36.48C112.74 36.3333 112.78 36.22 112.86 36.14C112.953 36.0467 113.067 36 113.2 36H118.68C120.107 36 121.18 36.34 121.9 37.02C122.62 37.7 122.98 38.5933 122.98 39.7C122.98 40.4467 122.807 41.0667 122.46 41.56C122.127 42.0533 121.727 42.4133 121.26 42.64C121.82 42.92 122.293 43.3533 122.68 43.94C123.067 44.5267 123.26 45.2 123.26 45.96C123.26 46.7067 123.087 47.3867 122.74 48C122.407 48.6133 121.907 49.1 121.24 49.46C120.573 49.82 119.773 50 118.84 50H113.2ZM118.38 41.92C119.22 41.92 119.86 41.7267 120.3 41.34C120.753 40.9533 120.98 40.4133 120.98 39.72C120.98 39.04 120.76 38.52 120.32 38.16C119.88 37.8 119.233 37.62 118.38 37.62H114.7V41.92H118.38ZM118.58 48.38C119.42 48.38 120.073 48.1533 120.54 47.7C121.02 47.2467 121.26 46.6667 121.26 45.96C121.26 45.2267 121.02 44.64 120.54 44.2C120.073 43.7467 119.42 43.52 118.58 43.52H114.7V48.38H118.58ZM129.719 50.2C128.453 50.2 127.473 49.7933 126.779 48.98C126.086 48.1533 125.739 47.06 125.739 45.7V40.06C125.739 39.9267 125.779 39.82 125.859 39.74C125.953 39.6467 126.066 39.6 126.199 39.6H127.199C127.333 39.6 127.439 39.6467 127.519 39.74C127.613 39.82 127.659 39.9267 127.659 40.06V45.6C127.659 47.5867 128.526 48.58 130.259 48.58C131.099 48.58 131.766 48.32 132.259 47.8C132.753 47.2667 132.999 46.5333 132.999 45.6V40.06C132.999 39.9267 133.039 39.82 133.119 39.74C133.213 39.6467 133.326 39.6 133.459 39.6H134.459C134.593 39.6 134.699 39.6467 134.779 39.74C134.859 39.82 134.899 39.9267 134.899 40.06V49.54C134.899 49.6733 134.859 49.7867 134.779 49.88C134.699 49.96 134.593 50 134.459 50H133.519C133.386 50 133.273 49.96 133.179 49.88C133.099 49.7867 133.059 49.6733 133.059 49.54V48.66C132.686 49.1667 132.233 49.5533 131.699 49.82C131.166 50.0733 130.506 50.2 129.719 50.2ZM138.331 50C138.197 50 138.084 49.96 137.991 49.88C137.911 49.7867 137.871 49.6733 137.871 49.54V40.08C137.871 39.9467 137.911 39.8333 137.991 39.74C138.084 39.6467 138.197 39.6 138.331 39.6H139.251C139.384 39.6 139.497 39.6467 139.591 39.74C139.684 39.8333 139.731 39.9467 139.731 40.08V40.96C140.277 40.0533 141.211 39.6 142.531 39.6H143.311C143.444 39.6 143.551 39.6467 143.631 39.74C143.724 39.82 143.771 39.9267 143.771 40.06V40.88C143.771 41.0133 143.724 41.12 143.631 41.2C143.551 41.28 143.444 41.32 143.311 41.32H142.111C141.391 41.32 140.824 41.5333 140.411 41.96C139.997 42.3733 139.791 42.94 139.791 43.66V49.54C139.791 49.6733 139.744 49.7867 139.651 49.88C139.557 49.96 139.444 50 139.311 50H138.331ZM149.513 54.4C148.42 54.4 147.54 54.2133 146.873 53.84C146.207 53.48 145.733 53.0667 145.453 52.6C145.173 52.1333 145.02 51.7133 144.993 51.34C144.98 51.2067 145.02 51.0933 145.113 51C145.22 50.9067 145.333 50.86 145.453 50.86H146.413C146.533 50.86 146.633 50.8867 146.713 50.94C146.793 51.0067 146.86 51.12 146.913 51.28C147.073 51.7067 147.333 52.0733 147.693 52.38C148.067 52.7 148.64 52.86 149.413 52.86C150.4 52.86 151.127 52.6467 151.593 52.22C152.06 51.8067 152.293 51.0667 152.293 50V48.64C151.947 49.08 151.507 49.4333 150.973 49.7C150.44 49.9533 149.807 50.08 149.073 50.08C147.66 50.08 146.6 49.6333 145.893 48.74C145.2 47.8333 144.833 46.6867 144.793 45.3L144.773 44.74L144.793 44.2C144.833 42.8267 145.207 41.6867 145.913 40.78C146.62 39.86 147.673 39.4 149.073 39.4C150.473 39.4 151.567 39.9133 152.353 40.94V40.08C152.353 39.9467 152.393 39.8333 152.473 39.74C152.567 39.6467 152.68 39.6 152.813 39.6H153.733C153.867 39.6 153.98 39.6467 154.073 39.74C154.167 39.8333 154.213 39.9467 154.213 40.08V49.78C154.213 52.86 152.647 54.4 149.513 54.4ZM149.473 48.48C150.38 48.48 151.067 48.18 151.533 47.58C152 46.98 152.253 46.2667 152.293 45.44C152.307 45.32 152.313 45.0867 152.313 44.74C152.313 44.4067 152.307 44.18 152.293 44.06C152.253 43.2333 152 42.52 151.533 41.92C151.08 41.32 150.393 41.02 149.473 41.02C148.527 41.02 147.84 41.3133 147.413 41.9C146.987 42.4867 146.753 43.26 146.713 44.22L146.693 44.74L146.713 45.28C146.753 46.2267 146.987 47 147.413 47.6C147.84 48.1867 148.527 48.48 149.473 48.48ZM161.347 50.2C159.974 50.2 158.874 49.78 158.047 48.94C157.234 48.0867 156.787 46.9267 156.707 45.46L156.687 44.78L156.707 44.12C156.8 42.68 157.254 41.5333 158.067 40.68C158.894 39.8267 159.98 39.4 161.327 39.4C162.807 39.4 163.954 39.8733 164.767 40.82C165.58 41.7533 165.987 43.02 165.987 44.62V44.96C165.987 45.0933 165.94 45.2067 165.847 45.3C165.767 45.38 165.66 45.42 165.527 45.42H158.607V45.6C158.647 46.4667 158.907 47.2067 159.387 47.82C159.88 48.42 160.527 48.72 161.327 48.72C161.94 48.72 162.44 48.6 162.827 48.36C163.227 48.1067 163.52 47.8467 163.707 47.58C163.827 47.42 163.914 47.3267 163.967 47.3C164.034 47.26 164.147 47.24 164.307 47.24H165.287C165.407 47.24 165.507 47.2733 165.587 47.34C165.667 47.4067 165.707 47.5 165.707 47.62C165.707 47.9133 165.52 48.2667 165.147 48.68C164.787 49.0933 164.274 49.4533 163.607 49.76C162.954 50.0533 162.2 50.2 161.347 50.2ZM164.087 44.04V43.98C164.087 43.06 163.834 42.3133 163.327 41.74C162.834 41.1533 162.167 40.86 161.327 40.86C160.487 40.86 159.82 41.1533 159.327 41.74C158.847 42.3133 158.607 43.06 158.607 43.98V44.04H164.087ZM168.838 50C168.705 50 168.592 49.96 168.498 49.88C168.418 49.7867 168.378 49.6733 168.378 49.54V40.08C168.378 39.9467 168.418 39.8333 168.498 39.74C168.592 39.6467 168.705 39.6 168.838 39.6H169.758C169.892 39.6 170.005 39.6467 170.098 39.74C170.192 39.8333 170.238 39.9467 170.238 40.08V40.96C170.785 40.0533 171.718 39.6 173.038 39.6H173.818C173.952 39.6 174.058 39.6467 174.138 39.74C174.232 39.82 174.278 39.9267 174.278 40.06V40.88C174.278 41.0133 174.232 41.12 174.138 41.2C174.058 41.28 173.952 41.32 173.818 41.32H172.618C171.898 41.32 171.332 41.5333 170.918 41.96C170.505 42.3733 170.298 42.94 170.298 43.66V49.54C170.298 49.6733 170.252 49.7867 170.158 49.88C170.065 49.96 169.952 50 169.818 50H168.838Z" fill="white"/>
<g clip-path="url(#clip0_0:157)">
<path d="M103 41.3359C103 39.6467 101.911 38.2079 100.398 37.6825C100.166 32.4417 98.2092 28.4199 94.573 25.7172C91.2543 23.2506 86.6878 22 81 22C75.3122 22 70.7457 23.2506 67.427 25.7173C63.7908 28.4199 61.8342 32.4418 61.6018 37.6826C60.0892 38.2079 59 39.6467 59 41.3359C59 42.3257 59.3742 43.2293 59.9879 43.9141C59.3742 44.5988 59 45.5024 59 46.4922C59 48.1918 60.1026 49.6378 61.6296 50.1551C62.1825 56.0454 67.1897 60.6719 73.2656 60.6719H88.7344C94.8103 60.6719 99.8175 56.0454 100.37 50.1551C101.897 49.6378 103 48.1918 103 46.4922C103 45.5024 102.626 44.5988 102.012 43.9141C102.626 43.2293 103 42.3257 103 41.3359ZM81 24.5781C88.3933 24.5781 97.1513 26.8572 97.8034 37.4688H64.1966C64.8487 26.8572 73.6067 24.5781 81 24.5781ZM62.8672 40.0469H99.1328C99.8436 40.0469 100.422 40.6251 100.422 41.3359C100.422 42.0467 99.8436 42.625 99.1328 42.625H62.8672C62.1564 42.625 61.5781 42.0467 61.5781 41.3359C61.5781 40.6251 62.1564 40.0469 62.8672 40.0469ZM88.7344 58.0938H73.2656C68.6846 58.0938 64.883 54.7265 64.2496 50.3594H65.4453C66.3071 50.3594 66.5794 50.6525 67.1219 51.2366C67.7886 51.9545 68.7017 52.9375 70.6875 52.9375C72.6874 52.9375 73.5766 51.9444 74.226 51.2193C74.7387 50.6468 74.996 50.3594 75.8438 50.3594C76.6915 50.3594 76.9488 50.6468 77.4615 51.2193C78.1109 51.9444 79.0001 52.9375 81 52.9375C82.9999 52.9375 83.8891 51.9444 84.5385 51.2193C85.0512 50.6468 85.3085 50.3594 86.1562 50.3594C87.004 50.3594 87.2613 50.6468 87.774 51.2193C88.4234 51.9444 89.3126 52.9375 91.3125 52.9375C93.3124 52.9375 94.2016 51.9444 94.851 51.2193C95.3637 50.6468 95.621 50.3594 96.4688 50.3594H97.7504C97.117 54.7265 93.3154 58.0938 88.7344 58.0938ZM99.1328 47.7812H96.4688C94.4689 47.7812 93.5796 48.7743 92.9303 49.4995C92.4176 50.072 92.1603 50.3594 91.3125 50.3594C90.4647 50.3594 90.2074 50.072 89.6947 49.4995C89.0454 48.7743 88.1561 47.7812 86.1562 47.7812C84.1564 47.7812 83.2671 48.7743 82.6178 49.4995C82.1051 50.072 81.8478 50.3594 81 50.3594C80.1522 50.3594 79.8949 50.072 79.3822 49.4995C78.7329 48.7743 77.8436 47.7812 75.8438 47.7812C73.8439 47.7812 72.9546 48.7743 72.3053 49.4995C71.7926 50.072 71.5353 50.3594 70.6875 50.3594C69.8257 50.3594 69.5534 50.0662 69.0109 49.4821C68.3442 48.7643 67.4312 47.7812 65.4453 47.7812H62.8672C62.1564 47.7812 61.5781 47.203 61.5781 46.4922C61.5781 45.7814 62.1564 45.2031 62.8672 45.2031H99.1328C99.8436 45.2031 100.422 45.7814 100.422 46.4922C100.422 47.203 99.8436 47.7812 99.1328 47.7812Z" fill="white"/>
<path d="M73.2656 34.8906C73.9776 34.8906 74.5547 34.3135 74.5547 33.6016C74.5547 32.8896 73.9776 32.3125 73.2656 32.3125C72.5537 32.3125 71.9766 32.8896 71.9766 33.6016C71.9766 34.3135 72.5537 34.8906 73.2656 34.8906Z" fill="white"/>
<path d="M88.7344 34.8906C89.4463 34.8906 90.0234 34.3135 90.0234 33.6016C90.0234 32.8896 89.4463 32.3125 88.7344 32.3125C88.0224 32.3125 87.4453 32.8896 87.4453 33.6016C87.4453 34.3135 88.0224 34.8906 88.7344 34.8906Z" fill="white"/>
<path d="M83.5781 32.3125C84.2901 32.3125 84.8672 31.7354 84.8672 31.0234C84.8672 30.3115 84.2901 29.7344 83.5781 29.7344C82.8662 29.7344 82.2891 30.3115 82.2891 31.0234C82.2891 31.7354 82.8662 32.3125 83.5781 32.3125Z" fill="white"/>
<path d="M78.4219 29.7344C79.1338 29.7344 79.7109 29.1572 79.7109 28.4453C79.7109 27.7334 79.1338 27.1562 78.4219 27.1562C77.7099 27.1562 77.1328 27.7334 77.1328 28.4453C77.1328 29.1572 77.7099 29.7344 78.4219 29.7344Z" fill="white"/>
</g>
<defs>
<filter id="filter0_d_0:157" x="0" y="0" width="234" height="94" filterUnits="userSpaceOnUse" color-interpolation-filters="sRGB">
<feFlood flood-opacity="0" result="BackgroundImageFix"/>
<feColorMatrix in="SourceAlpha" type="matrix" values="0 0 0 0 0 0 0 0 0 0 0 0 0 0 0 0 0 0 127 0" result="hardAlpha"/>
<feOffset dy="4"/>
<feGaussianBlur stdDeviation="6"/>
<feComposite in2="hardAlpha" operator="out"/>
<feColorMatrix type="matrix" values="0 0 0 0 0 0 0 0 0 0 0 0 0 0 0 0 0 0 0.12 0"/>
<feBlend mode="normal" in2="BackgroundImageFix" result="effect1_dropShadow_0:157"/>
<feBlend mode="normal" in="SourceGraphic" in2="effect1_dropShadow_0:157" result="shape"/>
</filter>
<clipPath id="clip0_0:157">
<rect width="44" height="44" fill="white" transform="translate(59 21)"/>
</clipPath>
</defs>
</svg>
