<svg width="256" height="138" viewBox="0 0 256 138" fill="none" xmlns="http://www.w3.org/2000/svg">
<g filter="url(#filter0_d_0:418)">
<path d="M40 47C40 30.9837 52.9837 18 69 18H186C202.569 18 216 31.4315 216 48V75C216 75.5523 215.552 76 215 76H69C52.9837 76 40 63.0163 40 47V47Z" fill="#FF7A50"/>
</g>
<path d="M90.24 54.2C89.1333 54.2 88.1733 54.0267 87.36 53.68C86.56 53.3333 85.9467 52.88 85.52 52.32C85.0933 51.7467 84.8667 51.1333 84.84 50.48C84.84 50.3733 84.88 50.28 84.96 50.2C85.0533 50.1067 85.16 50.06 85.28 50.06H86.3C86.5533 50.06 86.7267 50.1933 86.82 50.46C86.94 51.02 87.28 51.5 87.84 51.9C88.4133 52.3 89.2133 52.5 90.24 52.5C91.3467 52.5 92.18 52.3067 92.74 51.92C93.3 51.52 93.58 50.9667 93.58 50.26C93.58 49.8067 93.44 49.44 93.16 49.16C92.8933 48.88 92.4933 48.6333 91.96 48.42C91.4267 48.2067 90.6267 47.94 89.56 47.62C88.52 47.3267 87.6933 47.0133 87.08 46.68C86.4667 46.3467 86.0067 45.9333 85.7 45.44C85.3933 44.9467 85.24 44.3267 85.24 43.58C85.24 42.86 85.4333 42.2133 85.82 41.64C86.22 41.0667 86.7867 40.62 87.52 40.3C88.2533 39.9667 89.1267 39.8 90.14 39.8C91.18 39.8 92.0733 39.9867 92.82 40.36C93.5667 40.72 94.1333 41.18 94.52 41.74C94.9067 42.3 95.1133 42.86 95.14 43.42C95.14 43.5267 95.1 43.62 95.02 43.7C94.9533 43.78 94.8533 43.82 94.72 43.82H93.66C93.38 43.82 93.2067 43.6933 93.14 43.44C93.06 42.88 92.7467 42.42 92.2 42.06C91.6533 41.6867 90.9667 41.5 90.14 41.5C89.2333 41.5 88.52 41.6733 88 42.02C87.48 42.3667 87.22 42.88 87.22 43.56C87.22 44.0133 87.34 44.3867 87.58 44.68C87.8333 44.9733 88.2133 45.2333 88.72 45.46C89.2267 45.6733 89.9667 45.92 90.94 46.2C92.0733 46.5067 92.9667 46.8267 93.62 47.16C94.2733 47.48 94.76 47.8867 95.08 48.38C95.4 48.86 95.56 49.4733 95.56 50.22C95.56 51.46 95.08 52.4333 94.12 53.14C93.16 53.8467 91.8667 54.2 90.24 54.2ZM102.081 54.2C100.708 54.2 99.6081 53.78 98.7814 52.94C97.9681 52.0867 97.5214 50.9267 97.4414 49.46L97.4214 48.78L97.4414 48.12C97.5347 46.68 97.9881 45.5333 98.8014 44.68C99.6281 43.8267 100.715 43.4 102.061 43.4C103.541 43.4 104.688 43.8733 105.501 44.82C106.315 45.7533 106.721 47.02 106.721 48.62V48.96C106.721 49.0933 106.675 49.2067 106.581 49.3C106.501 49.38 106.395 49.42 106.261 49.42H99.3414V49.6C99.3814 50.4667 99.6414 51.2067 100.121 51.82C100.615 52.42 101.261 52.72 102.061 52.72C102.675 52.72 103.175 52.6 103.561 52.36C103.961 52.1067 104.255 51.8467 104.441 51.58C104.561 51.42 104.648 51.3267 104.701 51.3C104.768 51.26 104.881 51.24 105.041 51.24H106.021C106.141 51.24 106.241 51.2733 106.321 51.34C106.401 51.4067 106.441 51.5 106.441 51.62C106.441 51.9133 106.255 52.2667 105.881 52.68C105.521 53.0933 105.008 53.4533 104.341 53.76C103.688 54.0533 102.935 54.2 102.081 54.2ZM104.821 48.04V47.98C104.821 47.06 104.568 46.3133 104.061 45.74C103.568 45.1533 102.901 44.86 102.061 44.86C101.221 44.86 100.555 45.1533 100.061 45.74C99.5814 46.3133 99.3414 47.06 99.3414 47.98V48.04H104.821ZM113.273 54.2C111.899 54.2 110.799 53.78 109.973 52.94C109.159 52.0867 108.713 50.9267 108.633 49.46L108.613 48.78L108.633 48.12C108.726 46.68 109.179 45.5333 109.993 44.68C110.819 43.8267 111.906 43.4 113.253 43.4C114.733 43.4 115.879 43.8733 116.693 44.82C117.506 45.7533 117.913 47.02 117.913 48.62V48.96C117.913 49.0933 117.866 49.2067 117.773 49.3C117.693 49.38 117.586 49.42 117.453 49.42H110.533V49.6C110.573 50.4667 110.833 51.2067 111.313 51.82C111.806 52.42 112.453 52.72 113.253 52.72C113.866 52.72 114.366 52.6 114.753 52.36C115.153 52.1067 115.446 51.8467 115.633 51.58C115.753 51.42 115.839 51.3267 115.893 51.3C115.959 51.26 116.073 51.24 116.233 51.24H117.213C117.333 51.24 117.433 51.2733 117.513 51.34C117.593 51.4067 117.633 51.5 117.633 51.62C117.633 51.9133 117.446 52.2667 117.073 52.68C116.713 53.0933 116.199 53.4533 115.533 53.76C114.879 54.0533 114.126 54.2 113.273 54.2ZM116.013 48.04V47.98C116.013 47.06 115.759 46.3133 115.253 45.74C114.759 45.1533 114.093 44.86 113.253 44.86C112.413 44.86 111.746 45.1533 111.253 45.74C110.773 46.3133 110.533 47.06 110.533 47.98V48.04H116.013ZM125.667 54C125.533 54 125.42 53.96 125.327 53.88C125.247 53.7867 125.207 53.6733 125.207 53.54V44.06C125.207 43.9267 125.247 43.82 125.327 43.74C125.42 43.6467 125.533 43.6 125.667 43.6H126.567C126.7 43.6 126.807 43.6467 126.887 43.74C126.98 43.82 127.027 43.9267 127.027 44.06V44.76C127.72 43.8533 128.687 43.4 129.927 43.4C131.407 43.4 132.453 44.0133 133.067 45.24C133.387 44.68 133.84 44.2333 134.427 43.9C135.013 43.5667 135.673 43.4 136.407 43.4C137.5 43.4 138.393 43.7733 139.087 44.52C139.78 45.2667 140.127 46.3467 140.127 47.76V53.54C140.127 53.6733 140.08 53.7867 139.987 53.88C139.907 53.96 139.8 54 139.667 54H138.727C138.593 54 138.48 53.96 138.387 53.88C138.307 53.7867 138.267 53.6733 138.267 53.54V47.94C138.267 46.9 138.047 46.1533 137.607 45.7C137.18 45.2467 136.613 45.02 135.907 45.02C135.28 45.02 134.74 45.2533 134.287 45.72C133.833 46.1733 133.607 46.9133 133.607 47.94V53.54C133.607 53.6733 133.56 53.7867 133.467 53.88C133.387 53.96 133.28 54 133.147 54H132.207C132.073 54 131.96 53.96 131.867 53.88C131.787 53.7867 131.747 53.6733 131.747 53.54V47.94C131.747 46.9 131.52 46.1533 131.067 45.7C130.627 45.2467 130.067 45.02 129.387 45.02C128.76 45.02 128.22 45.2533 127.767 45.72C127.313 46.1733 127.087 46.9067 127.087 47.92V53.54C127.087 53.6733 127.04 53.7867 126.947 53.88C126.867 53.96 126.76 54 126.627 54H125.667ZM147.24 54.2C145.773 54.2 144.633 53.7867 143.82 52.96C143.02 52.1333 142.593 51.0333 142.54 49.66L142.52 48.8L142.54 47.94C142.593 46.58 143.027 45.4867 143.84 44.66C144.653 43.82 145.787 43.4 147.24 43.4C148.693 43.4 149.827 43.82 150.64 44.66C151.453 45.4867 151.887 46.58 151.94 47.94C151.953 48.0867 151.96 48.3733 151.96 48.8C151.96 49.2267 151.953 49.5133 151.94 49.66C151.887 51.0333 151.453 52.1333 150.64 52.96C149.84 53.7867 148.707 54.2 147.24 54.2ZM147.24 52.66C148.08 52.66 148.74 52.3933 149.22 51.86C149.713 51.3267 149.98 50.56 150.02 49.56C150.033 49.4267 150.04 49.1733 150.04 48.8C150.04 48.4267 150.033 48.1733 150.02 48.04C149.98 47.04 149.713 46.2733 149.22 45.74C148.74 45.2067 148.08 44.94 147.24 44.94C146.4 44.94 145.733 45.2067 145.24 45.74C144.747 46.2733 144.487 47.04 144.46 48.04L144.44 48.8L144.46 49.56C144.487 50.56 144.747 51.3267 145.24 51.86C145.733 52.3933 146.4 52.66 147.24 52.66ZM154.924 54C154.791 54 154.678 53.96 154.584 53.88C154.504 53.7867 154.464 53.6733 154.464 53.54V44.08C154.464 43.9467 154.504 43.8333 154.584 43.74C154.678 43.6467 154.791 43.6 154.924 43.6H155.844C155.978 43.6 156.091 43.6467 156.184 43.74C156.278 43.8333 156.324 43.9467 156.324 44.08V44.96C156.871 44.0533 157.804 43.6 159.124 43.6H159.904C160.038 43.6 160.144 43.6467 160.224 43.74C160.318 43.82 160.364 43.9267 160.364 44.06V44.88C160.364 45.0133 160.318 45.12 160.224 45.2C160.144 45.28 160.038 45.32 159.904 45.32H158.704C157.984 45.32 157.418 45.5333 157.004 45.96C156.591 46.3733 156.384 46.94 156.384 47.66V53.54C156.384 53.6733 156.338 53.7867 156.244 53.88C156.151 53.96 156.038 54 155.904 54H154.924ZM166.027 54.2C164.653 54.2 163.553 53.78 162.727 52.94C161.913 52.0867 161.467 50.9267 161.387 49.46L161.367 48.78L161.387 48.12C161.48 46.68 161.933 45.5333 162.747 44.68C163.573 43.8267 164.66 43.4 166.007 43.4C167.487 43.4 168.633 43.8733 169.447 44.82C170.26 45.7533 170.667 47.02 170.667 48.62V48.96C170.667 49.0933 170.62 49.2067 170.527 49.3C170.447 49.38 170.34 49.42 170.207 49.42H163.287V49.6C163.327 50.4667 163.587 51.2067 164.067 51.82C164.56 52.42 165.207 52.72 166.007 52.72C166.62 52.72 167.12 52.6 167.507 52.36C167.907 52.1067 168.2 51.8467 168.387 51.58C168.507 51.42 168.593 51.3267 168.647 51.3C168.713 51.26 168.827 51.24 168.987 51.24H169.967C170.087 51.24 170.187 51.2733 170.267 51.34C170.347 51.4067 170.387 51.5 170.387 51.62C170.387 51.9133 170.2 52.2667 169.827 52.68C169.467 53.0933 168.953 53.4533 168.287 53.76C167.633 54.0533 166.88 54.2 166.027 54.2ZM168.767 48.04V47.98C168.767 47.06 168.513 46.3133 168.007 45.74C167.513 45.1533 166.847 44.86 166.007 44.86C165.167 44.86 164.5 45.1533 164.007 45.74C163.527 46.3133 163.287 47.06 163.287 47.98V48.04H168.767Z" fill="white"/>
<defs>
<filter id="filter0_d_0:418" x="0" y="0" width="256" height="138" filterUnits="userSpaceOnUse" color-interpolation-filters="sRGB">
<feFlood flood-opacity="0" result="BackgroundImageFix"/>
<feColorMatrix in="SourceAlpha" type="matrix" values="0 0 0 0 0 0 0 0 0 0 0 0 0 0 0 0 0 0 127 0" result="hardAlpha"/>
<feOffset dy="22"/>
<feGaussianBlur stdDeviation="20"/>
<feColorMatrix type="matrix" values="0 0 0 0 1 0 0 0 0 0.407843 0 0 0 0 0.219608 0 0 0 0.19 0"/>
<feBlend mode="normal" in2="BackgroundImageFix" result="effect1_dropShadow_0:418"/>
<feBlend mode="normal" in="SourceGraphic" in2="effect1_dropShadow_0:418" result="shape"/>
</filter>
</defs>
</svg>
