<svg width="34" height="34" viewBox="0 0 34 34" fill="none" xmlns="http://www.w3.org/2000/svg">
<path d="M7.43094e-07 17C3.33327e-07 7.62563 7.62563 -3.33327e-07 17 -7.43094e-07C26.3744 -1.15286e-06 34 7.62563 34 17C34 26.3744 26.373 34 17 34C7.62696 34 1.15286e-06 26.3744 7.43094e-07 17ZM31.3664 17C31.3664 9.07939 24.9219 2.6336 17 2.6336C9.07807 2.63361 2.63361 9.07939 2.63361 17C2.63361 24.9219 9.07807 31.3664 17 31.3664C24.9219 31.3664 31.3664 24.9206 31.3664 17Z" fill="#D1D2DC"/>
<path d="M18.8171 24.5189L12.2331 17.9349C11.7222 17.4213 11.7222 16.5918 12.2331 16.0782L18.8171 9.49413C19.3096 9.07145 20.0378 9.07145 20.5303 9.49413C21.0821 9.96688 21.1465 10.7991 20.6738 11.3509L15.0247 17L20.6739 22.6622C21.1848 23.1758 21.1848 24.0054 20.6739 24.5189C20.1603 25.0299 19.3307 25.0299 18.8171 24.5189Z" fill="#D1D2DC"/>
</svg>
