<svg width="34" height="34" viewBox="0 0 34 34" fill="none" xmlns="http://www.w3.org/2000/svg">
<path d="M34 17C34 7.62563 26.3744 -3.33327e-07 17 -7.43094e-07C7.62563 -1.15286e-06 -3.33327e-07 7.62563 -7.43094e-07 17C-1.15286e-06 26.3744 7.62696 34 17 34C26.373 34 34 26.3744 34 17ZM2.63361 17C2.63361 9.07939 9.07807 2.6336 17 2.6336C24.9219 2.63361 31.3664 9.07939 31.3664 17C31.3664 24.9219 24.9219 31.3664 17 31.3664C9.07806 31.3664 2.6336 24.9206 2.63361 17Z" fill="#FF7A50"/>
<path d="M15.1829 24.5189L21.7669 17.9349C22.2778 17.4213 22.2778 16.5918 21.7669 16.0782L15.1829 9.49413C14.6904 9.07145 13.9622 9.07145 13.4697 9.49413C12.9179 9.96688 12.8535 10.7991 13.3262 11.3509L18.9753 17L13.3261 22.6622C12.8152 23.1758 12.8152 24.0054 13.3261 24.5189C13.8397 25.0299 14.6693 25.0299 15.1829 24.5189Z" fill="#FF7A50"/>
</svg>
