<svg width="121" height="63" viewBox="0 0 121 63" fill="none" xmlns="http://www.w3.org/2000/svg">
<path d="M73.2 38C73.0667 38 72.9533 37.96 72.86 37.88C72.78 37.7867 72.74 37.6733 72.74 37.54V24.48C72.74 24.3333 72.78 24.22 72.86 24.14C72.9533 24.0467 73.0667 24 73.2 24H78.28C79.7867 24 80.9733 24.3667 81.84 25.1C82.7067 25.8333 83.14 26.8933 83.14 28.28C83.14 29.6667 82.7067 30.7267 81.84 31.46C80.9867 32.18 79.8 32.54 78.28 32.54H74.74V37.54C74.74 37.6733 74.6933 37.7867 74.6 37.88C74.5067 37.96 74.3933 38 74.26 38H73.2ZM78.18 30.86C79.1533 30.86 79.8867 30.64 80.38 30.2C80.8867 29.76 81.14 29.12 81.14 28.28C81.14 27.44 80.8933 26.8 80.4 26.36C79.9067 25.9067 79.1667 25.68 78.18 25.68H74.72V30.86H78.18ZM85.612 25.66C85.4787 25.66 85.3654 25.62 85.272 25.54C85.192 25.4467 85.152 25.3333 85.152 25.2V24.12C85.152 23.9867 85.192 23.8733 85.272 23.78C85.3654 23.6867 85.4787 23.64 85.612 23.64H86.872C87.0054 23.64 87.1187 23.6867 87.212 23.78C87.3054 23.8733 87.352 23.9867 87.352 24.12V25.2C87.352 25.3333 87.3054 25.4467 87.212 25.54C87.1187 25.62 87.0054 25.66 86.872 25.66H85.612ZM85.772 38C85.6387 38 85.5254 37.96 85.432 37.88C85.352 37.7867 85.312 37.6733 85.312 37.54V28.06C85.312 27.9267 85.352 27.82 85.432 27.74C85.5254 27.6467 85.6387 27.6 85.772 27.6H86.732C86.8654 27.6 86.972 27.6467 87.052 27.74C87.1454 27.82 87.192 27.9267 87.192 28.06V37.54C87.192 37.6733 87.1454 37.7867 87.052 37.88C86.972 37.96 86.8654 38 86.732 38H85.772ZM89.9558 38C89.8224 38 89.7091 37.96 89.6158 37.88C89.5358 37.7867 89.4958 37.6733 89.4958 37.54V36.84C89.4958 36.7333 89.5224 36.6267 89.5758 36.52C89.6424 36.4 89.7091 36.2933 89.7758 36.2L95.2958 29.18H90.1358C90.0024 29.18 89.8891 29.14 89.7958 29.06C89.7158 28.9667 89.6758 28.8533 89.6758 28.72V28.06C89.6758 27.9267 89.7158 27.82 89.7958 27.74C89.8891 27.6467 90.0024 27.6 90.1358 27.6H97.2558C97.3891 27.6 97.4958 27.6467 97.5758 27.74C97.6691 27.82 97.7158 27.9267 97.7158 28.06V28.8C97.7158 28.9067 97.6824 29.0133 97.6158 29.12C97.5624 29.2267 97.5024 29.3267 97.4358 29.42L91.9758 36.42H97.6558C97.8024 36.42 97.9158 36.46 97.9958 36.54C98.0758 36.62 98.1158 36.7333 98.1158 36.88V37.54C98.1158 37.6733 98.0691 37.7867 97.9758 37.88C97.8958 37.96 97.7891 38 97.6558 38H89.9558ZM100.132 38C99.9982 38 99.8849 37.96 99.7916 37.88C99.7116 37.7867 99.6716 37.6733 99.6716 37.54V36.84C99.6716 36.7333 99.6982 36.6267 99.7516 36.52C99.8182 36.4 99.8849 36.2933 99.9516 36.2L105.472 29.18H100.312C100.178 29.18 100.065 29.14 99.9716 29.06C99.8916 28.9667 99.8516 28.8533 99.8516 28.72V28.06C99.8516 27.9267 99.8916 27.82 99.9716 27.74C100.065 27.6467 100.178 27.6 100.312 27.6H107.432C107.565 27.6 107.672 27.6467 107.752 27.74C107.845 27.82 107.892 27.9267 107.892 28.06V28.8C107.892 28.9067 107.858 29.0133 107.792 29.12C107.738 29.2267 107.678 29.3267 107.612 29.42L102.152 36.42H107.832C107.978 36.42 108.092 36.46 108.172 36.54C108.252 36.62 108.292 36.7333 108.292 36.88V37.54C108.292 37.6733 108.245 37.7867 108.152 37.88C108.072 37.96 107.965 38 107.832 38H100.132ZM113.407 38.2C112.754 38.2 112.147 38.0667 111.587 37.8C111.027 37.5333 110.581 37.1733 110.247 36.72C109.927 36.2533 109.767 35.74 109.767 35.18C109.767 34.3 110.127 33.58 110.847 33.02C111.581 32.4467 112.567 32.0733 113.807 31.9L116.787 31.48V30.9C116.787 29.54 116.007 28.86 114.447 28.86C113.861 28.86 113.381 28.9867 113.007 29.24C112.634 29.48 112.354 29.7667 112.167 30.1C112.127 30.22 112.074 30.3067 112.007 30.36C111.954 30.4133 111.874 30.44 111.767 30.44H110.907C110.787 30.44 110.681 30.4 110.587 30.32C110.507 30.2267 110.467 30.12 110.467 30C110.481 29.68 110.627 29.32 110.907 28.92C111.201 28.5067 111.647 28.1533 112.247 27.86C112.847 27.5533 113.587 27.4 114.467 27.4C115.961 27.4 117.034 27.7533 117.687 28.46C118.341 29.1533 118.667 30.02 118.667 31.06V37.54C118.667 37.6733 118.621 37.7867 118.527 37.88C118.447 37.96 118.341 38 118.207 38H117.287C117.154 38 117.041 37.96 116.947 37.88C116.867 37.7867 116.827 37.6733 116.827 37.54V36.68C116.534 37.1067 116.107 37.4667 115.547 37.76C114.987 38.0533 114.274 38.2 113.407 38.2ZM113.827 36.7C114.694 36.7 115.401 36.42 115.947 35.86C116.507 35.2867 116.787 34.4667 116.787 33.4V32.84L114.467 33.18C113.521 33.3133 112.807 33.54 112.327 33.86C111.847 34.1667 111.607 34.56 111.607 35.04C111.607 35.5733 111.827 35.9867 112.267 36.28C112.707 36.56 113.227 36.7 113.827 36.7Z" fill="#363853"/>
<g clip-path="url(#clip0_0:170)">
<path d="M61.8701 31.1174C61.8679 31.4473 61.6772 31.7474 61.379 31.8883L27.1399 48.1286C26.7992 49.5417 25.8126 50.7795 24.3701 51.3772C21.9754 52.369 19.2201 51.2278 18.2281 48.8331C15.8892 43.1862 14.7032 37.224 14.7032 31.1119C14.7032 24.9999 15.8891 19.0377 18.2281 13.3908C18.471 12.8044 18.8195 12.2933 19.2427 11.8701C20.5477 10.5652 22.5618 10.0976 24.3701 10.8468C25.5867 11.3508 26.479 12.3104 26.9333 13.4463L61.389 30.3403C61.6852 30.4855 61.8722 30.7875 61.8701 31.1174ZM31.0339 44.3794L34.6625 42.6581C34.642 42.0095 34.3344 41.3958 33.8073 40.9913C33.343 40.6352 32.7679 40.481 32.1878 40.5573C31.6077 40.6337 31.0925 40.9312 30.7359 41.3956C30.3798 41.8597 30.2256 42.4348 30.302 43.0149C30.3724 43.5494 30.6309 44.0288 31.0339 44.3794ZM23.7124 12.4348C22.1932 11.8055 20.4451 12.5296 19.8162 14.0487C15.2584 25.0521 15.2584 37.1718 19.8161 48.1753C20.1209 48.9112 20.694 49.4843 21.43 49.7892C22.1659 50.094 22.9764 50.094 23.7123 49.7892C24.4482 49.4843 25.0213 48.9112 25.3261 48.1753C25.6309 47.4394 25.6309 46.6289 25.3261 45.893C23.3751 41.1831 22.386 36.2101 22.386 31.112C22.386 26.0139 23.3752 21.0409 25.3261 16.3309C25.9555 14.8118 25.2315 13.0639 23.7124 12.4348ZM47.5385 25.4635C47.4849 25.5198 47.433 25.5781 47.3852 25.6402C47.0291 26.1043 46.875 26.6794 46.9514 27.2594C47.0277 27.8395 47.3255 28.3552 47.7896 28.7113C48.7478 29.4465 50.1252 29.2653 50.8609 28.3069C51.0878 28.0112 51.2318 27.6645 51.2868 27.3012L47.5385 25.4635ZM52.8723 28.0788C52.7374 28.5361 52.5195 28.9687 52.2244 29.3533C50.9126 31.0641 48.4534 31.3871 46.7432 30.0749C45.9148 29.4392 45.3836 28.5191 45.2473 27.4838C45.116 26.4866 45.3672 25.4981 45.954 24.6865L41.2145 22.3626L40.8913 24.8175C40.8293 25.2879 40.3976 25.6194 39.9271 25.5573C39.4565 25.4954 39.1254 25.0637 39.1873 24.5931L39.5861 21.5641L27.2596 15.5202C27.2252 16.0127 27.1134 16.5078 26.9144 16.9885C23.1419 26.0962 23.1419 36.1275 26.9144 45.235C27.0456 45.5517 27.1384 45.8749 27.197 46.1993L29.4045 45.1522C28.971 44.6051 28.6916 43.9493 28.5981 43.2393C28.4617 42.2041 28.7368 41.1776 29.3725 40.3493C29.479 40.2105 29.5932 40.0803 29.7149 39.9586C30.3194 39.3541 31.1017 38.9668 31.9635 38.8532C32.9989 38.7169 34.0251 38.992 34.8537 39.6277C35.5974 40.1984 36.0949 41.0027 36.2898 41.8863L46.5369 37.0259L46.132 36.0484C45.9949 35.7174 46.0799 35.3499 46.3183 35.1115C46.3958 35.034 46.4895 34.9702 46.5971 34.9256C47.0355 34.7439 47.5383 34.9523 47.7199 35.3907L48.0918 36.2883L59.0323 31.099L52.8723 28.0788Z" fill="#363853"/>
<path d="M21.3733 39.3603C21.3744 39.365 21.377 39.3777 21.3779 39.3825C21.4709 39.8476 21.1693 40.2991 20.7042 40.3925C20.2398 40.4856 19.7876 40.1845 19.6928 39.7208C19.6304 39.4257 19.7276 39.1334 19.9265 38.9346C20.039 38.822 20.1841 38.7394 20.351 38.7032C20.8148 38.6023 21.2725 38.8966 21.3733 39.3603Z" fill="#363853"/>
<path d="M21.9588 41.794C22.4049 43.4245 22.9592 45.0434 23.6063 46.6057C23.788 47.0443 23.5794 47.547 23.1411 47.7285C22.7026 47.9102 22.2 47.7019 22.0184 47.2634C21.3438 45.6348 20.7661 43.9471 20.3011 42.2476C20.2167 41.939 20.3116 41.6236 20.5227 41.4125C20.6248 41.3104 20.754 41.2327 20.9031 41.1919C21.3609 41.0667 21.8336 41.3362 21.9588 41.794Z" fill="#363853"/>
<path d="M42.3514 35.4321C42.2469 35.5684 42.1326 35.6988 42.0118 35.8196C40.6313 37.2 38.4209 37.3437 36.8703 36.1538C35.1602 34.8416 34.8364 32.3828 36.1486 30.6727C36.2531 30.5363 36.3674 30.406 36.4882 30.2852C37.8686 28.9048 40.079 28.7611 41.6298 29.9511C43.3398 31.2633 43.6635 33.722 42.3514 35.4321ZM40.5835 31.3146C39.7145 30.6478 38.4764 30.7277 37.7036 31.5006C37.6356 31.5685 37.5712 31.642 37.5122 31.719C36.7769 32.6773 36.9584 34.0549 37.9166 34.7903C38.7856 35.457 40.0235 35.377 40.7964 34.6042C40.8643 34.5363 40.9288 34.4628 40.9878 34.3858C41.7229 33.4275 41.5416 32.0498 40.5835 31.3146Z" fill="#363853"/>
<path d="M34.6346 28.0315C34.53 28.1679 34.4158 28.2982 34.295 28.419C32.9145 29.7995 30.7041 29.9432 29.1534 28.7532C28.3249 28.1176 27.7937 27.1974 27.6574 26.1621C27.521 25.1269 27.796 24.1005 28.4316 23.272C28.5362 23.1358 28.6505 23.0055 28.7712 22.8848C30.1516 21.5044 32.3621 21.3606 33.9129 22.5506C35.623 23.8626 35.9466 26.3214 34.6346 28.0315ZM32.8667 23.914C31.9976 23.2472 30.7595 23.3272 29.9867 24.1C29.9188 24.1679 29.8544 24.2414 29.7954 24.3183C29.4393 24.7826 29.2852 25.3577 29.3615 25.9377C29.4378 26.5178 29.7355 27.0334 30.1998 27.3896C31.0687 28.0564 32.3068 27.9764 33.0796 27.2036C33.1475 27.1357 33.212 27.0622 33.271 26.9852C34.0062 26.0271 33.8248 24.6493 32.8667 23.914Z" fill="#363853"/>
<path d="M33.1442 34.5568L31.5224 36.6705C31.234 37.0472 30.694 37.1181 30.3175 36.8292C29.9409 36.5403 29.8699 36.0008 30.1588 35.6243L31.7806 33.5107C31.8039 33.4802 31.829 33.4517 31.8554 33.4253C32.1556 33.125 32.6394 33.0865 32.9854 33.352C33.362 33.6408 33.4331 34.1803 33.1442 34.5568Z" fill="#363853"/>
<path d="M27.7126 31.0196L28.801 32.4378C29.0899 32.8144 29.0191 33.3539 28.6424 33.6427C28.2658 33.9316 27.7264 33.8607 27.4375 33.4841L26.3492 32.0659C26.0836 31.7198 26.1221 31.2361 26.4224 30.9358C26.4489 30.9093 26.4773 30.8843 26.5078 30.861C26.8843 30.5721 27.4237 30.6431 27.7126 31.0196Z" fill="#363853"/>
</g>
<defs>
<clipPath id="clip0_0:170">
<rect width="44" height="44" fill="white" transform="matrix(0.707107 -0.707107 -0.707107 -0.707107 31.1128 62.2253)"/>
</clipPath>
</defs>
</svg>
