<svg width="210" height="70" viewBox="0 0 210 70" fill="none" xmlns="http://www.w3.org/2000/svg">
<rect width="210" height="70" rx="8" fill="white"/>
<path d="M92.08 42.2C91.1467 42.2 90.36 42.0533 89.72 41.76C89.0933 41.4533 88.62 41.1067 88.3 40.72C87.9933 40.3333 87.84 40.0133 87.84 39.76C87.84 39.6267 87.8867 39.5267 87.98 39.46C88.0867 39.38 88.1933 39.34 88.3 39.34H89.2C89.3333 39.34 89.4533 39.4067 89.56 39.54C89.88 39.9133 90.2267 40.2067 90.6 40.42C90.9733 40.6333 91.4733 40.74 92.1 40.74C92.7933 40.74 93.3533 40.6067 93.78 40.34C94.22 40.06 94.44 39.68 94.44 39.2C94.44 38.88 94.3467 38.62 94.16 38.42C93.9867 38.2067 93.68 38.0267 93.24 37.88C92.8133 37.72 92.1733 37.5467 91.32 37.36C90.16 37.1067 89.3333 36.74 88.84 36.26C88.36 35.78 88.12 35.16 88.12 34.4C88.12 33.8933 88.2667 33.4133 88.56 32.96C88.8667 32.4933 89.3067 32.12 89.88 31.84C90.4667 31.5467 91.1667 31.4 91.98 31.4C92.8333 31.4 93.56 31.54 94.16 31.82C94.76 32.1 95.2067 32.4333 95.5 32.82C95.8067 33.1933 95.96 33.5067 95.96 33.76C95.96 33.88 95.9133 33.98 95.82 34.06C95.74 34.14 95.64 34.18 95.52 34.18H94.68C94.52 34.18 94.3867 34.1133 94.28 33.98C94.0667 33.7267 93.88 33.5333 93.72 33.4C93.5733 33.2533 93.3533 33.1267 93.06 33.02C92.78 32.9133 92.42 32.86 91.98 32.86C91.34 32.86 90.8467 33 90.5 33.28C90.1533 33.5467 89.98 33.9 89.98 34.34C89.98 34.62 90.0533 34.86 90.2 35.06C90.3467 35.2467 90.6267 35.42 91.04 35.58C91.4667 35.74 92.08 35.9067 92.88 36.08C94.1467 36.3467 95.04 36.7333 95.56 37.24C96.0933 37.7333 96.36 38.3667 96.36 39.14C96.36 39.7133 96.1933 40.2333 95.86 40.7C95.5267 41.1667 95.0333 41.5333 94.38 41.8C93.74 42.0667 92.9733 42.2 92.08 42.2ZM101.575 42.2C100.922 42.2 100.315 42.0667 99.7553 41.8C99.1953 41.5333 98.7486 41.1733 98.4153 40.72C98.0953 40.2533 97.9353 39.74 97.9353 39.18C97.9353 38.3 98.2953 37.58 99.0153 37.02C99.7486 36.4467 100.735 36.0733 101.975 35.9L104.955 35.48V34.9C104.955 33.54 104.175 32.86 102.615 32.86C102.029 32.86 101.549 32.9867 101.175 33.24C100.802 33.48 100.522 33.7667 100.335 34.1C100.295 34.22 100.242 34.3067 100.175 34.36C100.122 34.4133 100.042 34.44 99.9353 34.44H99.0753C98.9553 34.44 98.8486 34.4 98.7553 34.32C98.6753 34.2267 98.6353 34.12 98.6353 34C98.6486 33.68 98.7953 33.32 99.0753 32.92C99.3686 32.5067 99.8153 32.1533 100.415 31.86C101.015 31.5533 101.755 31.4 102.635 31.4C104.129 31.4 105.202 31.7533 105.855 32.46C106.509 33.1533 106.835 34.02 106.835 35.06V41.54C106.835 41.6733 106.789 41.7867 106.695 41.88C106.615 41.96 106.509 42 106.375 42H105.455C105.322 42 105.209 41.96 105.115 41.88C105.035 41.7867 104.995 41.6733 104.995 41.54V40.68C104.702 41.1067 104.275 41.4667 103.715 41.76C103.155 42.0533 102.442 42.2 101.575 42.2ZM101.995 40.7C102.862 40.7 103.569 40.42 104.115 39.86C104.675 39.2867 104.955 38.4667 104.955 37.4V36.84L102.635 37.18C101.689 37.3133 100.975 37.54 100.495 37.86C100.015 38.1667 99.7753 38.56 99.7753 39.04C99.7753 39.5733 99.9953 39.9867 100.435 40.28C100.875 40.56 101.395 40.7 101.995 40.7ZM110.17 42C110.037 42 109.924 41.96 109.83 41.88C109.75 41.7867 109.71 41.6733 109.71 41.54V32.06C109.71 31.9267 109.75 31.82 109.83 31.74C109.924 31.6467 110.037 31.6 110.17 31.6H111.11C111.244 31.6 111.35 31.6467 111.43 31.74C111.524 31.82 111.57 31.9267 111.57 32.06V32.94C111.957 32.4467 112.41 32.0667 112.93 31.8C113.464 31.5333 114.124 31.4 114.91 31.4C116.19 31.4 117.184 31.8133 117.89 32.64C118.61 33.4533 118.97 34.54 118.97 35.9V41.54C118.97 41.6733 118.924 41.7867 118.83 41.88C118.75 41.96 118.644 42 118.51 42H117.51C117.377 42 117.264 41.96 117.17 41.88C117.09 41.7867 117.05 41.6733 117.05 41.54V36C117.05 35.0533 116.817 34.32 116.35 33.8C115.897 33.28 115.237 33.02 114.37 33.02C113.53 33.02 112.864 33.2867 112.37 33.82C111.877 34.34 111.63 35.0667 111.63 36V41.54C111.63 41.6733 111.584 41.7867 111.49 41.88C111.41 41.96 111.304 42 111.17 42H110.17ZM125.639 42.2C124.253 42.2 123.206 41.7467 122.499 40.84C121.793 39.9333 121.419 38.7867 121.379 37.4L121.359 36.8L121.379 36.2C121.419 34.8267 121.793 33.6867 122.499 32.78C123.206 31.86 124.253 31.4 125.639 31.4C127.013 31.4 128.093 31.8867 128.879 32.86V28.26C128.879 28.1267 128.919 28.02 128.999 27.94C129.093 27.8467 129.206 27.8 129.339 27.8H130.299C130.433 27.8 130.539 27.8467 130.619 27.94C130.713 28.02 130.759 28.1267 130.759 28.26V41.54C130.759 41.6733 130.713 41.7867 130.619 41.88C130.539 41.96 130.433 42 130.299 42H129.399C129.266 42 129.153 41.96 129.059 41.88C128.979 41.7867 128.939 41.6733 128.939 41.54V40.7C128.166 41.7 127.066 42.2 125.639 42.2ZM126.059 40.58C126.979 40.58 127.666 40.28 128.119 39.68C128.586 39.0667 128.839 38.34 128.879 37.5C128.893 37.3533 128.899 37.1 128.899 36.74C128.899 36.3667 128.893 36.1067 128.879 35.96C128.853 35.1733 128.599 34.4867 128.119 33.9C127.639 33.3133 126.953 33.02 126.059 33.02C125.113 33.02 124.419 33.3133 123.979 33.9C123.553 34.4867 123.319 35.26 123.279 36.22L123.259 36.8C123.259 39.32 124.193 40.58 126.059 40.58ZM136.494 42C136.321 42 136.187 41.96 136.094 41.88C136.001 41.8 135.921 41.6733 135.854 41.5L133.014 32.22L132.974 32.02C132.974 31.9 133.014 31.8 133.094 31.72C133.187 31.64 133.287 31.6 133.394 31.6H134.274C134.407 31.6 134.514 31.64 134.594 31.72C134.687 31.7867 134.747 31.86 134.774 31.94L136.994 39.48L139.374 32.02C139.401 31.9133 139.461 31.82 139.554 31.74C139.647 31.6467 139.774 31.6 139.934 31.6H140.614C140.774 31.6 140.901 31.6467 140.994 31.74C141.087 31.82 141.147 31.9133 141.174 32.02L143.554 39.48L145.774 31.94C145.787 31.8733 145.834 31.8 145.914 31.72C146.007 31.64 146.121 31.6 146.254 31.6H147.154C147.261 31.6 147.354 31.64 147.434 31.72C147.514 31.8 147.554 31.9 147.554 32.02L147.514 32.22L144.694 41.5C144.627 41.6733 144.547 41.8 144.454 41.88C144.361 41.96 144.221 42 144.034 42H143.254C142.894 42 142.674 41.8333 142.594 41.5L140.274 34.34L137.954 41.5C137.847 41.8333 137.621 42 137.274 42H136.494ZM150.069 29.66C149.936 29.66 149.822 29.62 149.729 29.54C149.649 29.4467 149.609 29.3333 149.609 29.2V28.12C149.609 27.9867 149.649 27.8733 149.729 27.78C149.822 27.6867 149.936 27.64 150.069 27.64H151.329C151.462 27.64 151.576 27.6867 151.669 27.78C151.762 27.8733 151.809 27.9867 151.809 28.12V29.2C151.809 29.3333 151.762 29.4467 151.669 29.54C151.576 29.62 151.462 29.66 151.329 29.66H150.069ZM150.229 42C150.096 42 149.982 41.96 149.889 41.88C149.809 41.7867 149.769 41.6733 149.769 41.54V32.06C149.769 31.9267 149.809 31.82 149.889 31.74C149.982 31.6467 150.096 31.6 150.229 31.6H151.189C151.322 31.6 151.429 31.6467 151.509 31.74C151.602 31.82 151.649 31.9267 151.649 32.06V41.54C151.649 41.6733 151.602 41.7867 151.509 41.88C151.429 41.96 151.322 42 151.189 42H150.229ZM158.813 42.2C157.386 42.2 156.266 41.8 155.453 41C154.653 40.1867 154.226 39.0533 154.173 37.6L154.153 36.8L154.173 36C154.226 34.5467 154.653 33.42 155.453 32.62C156.266 31.8067 157.386 31.4 158.813 31.4C159.773 31.4 160.586 31.5733 161.253 31.92C161.919 32.2667 162.413 32.6933 162.733 33.2C163.066 33.7067 163.246 34.2133 163.273 34.72C163.286 34.8533 163.246 34.96 163.153 35.04C163.059 35.12 162.946 35.16 162.813 35.16H161.853C161.719 35.16 161.619 35.1333 161.553 35.08C161.486 35.0267 161.419 34.92 161.353 34.76C161.126 34.12 160.806 33.6667 160.393 33.4C159.979 33.12 159.459 32.98 158.833 32.98C158.006 32.98 157.346 33.24 156.853 33.76C156.373 34.2667 156.113 35.0467 156.073 36.1L156.053 36.82L156.073 37.5C156.113 38.5667 156.373 39.3533 156.853 39.86C157.333 40.3667 157.993 40.62 158.833 40.62C159.459 40.62 159.979 40.4867 160.393 40.22C160.806 39.94 161.126 39.48 161.353 38.84C161.419 38.68 161.486 38.5733 161.553 38.52C161.619 38.4533 161.719 38.42 161.853 38.42H162.813C162.946 38.42 163.059 38.4667 163.153 38.56C163.246 38.64 163.286 38.7467 163.273 38.88C163.246 39.3733 163.066 39.88 162.733 40.4C162.413 40.9067 161.919 41.3333 161.253 41.68C160.599 42.0267 159.786 42.2 158.813 42.2ZM166.128 42C165.995 42 165.881 41.96 165.788 41.88C165.708 41.7867 165.668 41.6733 165.668 41.54V28.26C165.668 28.1267 165.708 28.02 165.788 27.94C165.881 27.8467 165.995 27.8 166.128 27.8H167.128C167.261 27.8 167.368 27.8467 167.448 27.94C167.541 28.02 167.588 28.1267 167.588 28.26V32.92C167.975 32.4267 168.428 32.0533 168.948 31.8C169.468 31.5333 170.115 31.4 170.888 31.4C172.168 31.4 173.161 31.8133 173.868 32.64C174.588 33.4533 174.948 34.54 174.948 35.9V41.54C174.948 41.6733 174.901 41.7867 174.808 41.88C174.728 41.96 174.621 42 174.488 42H173.488C173.355 42 173.241 41.96 173.148 41.88C173.068 41.7867 173.028 41.6733 173.028 41.54V36C173.028 35.0533 172.795 34.32 172.328 33.8C171.875 33.28 171.215 33.02 170.348 33.02C169.508 33.02 168.835 33.2867 168.328 33.82C167.835 34.34 167.588 35.0667 167.588 36V41.54C167.588 41.6733 167.541 41.7867 167.448 41.88C167.368 41.96 167.261 42 167.128 42H166.128Z" fill="#363853"/>
<g clip-path="url(#clip0_0:258)">
<path d="M75.7999 19.5999H74.3333V18.1332C74.3333 16.9182 73.3482 15.9332 72.1333 15.9332H70.3865L69.3253 13.811C69.0787 13.3124 68.5697 12.9977 68.0134 12.9999H67C66.1899 12.9999 65.5333 13.6565 65.5333 14.4666V15.9333H57.4666C56.2515 15.9333 55.2666 16.9182 55.2666 18.1333V19.5999H53.8C52.585 19.5999 51.6 20.5849 51.6 21.7999V23.2666C51.6 24.0766 52.2566 24.7333 53.0666 24.7333H53.1444L54.0024 32.31L50.4692 31.4799C50.291 31.2057 50.1025 30.9336 49.8928 30.6666L48.6461 25.3008C48.5691 24.969 48.2739 24.734 47.9333 24.7332H43.7196C41.7315 22.9813 39.3819 22.1893 37.6094 22.7107L36.5329 21.5374C36.126 21.0932 35.4869 20.9472 34.9276 21.1707C34.3674 21.3865 33.9984 21.9255 34 22.5259V54.8146C34.0016 56.0208 34.979 56.9983 36.1853 56.9999H72.1333C72.5061 56.9996 72.8193 56.7198 72.8615 56.3494L76.4541 24.7332H76.5333C77.3434 24.7332 78 24.0765 78 23.2665V21.7999C78 20.5849 77.015 19.5999 75.7999 19.5999ZM67 14.4666H68.0134L68.7467 15.9333H67V14.4666ZM56.7333 18.1332C56.7333 17.7282 57.0616 17.3999 57.4666 17.3999H72.1333C72.5383 17.3999 72.8666 17.7282 72.8666 18.1332V19.5999H56.7333V18.1332ZM54.68 33.9732L54.7262 33.982L55.3187 34.1227L55.7162 38.2844C54.5645 37.469 53.1864 37.0346 51.7753 37.0421C52.0469 35.7482 51.9031 34.4017 51.3646 33.1943L54.68 33.9732ZM56.1129 40.4596L56.1224 40.4677C56.388 40.7134 56.6403 40.9734 56.8777 41.2464C57.7502 42.2199 58.3917 43.3778 58.7543 44.6337C58.8783 45.0711 58.9421 45.5233 58.9443 45.9779L52.095 38.5081C53.6184 38.6787 55.0369 39.3677 56.1129 40.4596ZM48.385 31.1397V31.1382C49.9676 32.9569 50.7046 35.1415 50.3548 36.6096L42.8916 28.4733C44.3972 28.1367 46.6866 29.1941 48.385 31.1397ZM47.3466 26.1999L47.9333 28.6969C47.344 28.237 46.7017 27.8495 46.0201 27.5427C45.7429 27.0738 45.4329 26.6251 45.0924 26.1999H47.3466ZM43.6602 26.7455H43.6631C43.724 26.8152 43.7739 26.8922 43.8325 26.9655C43.144 26.9021 42.4509 27.0185 41.821 27.3036L38.8062 24.016C40.2803 24.0373 42.2038 25.0742 43.6602 26.7455ZM64.737 55.1025C64.6235 55.3636 64.3661 55.5328 64.0813 55.5333H57.4666H36.1853C35.7883 55.5333 35.4666 55.2115 35.4666 54.8146L35.4533 22.5333L50.1721 38.5815V38.5852L58.8166 48.0093L58.8262 48.0203L63.568 53.1917C63.5848 53.2137 63.6024 53.2357 63.6215 53.257L64.6049 54.3291C64.7987 54.5377 64.8506 54.8413 64.737 55.1025ZM60.1976 47.3448C60.3318 46.9069 60.4 46.4513 60.4 45.9933C60.7852 46.3182 61.1442 46.673 61.4736 47.0544C61.8832 47.5225 62.2469 48.0289 62.5596 48.5666C62.9879 49.2867 63.2906 50.0742 63.455 50.8957L60.1976 47.3448ZM71.4784 55.5333H66.1361C66.4108 54.7734 66.2366 53.9238 65.6851 53.3333L64.9466 52.5266C65.0915 51.299 64.8935 50.0552 64.3746 48.9333H72.2286L71.4784 55.5333ZM72.3951 47.4666H63.5951C63.2941 46.9836 62.9568 46.5242 62.586 46.0923C61.8643 45.2546 61.0171 44.534 60.0743 43.956C59.6434 42.5974 58.931 41.3447 57.9836 40.2798C57.7636 40.0305 57.5436 39.798 57.3126 39.5743L56.7333 33.4635C56.7035 33.1509 56.4779 32.892 56.1723 32.8197L55.5226 32.6657L55.3686 31.3332H74.2292L72.3951 47.4666ZM74.3956 29.8666H55.2021L54.6213 24.7333H74.9786L74.3956 29.8666ZM76.5333 23.2666H53.0666V21.7999C53.0666 21.3949 53.3949 21.0666 53.8 21.0666H75.7999C76.205 21.0666 76.5333 21.3949 76.5333 21.7999V23.2666Z" fill="#363853"/>
<path d="M65.1006 45.2667C65.1423 45.2667 65.1834 45.2608 65.2245 45.2594C65.2355 45.2594 65.2465 45.2667 65.2575 45.2667C65.2943 45.2644 65.3308 45.2593 65.3667 45.2513C66.5147 45.1738 67.5724 44.6017 68.2655 43.6834C69.1895 42.3853 69.4536 40.7299 68.9798 39.2087C68.8778 38.8288 68.7847 38.4563 68.6945 38.0962C68.1225 35.8031 67.5762 33.6404 65.2596 33.543C65.2362 33.543 65.2142 33.5386 65.1907 33.5386C65.1672 33.5386 65.1328 33.5334 65.1005 33.5334C62.5089 33.5334 60.3998 36.1654 60.3998 39.4001C60.3998 42.6349 62.5089 45.2667 65.1006 45.2667ZM65.6682 35.11C66.4264 35.4077 66.7601 36.4014 67.2719 38.451C67.3636 38.8177 67.4589 39.202 67.5652 39.5914C67.9163 40.6723 67.7448 41.8549 67.101 42.7916C66.8673 43.0981 66.5682 43.3486 66.2254 43.5249C66.2006 42.2643 65.9524 41.0181 65.4921 39.8443C65.4188 39.6155 65.3454 39.3947 65.2809 39.1843C64.8542 37.7962 65.3542 35.9973 65.6682 35.11ZM64.0922 35.22C63.615 36.6363 63.5416 38.1577 63.8802 39.6134C63.9477 39.8334 64.0225 40.0614 64.1002 40.2983C64.4669 41.4174 64.9069 42.7704 64.7272 43.7662C63.1198 43.5154 61.8665 41.6542 61.8665 39.4C61.8666 37.453 62.8016 35.8 64.0922 35.22Z" fill="#363853"/>
<path d="M37.8814 51.563L37.3629 52.0815C37.1723 52.2657 37.0958 52.5383 37.163 52.7947C37.2301 53.0511 37.4303 53.2514 37.6867 53.3184C37.9431 53.3855 38.2157 53.309 38.3999 53.1184L38.9183 52.6C39.1962 52.3122 39.1923 51.8548 38.9094 51.572C38.6266 51.2891 38.1691 51.2851 37.8814 51.563Z" fill="#363853"/>
<path d="M44.8929 46.6264C45.1794 46.3399 45.1794 45.8753 44.8929 45.5887C44.6064 45.3021 44.1418 45.3021 43.8552 45.5887L43.3367 46.1071C43.1514 46.2923 43.0789 46.5624 43.1466 46.8155C43.2143 47.0687 43.412 47.2664 43.6651 47.3343C43.9182 47.4022 44.1883 47.3299 44.3736 47.1447L44.8929 46.6264Z" fill="#363853"/>
<path d="M38.3999 44.7482L37.8815 45.2667C37.6909 45.4509 37.6144 45.7234 37.6815 45.9799C37.7486 46.2362 37.9489 46.4365 38.2052 46.5036C38.4616 46.5707 38.7342 46.4942 38.9184 46.3036L39.4369 45.7851C39.7148 45.4974 39.7108 45.04 39.4279 44.7572C39.1451 44.4743 38.6877 44.4703 38.3999 44.7482Z" fill="#363853"/>
<path d="M38.3999 39.6149L37.8815 40.1333C37.6909 40.3175 37.6144 40.5901 37.6815 40.8465C37.7486 41.1029 37.9489 41.3031 38.2052 41.3702C38.4616 41.4373 38.7342 41.3609 38.9184 41.1702L39.4369 40.6518C39.7148 40.3641 39.7108 39.9066 39.4279 39.6238C39.1451 39.341 38.6877 39.337 38.3999 39.6149Z" fill="#363853"/>
<path d="M45 51.563L44.4815 52.0815C44.2909 52.2657 44.2144 52.5383 44.2816 52.7947C44.3487 53.0511 44.5489 53.2514 44.8053 53.3184C45.0617 53.3855 45.3343 53.309 45.5185 53.1184L46.0369 52.6C46.3148 52.3122 46.3109 51.8548 46.028 51.572C45.7452 51.2891 45.2877 51.2851 45 51.563Z" fill="#363853"/>
<path d="M50.3481 51.5631L49.8297 52.0816C49.6391 52.2658 49.5626 52.5384 49.6297 52.7948C49.6968 53.0512 49.897 53.2515 50.1534 53.3185C50.4098 53.3856 50.6824 53.3091 50.8666 53.1185L51.385 52.6001C51.663 52.3123 51.659 51.8549 51.3761 51.5721C51.0932 51.2893 50.6358 51.2852 50.3481 51.5631Z" fill="#363853"/>
</g>
<defs>
<clipPath id="clip0_0:258">
<rect width="44" height="44" fill="white" transform="translate(34 13)"/>
</clipPath>
</defs>
</svg>
