<svg width="141" height="48" viewBox="0 0 141 48" fill="none" xmlns="http://www.w3.org/2000/svg">
<path d="M59.24 43.2C58.1333 43.2 57.1733 43.0267 56.36 42.68C55.56 42.3333 54.9467 41.88 54.52 41.32C54.0933 40.7467 53.8667 40.1333 53.84 39.48C53.84 39.3733 53.88 39.28 53.96 39.2C54.0533 39.1067 54.16 39.06 54.28 39.06H55.3C55.5533 39.06 55.7267 39.1933 55.82 39.46C55.94 40.02 56.28 40.5 56.84 40.9C57.4133 41.3 58.2133 41.5 59.24 41.5C60.3467 41.5 61.18 41.3067 61.74 40.92C62.3 40.52 62.58 39.9667 62.58 39.26C62.58 38.8067 62.44 38.44 62.16 38.16C61.8933 37.88 61.4933 37.6333 60.96 37.42C60.4267 37.2067 59.6267 36.94 58.56 36.62C57.52 36.3267 56.6933 36.0133 56.08 35.68C55.4667 35.3467 55.0067 34.9333 54.7 34.44C54.3933 33.9467 54.24 33.3267 54.24 32.58C54.24 31.86 54.4333 31.2133 54.82 30.64C55.22 30.0667 55.7867 29.62 56.52 29.3C57.2533 28.9667 58.1267 28.8 59.14 28.8C60.18 28.8 61.0733 28.9867 61.82 29.36C62.5667 29.72 63.1333 30.18 63.52 30.74C63.9067 31.3 64.1133 31.86 64.14 32.42C64.14 32.5267 64.1 32.62 64.02 32.7C63.9533 32.78 63.8533 32.82 63.72 32.82H62.66C62.38 32.82 62.2067 32.6933 62.14 32.44C62.06 31.88 61.7467 31.42 61.2 31.06C60.6533 30.6867 59.9667 30.5 59.14 30.5C58.2333 30.5 57.52 30.6733 57 31.02C56.48 31.3667 56.22 31.88 56.22 32.56C56.22 33.0133 56.34 33.3867 56.58 33.68C56.8333 33.9733 57.2133 34.2333 57.72 34.46C58.2267 34.6733 58.9667 34.92 59.94 35.2C61.0733 35.5067 61.9667 35.8267 62.62 36.16C63.2733 36.48 63.76 36.8867 64.08 37.38C64.4 37.86 64.56 38.4733 64.56 39.22C64.56 40.46 64.08 41.4333 63.12 42.14C62.16 42.8467 60.8667 43.2 59.24 43.2ZM71.0814 43.2C69.7081 43.2 68.6081 42.78 67.7814 41.94C66.9681 41.0867 66.5214 39.9267 66.4414 38.46L66.4214 37.78L66.4414 37.12C66.5347 35.68 66.9881 34.5333 67.8014 33.68C68.6281 32.8267 69.7147 32.4 71.0614 32.4C72.5414 32.4 73.6881 32.8733 74.5014 33.82C75.3147 34.7533 75.7214 36.02 75.7214 37.62V37.96C75.7214 38.0933 75.6747 38.2067 75.5814 38.3C75.5014 38.38 75.3947 38.42 75.2614 38.42H68.3414V38.6C68.3814 39.4667 68.6414 40.2067 69.1214 40.82C69.6147 41.42 70.2614 41.72 71.0614 41.72C71.6747 41.72 72.1747 41.6 72.5614 41.36C72.9614 41.1067 73.2547 40.8467 73.4414 40.58C73.5614 40.42 73.6481 40.3267 73.7014 40.3C73.7681 40.26 73.8814 40.24 74.0414 40.24H75.0214C75.1414 40.24 75.2414 40.2733 75.3214 40.34C75.4014 40.4067 75.4414 40.5 75.4414 40.62C75.4414 40.9133 75.2547 41.2667 74.8814 41.68C74.5214 42.0933 74.0081 42.4533 73.3414 42.76C72.6881 43.0533 71.9347 43.2 71.0814 43.2ZM73.8214 37.04V36.98C73.8214 36.06 73.5681 35.3133 73.0614 34.74C72.5681 34.1533 71.9014 33.86 71.0614 33.86C70.2214 33.86 69.5547 34.1533 69.0614 34.74C68.5814 35.3133 68.3414 36.06 68.3414 36.98V37.04H73.8214ZM82.1142 43C80.0076 43 78.9542 41.8267 78.9542 39.48V34.2H77.3942C77.2609 34.2 77.1476 34.16 77.0542 34.08C76.9742 33.9867 76.9342 33.8733 76.9342 33.74V33.06C76.9342 32.9267 76.9742 32.82 77.0542 32.74C77.1476 32.6467 77.2609 32.6 77.3942 32.6H78.9542V29.26C78.9542 29.1267 78.9942 29.02 79.0742 28.94C79.1676 28.8467 79.2809 28.8 79.4142 28.8H80.3542C80.4876 28.8 80.5942 28.8467 80.6742 28.94C80.7676 29.02 80.8142 29.1267 80.8142 29.26V32.6H83.2942C83.4276 32.6 83.5342 32.6467 83.6142 32.74C83.7076 32.82 83.7542 32.9267 83.7542 33.06V33.74C83.7542 33.8733 83.7076 33.9867 83.6142 34.08C83.5342 34.16 83.4276 34.2 83.2942 34.2H80.8142V39.34C80.8142 40.0067 80.9276 40.5133 81.1542 40.86C81.3809 41.1933 81.7542 41.36 82.2742 41.36H83.4942C83.6276 41.36 83.7342 41.4067 83.8142 41.5C83.9076 41.58 83.9542 41.6867 83.9542 41.82V42.54C83.9542 42.6733 83.9076 42.7867 83.8142 42.88C83.7342 42.96 83.6276 43 83.4942 43H82.1142ZM91.4891 43C91.3557 43 91.2424 42.96 91.1491 42.88C91.0691 42.7867 91.0291 42.6733 91.0291 42.54V29.48C91.0291 29.3333 91.0691 29.22 91.1491 29.14C91.2424 29.0467 91.3557 29 91.4891 29H92.4891C92.7024 29 92.8757 29.1067 93.0091 29.32L97.2291 37.4L101.489 29.32C101.516 29.24 101.569 29.1667 101.649 29.1C101.742 29.0333 101.856 29 101.989 29H102.969C103.116 29 103.229 29.0467 103.309 29.14C103.402 29.22 103.449 29.3333 103.449 29.48V42.54C103.449 42.6733 103.402 42.7867 103.309 42.88C103.216 42.96 103.102 43 102.969 43H101.989C101.856 43 101.742 42.96 101.649 42.88C101.569 42.7867 101.529 42.6733 101.529 42.54V32.7L98.1891 39.22C98.0557 39.5 97.8424 39.64 97.5491 39.64H96.9291C96.6357 39.64 96.4224 39.5 96.2891 39.22L92.9291 32.7V42.54C92.9291 42.6733 92.8824 42.7867 92.7891 42.88C92.7091 42.96 92.6024 43 92.4691 43H91.4891ZM110.808 43.2C109.435 43.2 108.335 42.78 107.508 41.94C106.695 41.0867 106.248 39.9267 106.168 38.46L106.148 37.78L106.168 37.12C106.261 35.68 106.715 34.5333 107.528 33.68C108.355 32.8267 109.441 32.4 110.788 32.4C112.268 32.4 113.415 32.8733 114.228 33.82C115.041 34.7533 115.448 36.02 115.448 37.62V37.96C115.448 38.0933 115.401 38.2067 115.308 38.3C115.228 38.38 115.121 38.42 114.988 38.42H108.068V38.6C108.108 39.4667 108.368 40.2067 108.848 40.82C109.341 41.42 109.988 41.72 110.788 41.72C111.401 41.72 111.901 41.6 112.288 41.36C112.688 41.1067 112.981 40.8467 113.168 40.58C113.288 40.42 113.375 40.3267 113.428 40.3C113.495 40.26 113.608 40.24 113.768 40.24H114.748C114.868 40.24 114.968 40.2733 115.048 40.34C115.128 40.4067 115.168 40.5 115.168 40.62C115.168 40.9133 114.981 41.2667 114.608 41.68C114.248 42.0933 113.735 42.4533 113.068 42.76C112.415 43.0533 111.661 43.2 110.808 43.2ZM113.548 37.04V36.98C113.548 36.06 113.295 35.3133 112.788 34.74C112.295 34.1533 111.628 33.86 110.788 33.86C109.948 33.86 109.281 34.1533 108.788 34.74C108.308 35.3133 108.068 36.06 108.068 36.98V37.04H113.548ZM118.299 43C118.166 43 118.053 42.96 117.959 42.88C117.879 42.7867 117.839 42.6733 117.839 42.54V33.06C117.839 32.9267 117.879 32.82 117.959 32.74C118.053 32.6467 118.166 32.6 118.299 32.6H119.239C119.373 32.6 119.479 32.6467 119.559 32.74C119.653 32.82 119.699 32.9267 119.699 33.06V33.94C120.086 33.4467 120.539 33.0667 121.059 32.8C121.593 32.5333 122.253 32.4 123.039 32.4C124.319 32.4 125.313 32.8133 126.019 33.64C126.739 34.4533 127.099 35.54 127.099 36.9V42.54C127.099 42.6733 127.053 42.7867 126.959 42.88C126.879 42.96 126.773 43 126.639 43H125.639C125.506 43 125.393 42.96 125.299 42.88C125.219 42.7867 125.179 42.6733 125.179 42.54V37C125.179 36.0533 124.946 35.32 124.479 34.8C124.026 34.28 123.366 34.02 122.499 34.02C121.659 34.02 120.993 34.2867 120.499 34.82C120.006 35.34 119.759 36.0667 119.759 37V42.54C119.759 42.6733 119.713 42.7867 119.619 42.88C119.539 42.96 119.433 43 119.299 43H118.299ZM133.848 43.2C132.582 43.2 131.602 42.7933 130.908 41.98C130.215 41.1533 129.868 40.06 129.868 38.7V33.06C129.868 32.9267 129.908 32.82 129.988 32.74C130.082 32.6467 130.195 32.6 130.328 32.6H131.328C131.462 32.6 131.568 32.6467 131.648 32.74C131.742 32.82 131.788 32.9267 131.788 33.06V38.6C131.788 40.5867 132.655 41.58 134.388 41.58C135.228 41.58 135.895 41.32 136.388 40.8C136.882 40.2667 137.128 39.5333 137.128 38.6V33.06C137.128 32.9267 137.168 32.82 137.248 32.74C137.342 32.6467 137.455 32.6 137.588 32.6H138.588C138.722 32.6 138.828 32.6467 138.908 32.74C138.988 32.82 139.028 32.9267 139.028 33.06V42.54C139.028 42.6733 138.988 42.7867 138.908 42.88C138.828 42.96 138.722 43 138.588 43H137.648C137.515 43 137.402 42.96 137.308 42.88C137.228 42.7867 137.188 42.6733 137.188 42.54V41.66C136.815 42.1667 136.362 42.5533 135.828 42.82C135.295 43.0733 134.635 43.2 133.848 43.2Z" fill="#363853"/>
<g clip-path="url(#clip0_0:226)">
<path d="M31.158 15.5309L30.6872 13.9994C30.0892 12.2596 28.1775 11.3285 26.4173 11.9196C25.4271 12.2521 24.6495 13.0207 24.3131 13.9994L23.8423 15.5309C23.4461 16.8226 23.363 18.1882 23.5996 19.5174C23.8154 20.6366 24.5342 21.5981 25.5532 22.1304L25.0259 33.7805C24.9553 34.4308 25.1687 35.0799 25.6126 35.565C26.5671 36.597 28.1874 36.6688 29.2315 35.7253C29.2879 35.6743 29.342 35.6208 29.3936 35.565C29.8276 35.0937 30.0406 34.4636 29.9803 33.8291L29.4501 22.129C30.4677 21.5963 31.1853 20.6355 31.4008 19.5174C31.6373 18.1882 31.5542 16.8226 31.158 15.5309ZM29.9561 19.2652C29.7973 20.0692 29.2176 20.7289 28.4344 20.9968C28.1372 21.1073 27.9457 21.3943 27.96 21.7079L28.5173 33.9436C28.543 34.1836 28.4628 34.4229 28.2973 34.6003C27.8557 35.0324 27.1446 35.0324 26.703 34.6003C26.5292 34.4086 26.4503 34.1505 26.4874 33.8958L27.0404 21.7079C27.0547 21.3943 26.8632 21.1073 26.5659 20.9968C25.7827 20.7289 25.203 20.0692 25.0442 19.2652C24.8481 18.1617 24.9172 17.028 25.2459 15.9557L25.7167 14.4234C26.081 13.4499 27.1747 12.9525 28.1598 13.3126C28.6806 13.503 29.091 13.9088 29.2836 14.4234L29.7544 15.9557C30.0828 17.028 30.1519 18.1617 29.9561 19.2652Z" fill="#363853"/>
<path d="M19.8 11.7458C19.395 11.7458 19.0667 12.0704 19.0667 12.4707V18.694L17.0815 20.6561C16.9347 20.8007 16.8566 21.0001 16.8667 21.2048L17.5083 33.8892C17.5236 34.1627 17.4232 34.4303 17.2311 34.6278C16.8297 35.0281 16.176 35.031 15.7709 34.6341C15.7687 34.632 15.7666 34.6299 15.7645 34.6278C15.5723 34.4303 15.472 34.1627 15.4873 33.8892L16.1333 21.2048C16.1436 21.0002 16.0658 20.8009 15.9192 20.6561L13.9333 18.694V12.4707C13.9333 12.0704 13.605 11.7458 13.2 11.7458C12.795 11.7458 12.4667 12.0704 12.4667 12.4707V18.9941C12.4667 19.1863 12.544 19.3706 12.6815 19.5065L14.6513 21.4541L14.0257 33.8189C13.9592 35.1695 15.013 36.3178 16.3795 36.3836C17.7459 36.4494 18.9077 35.4078 18.9743 34.0572C18.9782 33.9778 18.9782 33.8983 18.9743 33.819L18.3487 21.4542L20.3185 19.5066C20.456 19.3707 20.5333 19.1864 20.5333 18.9942V12.4708C20.5333 12.0704 20.205 11.7458 19.8 11.7458Z" fill="#363853"/>
<path d="M15.4 11.7458C14.995 11.7458 14.6667 12.0704 14.6667 12.4707V18.2693C14.6667 18.6695 14.995 18.9941 15.4 18.9941C15.805 18.9941 16.1333 18.6695 16.1333 18.2693V12.4707C16.1333 12.0704 15.805 11.7458 15.4 11.7458Z" fill="#363853"/>
<path d="M17.6 11.7458C17.195 11.7458 16.8667 12.0704 16.8667 12.4707V18.2693C16.8667 18.6695 17.195 18.9941 17.6 18.9941C18.005 18.9941 18.3333 18.6695 18.3333 18.2693V12.4707C18.3333 12.0704 18.005 11.7458 17.6 11.7458Z" fill="#363853"/>
<path d="M22 0.873535C9.84977 0.873535 0 10.609 0 22.6182C0 34.6275 9.84977 44.3629 22 44.3629C34.1502 44.3629 44 34.6275 44 22.6182C43.9863 10.6146 34.1446 0.887126 22 0.873535ZM22 42.9133C10.6597 42.9133 1.46667 33.8269 1.46667 22.6182C1.46667 11.4096 10.6597 2.32318 22 2.32318C33.3403 2.32318 42.5333 11.4096 42.5333 22.6182C42.5204 33.8215 33.3349 42.9005 22 42.9133Z" fill="#363853"/>
<path d="M24.3804 36.2246C24.3411 35.826 23.9824 35.5344 23.5792 35.5733C23.5698 35.5742 23.5604 35.5753 23.5509 35.5766L23.5539 35.5758C22.5214 35.6944 21.4784 35.6944 20.446 35.5758C20.0436 35.5292 19.6792 35.8139 19.632 36.2118C19.5848 36.6098 19.8727 36.9701 20.2751 37.0168C21.4201 37.1491 22.5768 37.1491 23.7218 37.0168C24.1248 36.978 24.4197 36.6233 24.3804 36.2246Z" fill="#363853"/>
<path d="M33.2202 13.2781C32.9599 12.9714 32.4974 12.9313 32.1871 13.1886C32.1861 13.1894 32.1851 13.1903 32.184 13.1911C31.8744 13.4491 31.835 13.9063 32.096 14.2124C36.5175 19.4003 36.1793 27.0716 31.3179 31.8597C31.031 32.1423 31.0302 32.6013 31.3161 32.8849C31.602 33.1685 32.0665 33.1693 32.3534 32.8867C37.756 27.5672 38.1327 19.0431 33.2202 13.2781Z" fill="#363853"/>
<path d="M17.0859 10.4551C17.0854 10.4551 17.085 10.4541 17.0845 10.4541C17.0838 10.4541 17.083 10.4551 17.0822 10.4551H17.0859Z" fill="#363853"/>
<path d="M25.4592 8.52689C22.5932 7.848 19.5874 8.03048 16.8271 9.05094C16.4479 9.19182 16.2563 9.60987 16.3988 9.98451C16.5062 10.2669 16.7794 10.4538 17.0846 10.4541C17.1723 10.4536 17.2592 10.4378 17.3411 10.4071C19.827 9.48828 22.5337 9.3242 25.1145 9.93595C25.5082 10.03 25.9045 9.79089 25.9996 9.40175C26.0948 9.01261 25.8529 8.62094 25.4592 8.52689Z" fill="#363853"/>
<path d="M12.6492 31.8234C10.1771 29.3841 8.79151 26.0709 8.79994 22.6182C8.7927 19.8597 9.67674 17.1709 11.3233 14.9437C11.5667 14.6237 11.5015 14.1694 11.1778 13.9288C10.854 13.6883 10.3943 13.7527 10.1509 14.0727C10.1466 14.0784 10.1424 14.0841 10.1383 14.0899C5.89842 19.8512 6.5223 27.8035 11.6101 32.8498C11.8968 33.1334 12.3619 33.1335 12.6488 32.8501C12.9358 32.5667 12.9359 32.107 12.6492 31.8234Z" fill="#363853"/>
</g>
<defs>
<clipPath id="clip0_0:226">
<rect width="44" height="43.4894" fill="white" transform="translate(0 0.873535)"/>
</clipPath>
</defs>
</svg>
