<svg width="28" height="28" viewBox="0 0 28 28" fill="none" xmlns="http://www.w3.org/2000/svg">
<path d="M26.6875 23.1875H23.625V14.3987C23.8956 14.343 24.1507 14.2292 24.3729 14.065C24.595 13.9008 24.7786 13.6902 24.9111 13.4478C25.0436 13.2055 25.1218 12.9371 25.1401 12.6615C25.1585 12.3859 25.1166 12.1097 25.0173 11.8519L23.625 8.23102V1.3125C23.625 1.25504 23.6137 1.19814 23.5917 1.14506C23.5697 1.09197 23.5375 1.04374 23.4969 1.00311C23.4563 0.962479 23.408 0.930253 23.3549 0.908272C23.3019 0.886291 23.245 0.874985 23.1875 0.875H4.8125C4.75504 0.874985 4.69815 0.886291 4.64506 0.908272C4.59197 0.930253 4.54374 0.962479 4.50311 1.00311C4.46248 1.04374 4.43025 1.09197 4.40827 1.14506C4.38629 1.19814 4.37498 1.25504 4.375 1.3125V8.23102L2.98266 11.8519C2.88344 12.1097 2.84155 12.3859 2.85989 12.6615C2.87823 12.9371 2.95636 13.2055 3.08886 13.4478C3.22136 13.6902 3.40504 13.9008 3.62715 14.065C3.84925 14.2292 4.10445 14.343 4.375 14.3987V23.1875H1.3125C1.25504 23.1875 1.19814 23.1988 1.14506 23.2208C1.09197 23.2428 1.04374 23.275 1.00311 23.3156C0.962479 23.3562 0.930253 23.4045 0.908272 23.4576C0.886291 23.5106 0.874985 23.5675 0.875 23.625V26.6875C0.874985 26.745 0.886291 26.8019 0.908272 26.8549C0.930253 26.908 0.962479 26.9563 1.00311 26.9969C1.04374 27.0375 1.09197 27.0697 1.14506 27.0917C1.19814 27.1137 1.25504 27.125 1.3125 27.125H26.6875C26.745 27.125 26.8019 27.1137 26.8549 27.0917C26.908 27.0697 26.9563 27.0375 26.9969 26.9969C27.0375 26.9563 27.0697 26.908 27.0917 26.8549C27.1137 26.8019 27.125 26.745 27.125 26.6875V23.625C27.125 23.5675 27.1137 23.5106 27.0917 23.4576C27.0697 23.4045 27.0375 23.3562 26.9969 23.3156C26.9563 23.275 26.908 23.2428 26.8549 23.2208C26.8019 23.1988 26.745 23.1875 26.6875 23.1875ZM21.875 23.1875V13.8562C22.1144 14.1043 22.4169 14.2826 22.75 14.3719V23.1875H21.875ZM18.375 23.625V26.25H16.625V23.1875H17.5C17.616 23.1875 17.7273 23.1414 17.8094 23.0594C17.8914 22.9773 17.9375 22.866 17.9375 22.75V21.4375C17.9375 21.3215 17.8914 21.2102 17.8094 21.1281C17.7273 21.0461 17.616 21 17.5 21H14.875C14.759 21 14.6477 21.0461 14.5656 21.1281C14.4836 21.2102 14.4375 21.3215 14.4375 21.4375V22.75C14.4375 22.866 14.4836 22.9773 14.5656 23.0594C14.6477 23.1414 14.759 23.1875 14.875 23.1875H15.75V26.25H14V23.625C14 23.5675 13.9887 23.5106 13.9667 23.4576C13.9447 23.4045 13.9125 23.3562 13.8719 23.3156C13.8313 23.275 13.783 23.2428 13.7299 23.2208C13.6769 23.1988 13.62 23.1875 13.5625 23.1875H12.6875V21.875C12.6875 21.8175 12.6762 21.7606 12.6542 21.7076C12.6322 21.6545 12.6 21.6062 12.5594 21.5656C12.5188 21.525 12.4705 21.4928 12.4174 21.4708C12.3644 21.4488 12.3075 21.4375 12.25 21.4375H11.375V14.3976C11.7991 14.3098 12.1805 14.0798 12.4562 13.7457C12.483 13.7791 12.5114 13.8113 12.5415 13.843C12.7186 14.0317 12.9326 14.1818 13.1703 14.2841C13.408 14.3863 13.6642 14.4386 13.9229 14.4375H14.0771C14.3358 14.4386 14.592 14.3863 14.8297 14.2841C15.0674 14.1818 15.2814 14.0317 15.4585 13.843C15.4886 13.8113 15.517 13.7791 15.5438 13.7457C15.607 13.8218 15.6759 13.893 15.75 13.9586V15.3125C15.17 15.3131 14.614 15.5437 14.2038 15.9538C13.7937 16.364 13.5631 16.92 13.5625 17.5C13.5625 17.5575 13.5738 17.6144 13.5958 17.6674C13.6178 17.7205 13.65 17.7688 13.6906 17.8094C13.7312 17.85 13.7795 17.8822 13.8326 17.9042C13.8856 17.9262 13.9425 17.9375 14 17.9375H18.375C18.4325 17.9375 18.4894 17.9262 18.5424 17.9042C18.5955 17.8822 18.6438 17.85 18.6844 17.8094C18.725 17.7688 18.7572 17.7205 18.7792 17.6674C18.8012 17.6144 18.8125 17.5575 18.8125 17.5C18.8119 16.92 18.5813 16.364 18.1712 15.9538C17.761 15.5437 17.205 15.3131 16.625 15.3125V14.3976C16.7522 14.4242 16.8817 14.4376 17.0116 14.4375H17.1484C17.4245 14.4377 17.6973 14.3777 17.9479 14.2618C18.1984 14.1458 18.4207 13.9766 18.5992 13.7659C18.6107 13.7528 18.6216 13.7391 18.632 13.7255C18.8102 13.9484 19.0364 14.1282 19.2938 14.2515C19.5512 14.3748 19.8331 14.4384 20.1184 14.4375H20.2032C20.4782 14.438 20.75 14.379 21 14.2647V21.4375H20.125C20.0675 21.4375 20.0106 21.4488 19.9576 21.4708C19.9045 21.4928 19.8562 21.525 19.8156 21.5656C19.775 21.6062 19.7428 21.6545 19.7208 21.7076C19.6988 21.7606 19.6875 21.8175 19.6875 21.875V23.1875H18.8125C18.755 23.1875 18.6981 23.1988 18.6451 23.2208C18.592 23.2428 18.5437 23.275 18.5031 23.3156C18.4625 23.3562 18.4303 23.4045 18.4083 23.4576C18.3863 23.5106 18.375 23.5675 18.375 23.625ZM15.3125 22.3125V21.875H17.0625V22.3125H15.3125ZM6.80531 12.2648L7.77109 8.75H9.5468L8.89546 12.7023C8.85648 12.9428 8.73296 13.1616 8.54712 13.3193C8.36127 13.477 8.12528 13.5632 7.88156 13.5625H7.7968C7.63883 13.5624 7.48301 13.526 7.34142 13.4559C7.19983 13.3859 7.07629 13.2842 6.98038 13.1586C6.88448 13.0331 6.8188 12.8872 6.78844 12.7321C6.75807 12.5771 6.76385 12.4172 6.80531 12.2648ZM7 14.2647C7.25004 14.379 7.52185 14.438 7.7968 14.4375H7.88156C8.16694 14.4384 8.44883 14.3748 8.70621 14.2515C8.96358 14.1282 9.18979 13.9484 9.36797 13.7255C9.37836 13.7391 9.38929 13.7528 9.40078 13.7659C9.6829 14.0988 10.0711 14.3244 10.5 14.4047V16.625H7V14.2647ZM10.8516 13.5625C10.7025 13.5626 10.5552 13.5302 10.4198 13.4675C10.2845 13.4049 10.1644 13.3136 10.0679 13.1999C9.97144 13.0862 9.90087 12.9528 9.86112 12.8091C9.82137 12.6654 9.81339 12.5147 9.83773 12.3676L10.4338 8.75H12.2254L12.0143 12.5913C11.9999 12.8536 11.8855 13.1005 11.6947 13.2811C11.5039 13.4618 11.2511 13.5625 10.9884 13.5625H10.8516ZM14.823 13.2415C14.7274 13.3433 14.6118 13.4243 14.4834 13.4795C14.3551 13.5348 14.2168 13.563 14.0771 13.5625H13.9229C13.7835 13.5625 13.6455 13.5341 13.5174 13.479C13.3893 13.424 13.2737 13.3434 13.1777 13.2423C13.0817 13.1411 13.0073 13.0215 12.9591 12.8907C12.9108 12.7599 12.8897 12.6206 12.897 12.4813L13.1015 8.75H14.8985L15.103 12.4786V12.4813C15.111 12.6205 15.0903 12.7598 15.0421 12.8905C14.994 13.0213 14.9194 13.1408 14.823 13.2415ZM15.9857 12.5912L15.7746 8.75H17.5662L18.1623 12.3676C18.1866 12.5147 18.1786 12.6654 18.1389 12.8091C18.0991 12.9528 18.0286 13.0862 17.9321 13.1999C17.8356 13.3136 17.7155 13.4049 17.5802 13.4675C17.4448 13.5302 17.2975 13.5626 17.1484 13.5625H17.0116C16.7489 13.5625 16.4961 13.4618 16.3053 13.2811C16.1145 13.1005 16.0001 12.8536 15.9857 12.5913V12.5912ZM16.625 16.1875C16.8964 16.1878 17.161 16.2721 17.3825 16.4288C17.6041 16.5854 17.7718 16.8068 17.8626 17.0625H14.5124C14.6032 16.8068 14.7709 16.5854 14.9925 16.4288C15.214 16.2721 15.4786 16.1878 15.75 16.1875H16.625ZM21.0202 13.1578C20.9248 13.284 20.8013 13.3863 20.6595 13.4566C20.5177 13.5268 20.3614 13.5631 20.2032 13.5625H20.1184C19.8747 13.5632 19.6387 13.477 19.4529 13.3193C19.267 13.1616 19.1435 12.9428 19.1045 12.7023L18.4532 8.75H20.2289L21.1941 12.2626C21.1941 12.2631 21.1947 12.2642 21.1947 12.2648C21.2366 12.417 21.2427 12.5768 21.2125 12.7318C21.1822 12.8868 21.1164 13.0326 21.0202 13.1578ZM20.5625 22.3125H21V23.1875H20.5625V22.3125ZM24.2009 12.1658C24.2608 12.3215 24.2819 12.4894 24.2624 12.655C24.2428 12.8207 24.1833 12.9791 24.0889 13.1166C23.9944 13.2541 23.868 13.3666 23.7204 13.4442C23.5727 13.5219 23.4084 13.5625 23.2416 13.5625C23.0167 13.562 22.7981 13.4879 22.6191 13.3515C22.4402 13.2152 22.3108 13.024 22.2507 12.8073L21.1362 8.75H22.8873L24.2009 12.1658ZM5.25 1.75H22.75V7.875H5.25V1.75ZM3.91125 13.1168C3.81565 12.9798 3.75539 12.8213 3.73583 12.6554C3.71627 12.4894 3.73802 12.3213 3.79914 12.1658L5.11273 8.75H6.86383L5.7493 12.8073C5.68917 13.024 5.55977 13.2152 5.38085 13.3515C5.20193 13.4879 4.98332 13.562 4.75836 13.5625C4.59138 13.5637 4.42668 13.5237 4.27889 13.4459C4.13111 13.3682 4.00482 13.2551 3.91125 13.1168ZM5.25 14.3719C5.58308 14.2826 5.88558 14.1043 6.125 13.8562V23.1875H5.25V14.3719ZM8.75 26.25H1.75V24.0625H8.75V26.25ZM9.1875 23.1875H7V17.5H10.5V26.25H9.625V23.625C9.62502 23.5675 9.61371 23.5106 9.59173 23.4576C9.56975 23.4045 9.53752 23.3562 9.49689 23.3156C9.45626 23.275 9.40803 23.2428 9.35494 23.2208C9.30186 23.1988 9.24496 23.1875 9.1875 23.1875ZM11.375 22.3125H11.8125V23.625C11.8125 23.6825 11.8238 23.7394 11.8458 23.7924C11.8678 23.8455 11.9 23.8938 11.9406 23.9344C11.9812 23.975 12.0295 24.0072 12.0826 24.0292C12.1356 24.0512 12.1925 24.0625 12.25 24.0625H13.125V26.25H11.375V22.3125ZM26.25 26.25H19.25V24.0625H26.25V26.25Z" fill="url(#paint0_linear_0:413)"/>
<defs>
<linearGradient id="paint0_linear_0:413" x1="0.875" y1="13.125" x2="26.4959" y2="13.2393" gradientUnits="userSpaceOnUse">
<stop stop-color="#FF5050"/>
<stop offset="1" stop-color="#FF7070" stop-opacity="0.84"/>
</linearGradient>
</defs>
</svg>
