<svg width="30" height="29" viewBox="0 0 30 29" fill="none" xmlns="http://www.w3.org/2000/svg">
<path d="M29.0625 23.5828C29.063 22.785 28.7655 22.015 28.2268 21.4206L27.5283 22.0386C27.8054 22.3442 27.9952 22.7174 28.0781 23.1195H24.8437C24.7666 23.1195 24.6906 23.1384 24.6226 23.1744C24.5545 23.2103 24.4966 23.2624 24.4537 23.3258L22.7179 25.8994H21.5625V24.5095C21.5635 23.6496 21.9095 22.8253 22.5247 22.2173C23.1398 21.6093 23.9738 21.2673 24.8437 21.2663H25.7812C26.2422 21.2655 26.6931 21.3998 27.0769 21.6521L27.596 20.8805C27.1912 20.6142 26.7313 20.4408 26.25 20.3728V18.9498C26.25 18.8269 26.2006 18.709 26.1127 18.6222C26.0248 18.5353 25.9056 18.4865 25.7812 18.4865C25.2841 18.4859 24.8076 18.2905 24.456 17.943C24.1045 17.5956 23.9068 17.1246 23.9062 16.6332V14.78H25.3125C25.4368 14.78 25.556 14.7312 25.644 14.6443C25.7319 14.5574 25.7812 14.4396 25.7812 14.3167V11.0735C25.7812 10.9506 25.7319 10.8328 25.644 10.7459C25.556 10.659 25.4368 10.6102 25.3125 10.6102H24.4857C24.2899 10.6105 24.0949 10.6371 23.9062 10.6891V10.1469C23.9063 10.0417 23.8701 9.93953 23.8035 9.85734L22.2698 7.96241C22.4708 7.62745 22.543 7.23221 22.4734 6.84893C22.4038 6.46565 22.197 6.11993 21.8907 5.87495C21.5845 5.62997 21.1993 5.50209 20.8055 5.51469C20.4118 5.52729 20.0357 5.67952 19.7461 5.94357C19.4566 6.20761 19.2728 6.56583 19.2284 6.95276C19.184 7.33969 19.282 7.72948 19.5044 8.05089C19.7269 8.3723 20.0589 8.60387 20.4398 8.70328C20.8207 8.80268 21.2251 8.76328 21.5791 8.59227L22.9687 10.3094V10.894L20.908 10.2151C20.773 10.1691 20.6311 10.146 20.4883 10.1469H16.6219L14.3965 7.5807C14.5827 7.45284 14.7348 7.28237 14.8399 7.08381C14.945 6.88526 14.9999 6.66452 15 6.44044V6.26345L15.6784 5.92819C15.7378 5.89881 15.7903 5.85727 15.8322 5.80632C15.8742 5.75538 15.9047 5.6962 15.9218 5.6327C15.9388 5.56921 15.942 5.50286 15.9312 5.43805C15.9203 5.37324 15.8956 5.31146 15.8587 5.2568L15.0888 4.11532C15.1957 4.09493 15.2921 4.03839 15.3614 3.95542C15.4308 3.87244 15.4687 3.7682 15.4687 3.66059C15.4679 2.92358 15.1713 2.21701 14.644 1.69587C14.1168 1.17473 13.4019 0.88158 12.6562 0.880737C11.7735 0.880737 10.9562 1.13133 10.3482 1.79531C10.0848 2.08344 9.88532 2.42284 9.76248 2.79171C9.63965 3.16057 9.59622 3.55075 9.63498 3.93718L9.73529 4.9282C9.77749 5.35549 9.98412 5.75044 10.3125 6.03145V14.78C10.3122 15.1055 10.3993 15.4252 10.5647 15.7066H9.84375C9.68404 15.7065 9.52551 15.7335 9.375 15.7863V9.6836C9.37458 9.31509 9.22629 8.9618 8.96266 8.70123C8.69902 8.44066 8.34158 8.29409 7.96875 8.29367H2.34375C1.97092 8.29409 1.61348 8.44066 1.34984 8.70123C1.08621 8.9618 0.937919 9.31509 0.9375 9.6836V12.0001H1.875V11.0735H8.4375V15.7066H1.875V12.9268H0.9375V16.7098C0.937396 16.9269 1.01442 17.137 1.15511 17.3037C1.29581 17.4703 1.49125 17.5828 1.7073 17.6215L6.09375 18.4098V19.497C5.69633 19.588 5.30824 19.715 4.93441 19.8764H2.34375C2.21943 19.8764 2.1002 19.9252 2.01229 20.0121C1.92439 20.099 1.875 20.2168 1.875 20.3397V22.5388C1.26253 23.5553 0.938666 24.7163 0.9375 25.8994C0.9375 26.0223 0.986886 26.1401 1.07479 26.227C1.1627 26.3139 1.28193 26.3627 1.40625 26.3627H3.55494C3.83507 27.0471 4.31562 27.6332 4.93497 28.046C5.55433 28.4587 6.28428 28.6792 7.03125 28.6792C7.77822 28.6792 8.50817 28.4587 9.12753 28.046C9.74688 27.6332 10.2274 27.0471 10.5076 26.3627H18.3891C18.7156 26.3625 19.0385 26.295 19.3371 26.1645C19.6358 26.0339 19.9036 25.8433 20.1234 25.6046L20.625 25.0591V26.3627C20.625 26.4856 20.6744 26.6034 20.7623 26.6903C20.8502 26.7772 20.9694 26.826 21.0937 26.826H22.065C22.4778 27.5326 23.1149 28.0848 23.8775 28.397C24.6402 28.7092 25.4857 28.7639 26.2831 28.5528C27.0804 28.3416 27.785 27.8763 28.2875 27.229C28.7901 26.5817 29.0625 25.7887 29.0625 24.9728C29.0629 24.6179 29.0114 24.2649 28.9098 23.9245C28.9579 23.8812 28.9964 23.8285 29.0227 23.7696C29.049 23.7108 29.0625 23.6472 29.0625 23.5828ZM20.1562 7.1354C20.1562 6.99795 20.1975 6.86359 20.2747 6.7493C20.352 6.63501 20.4618 6.54594 20.5903 6.49334C20.7188 6.44074 20.8602 6.42698 20.9965 6.45379C21.1329 6.48061 21.2582 6.5468 21.3566 6.64399C21.4549 6.74118 21.5219 6.86501 21.549 6.99982C21.5761 7.13463 21.5622 7.27436 21.509 7.40135C21.4558 7.52834 21.3656 7.63688 21.25 7.71324C21.1344 7.7896 20.9984 7.83036 20.8594 7.83036C20.673 7.83016 20.4942 7.75688 20.3624 7.62659C20.2306 7.4963 20.1565 7.31965 20.1562 7.1354ZM13.4502 23.5828C12.9911 23.5823 12.551 23.4018 12.2264 23.081C11.9018 22.7602 11.7193 22.3252 11.7187 21.8714C11.7187 21.4166 11.8351 20.9912 12.1418 20.6412C12.4151 20.3301 12.7925 20.1266 13.2051 20.0678C13.7031 19.9976 14.1589 19.7521 14.4886 19.3765C14.8183 19.0009 14.9999 18.5204 15 18.0231C15.0001 17.9623 14.988 17.902 14.9644 17.8457C14.9408 17.7895 14.9062 17.7384 14.8626 17.6954C14.9423 17.5308 14.9883 17.3522 14.998 17.1699C15.0078 16.9876 14.9811 16.8053 14.9194 16.6332H16.1925L14.1355 21.9192C14.0858 22.0465 14.061 22.182 14.0625 22.3184V23.5828H13.4502ZM15 22.6562H17.3437C17.4443 22.6563 17.5421 22.6884 17.6228 22.7476C17.7035 22.8068 17.7628 22.8902 17.792 22.9853C17.8211 23.0804 17.8185 23.1822 17.7846 23.2757C17.7507 23.3693 17.6873 23.4496 17.6037 23.5048C17.4859 23.5558 17.3587 23.5824 17.2301 23.5828H15V22.6562ZM18.6376 22.5752C18.5444 22.3596 18.3976 22.1707 18.211 22.0261C18.0243 21.8814 17.8037 21.7856 17.5697 21.7476L19.511 17.1282C19.6835 16.7177 19.7508 16.2714 19.707 15.8289C19.6633 15.3865 19.5097 14.9616 19.26 14.5919C19.0103 14.2221 18.6722 13.919 18.2755 13.7094C17.8789 13.4997 17.4361 13.39 16.9863 13.3901H15V12.6554L15.1373 12.7911C15.1808 12.8341 15.2325 12.8682 15.2894 12.8915C15.3462 12.9148 15.4072 12.9268 15.4687 12.9268H20.2369C20.1618 13.1364 20.1387 13.3608 20.1695 13.581C20.2004 13.8013 20.2843 14.0111 20.4142 14.1927C20.5441 14.3742 20.7161 14.5224 20.916 14.6246C21.1158 14.7268 21.3375 14.7801 21.5625 14.78H21.5638C21.2582 15.1804 21.0932 15.6684 21.0937 16.1699V19.764C21.093 20.0096 20.9944 20.2451 20.8191 20.4192L18.6376 22.5752ZM21.5625 13.8534C21.4698 13.8534 21.3792 13.8262 21.3021 13.7753C21.225 13.7244 21.1649 13.652 21.1294 13.5674C21.094 13.4827 21.0847 13.3895 21.1028 13.2997C21.1208 13.2098 21.1655 13.1272 21.231 13.0625C21.2966 12.9977 21.3801 12.9535 21.4711 12.9357C21.562 12.9178 21.6562 12.927 21.7419 12.962C21.8275 12.9971 21.9007 13.0565 21.9522 13.1327C22.0038 13.2089 22.0312 13.2984 22.0312 13.3901C22.0311 13.5129 21.9817 13.6307 21.8938 13.7175C21.8059 13.8044 21.6868 13.8532 21.5625 13.8534ZM24.8437 11.5368V13.8534H23.9062V11.6811C24.0845 11.5867 24.2835 11.5372 24.4857 11.5368H24.8437ZM22.9687 13.3901C22.9688 13.1677 22.9149 12.9485 22.8115 12.751C22.7081 12.5535 22.5582 12.3834 22.3745 12.2551C22.1908 12.1267 21.9786 12.0438 21.7557 12.0133C21.5329 11.9828 21.3058 12.0056 21.0937 12.0798V11.2531L22.9687 11.8708V13.3901ZM16.4062 11.0735H20.1562V12.0001H15.6629L12.9877 9.35598L12.3248 10.0112L14.0625 11.7287V13.3901H11.25V7.83036H13.3781L16.0504 10.9118C16.0944 10.9625 16.149 11.0032 16.2104 11.0312C16.2718 11.0591 16.3386 11.0735 16.4062 11.0735ZM11.0433 2.41707C11.4718 1.94907 12.0405 1.80735 12.6562 1.80735C13.0718 1.80788 13.4755 1.9446 13.804 2.19611C14.1326 2.44762 14.3675 2.79972 14.472 3.19728H12.6562C12.5319 3.19728 12.4127 3.24609 12.3248 3.33298C12.2369 3.41987 12.1875 3.53771 12.1875 3.66059V4.76094C12.1868 4.95363 12.1114 5.13871 11.9768 5.27809C11.8422 5.41747 11.6586 5.50054 11.4639 5.51019C11.2692 5.51983 11.0782 5.45533 10.9302 5.32996C10.7821 5.20458 10.6884 5.02788 10.6682 4.83623L10.5679 3.84522C10.5404 3.58747 10.5686 3.32689 10.6505 3.08071C10.7325 2.83452 10.8664 2.60832 11.0433 2.41707ZM11.4258 6.44044C11.8763 6.43998 12.3082 6.26288 12.6268 5.94802C12.9454 5.63315 13.1245 5.20623 13.125 4.76094V4.1239H14.0625C14.0625 4.21538 14.0899 4.30482 14.1412 4.38092L14.7842 5.33429L14.3213 5.56293C14.2435 5.60144 14.1781 5.66057 14.1324 5.73373C14.0867 5.80688 14.0625 5.89115 14.0625 5.97713V6.44044C14.0624 6.56327 14.0129 6.68104 13.9251 6.76789C13.8372 6.85475 13.718 6.90361 13.5937 6.90375H11.25V6.43135C11.3084 6.43733 11.3671 6.44036 11.4258 6.44044ZM11.25 14.78V14.3167H16.9863C17.2819 14.3167 17.5728 14.3888 17.8334 14.5265C18.094 14.6643 18.3162 14.8635 18.4803 15.1064C18.6443 15.3494 18.7452 15.6286 18.7739 15.9193C18.8027 16.21 18.7584 16.5033 18.6451 16.773L16.5621 21.7296H15.2137L17.3125 16.3362C17.3398 16.2661 17.3494 16.1904 17.3405 16.1157C17.3316 16.041 17.3045 15.9696 17.2614 15.9076C17.2183 15.8456 17.1607 15.7949 17.0933 15.7599C17.026 15.7249 16.9511 15.7066 16.875 15.7066H12.1875C11.9389 15.7063 11.7007 15.6086 11.5249 15.4349C11.3492 15.2612 11.2503 15.0257 11.25 14.78ZM9.84375 16.6332H13.5937C13.7181 16.6332 13.8373 16.682 13.9252 16.7689C14.0131 16.8558 14.0625 16.9737 14.0625 17.0965C14.0625 17.2194 14.0131 17.3373 13.9252 17.4241C13.8373 17.511 13.7181 17.5598 13.5937 17.5598H9.84375C9.71943 17.5598 9.6002 17.511 9.51229 17.4241C9.42439 17.3373 9.375 17.2194 9.375 17.0965C9.375 16.9737 9.42439 16.8558 9.51229 16.7689C9.6002 16.682 9.71943 16.6332 9.84375 16.6332ZM1.875 10.1469V9.6836C1.87514 9.56076 1.92457 9.443 2.01245 9.35614C2.10033 9.26928 2.21947 9.22043 2.34375 9.22029H7.96875C8.09303 9.22043 8.21217 9.26928 8.30005 9.35614C8.38793 9.443 8.43736 9.56076 8.4375 9.6836V10.1469H1.875ZM1.875 16.6332H8.4375V17.5598H6.60475L1.875 16.7098V16.6332ZM3.39199 20.803C3.18852 20.9663 2.99502 21.1413 2.8125 21.3272V20.803H3.39199ZM7.03125 27.7526C6.53808 27.7504 6.05404 27.6211 5.62697 27.3773C5.1999 27.1335 4.8446 26.7838 4.59621 26.3627H5.79223C6.13429 26.6612 6.57491 26.826 7.03125 26.826C7.48759 26.826 7.92821 26.6612 8.27027 26.3627H9.46629C9.2179 26.7838 8.8626 27.1335 8.43553 27.3773C8.00846 27.6211 7.52441 27.7504 7.03125 27.7526ZM19.4297 24.9815C19.2978 25.1246 19.1371 25.239 18.9579 25.3173C18.7787 25.3955 18.585 25.436 18.3891 25.4361H1.89439C1.9952 24.2265 2.48787 23.0813 3.29929 22.1704C4.11071 21.2594 5.19764 20.6314 6.39879 20.3793C6.51996 20.3533 6.64358 20.34 6.76758 20.3397H9.84375V19.4131H7.03125V18.4865H13.9629C13.8835 18.6626 13.7601 18.816 13.6043 18.9322C13.4485 19.0484 13.2655 19.1236 13.0723 19.1508C12.4364 19.2412 11.8547 19.5548 11.4334 20.0341C10.9798 20.5504 10.7812 21.1962 10.7812 21.8715C10.7808 22.4993 11.008 23.1064 11.4216 23.5828H7.5V24.5095H17.2301C17.7266 24.5058 18.2022 24.3111 18.5559 23.9666L21.482 21.0744C21.8325 20.7261 22.0298 20.2552 22.0312 19.764V16.1699C22.0316 15.8826 22.1219 15.6023 22.2897 15.3677C22.4576 15.1331 22.6948 14.9555 22.9687 14.8594V16.6332C22.9696 17.29 23.2053 17.9253 23.6342 18.4269C24.063 18.9285 24.6575 19.2641 25.3125 19.3744V20.3397C25.0215 20.3397 24.7237 20.3223 24.4344 20.3597C23.5575 20.4456 22.7297 20.8003 22.0667 21.374C21.4037 21.9478 20.9387 22.7119 20.7367 23.5597L19.4297 24.9815ZM25.0946 24.0462H25.1184L25.6842 24.6054C25.7825 24.703 25.8378 24.835 25.8381 24.9728C25.8381 25.0755 25.8073 25.176 25.7495 25.2614C25.6918 25.3468 25.6097 25.4134 25.5136 25.4527C25.4176 25.4921 25.3119 25.5023 25.21 25.4823C25.108 25.4623 25.0143 25.4128 24.9408 25.3401L24.5094 24.9138L25.0946 24.0462ZM25.3125 27.7526C24.9063 27.7514 24.5052 27.6636 24.1364 27.4954C23.7676 27.3272 23.4398 27.0825 23.1753 26.7778C23.2495 26.7421 23.3128 26.6875 23.3587 26.6197L23.7652 26.0174C23.9909 26.3446 24.3167 26.5917 24.6949 26.7224C25.0731 26.8531 25.4837 26.8606 25.8665 26.7437C26.2493 26.6269 26.5841 26.3919 26.8219 26.0731C27.0596 25.7544 27.1878 25.3688 27.1875 24.9728C27.1882 24.6982 27.1263 24.4271 27.0065 24.1794C26.9846 24.1338 26.9606 24.0896 26.9352 24.0462H27.9647C28.1144 24.4655 28.1601 24.9142 28.0981 25.3546C28.0361 25.795 27.8682 26.2143 27.6084 26.5773C27.3487 26.9404 27.0046 27.2366 26.6051 27.4411C26.2056 27.6455 25.7624 27.7524 25.3125 27.7526Z" fill="url(#paint0_linear_0:405)"/>
<defs>
<linearGradient id="paint0_linear_0:405" x1="0.9375" y1="13.8533" x2="28.3884" y2="13.9773" gradientUnits="userSpaceOnUse">
<stop stop-color="#47C2FF"/>
<stop offset="1" stop-color="#1CB4FF" stop-opacity="0.71"/>
</linearGradient>
</defs>
</svg>
