<svg width="22" height="15" viewBox="0 0 22 15" fill="none" xmlns="http://www.w3.org/2000/svg">
<path fill-rule="evenodd" clip-rule="evenodd" d="M0 7.50001C0 7.3011 0.0790176 7.11033 0.21967 6.96968C0.360322 6.82903 0.551088 6.75001 0.75 6.75001L18.4395 6.75001L13.719 2.03101C13.5782 1.89018 13.4991 1.69918 13.4991 1.50001C13.4991 1.30085 13.5782 1.10984 13.719 0.969012C13.8598 0.828182 14.0508 0.749065 14.25 0.749065C14.4492 0.749065 14.6402 0.828182 14.781 0.969012L20.781 6.96901C20.8508 7.03868 20.9063 7.12144 20.9441 7.21256C20.9819 7.30368 21.0013 7.40136 21.0013 7.50001C21.0013 7.59866 20.9819 7.69634 20.9441 7.78746C20.9063 7.87858 20.8508 7.96134 20.781 8.03101L14.781 14.031C14.6402 14.1718 14.4492 14.251 14.25 14.251C14.0508 14.251 13.8598 14.1718 13.719 14.031C13.5782 13.8902 13.4991 13.6992 13.4991 13.5C13.4991 13.3008 13.5782 13.1098 13.719 12.969L18.4395 8.25001L0.75 8.25001C0.551088 8.25001 0.360322 8.17099 0.21967 8.03034C0.0790176 7.88969 0 7.69892 0 7.50001Z" fill="white"/>
</svg>
